<?xml version="1.0" standalone="no"?>
<!DOCTYPE svg PUBLIC "-//W3C//DTD SVG 1.1//EN" "http://www.w3.org/Graphics/SVG/1.1/DTD/svg11.dtd" >
<svg xmlns="http://www.w3.org/2000/svg" xmlns:xlink="http://www.w3.org/1999/xlink" version="1.1">
<metadata>
Created by FontForge 20141024 at Sun Jun 28 05:13:41 2015
 By System Administrator
Copyright (c) 2009 Typodermic Fonts. All rights reserved.
</metadata>
<defs>
<font id="Zingende-Light" horiz-adv-x="378" >
  <font-face 
    font-family="Zingende"
    font-weight="300"
    font-stretch="normal"
    units-per-em="1000"
    panose-1="2 11 4 6 4 0 0 2 0 4"
    ascent="800"
    descent="-200"
    x-height="745"
    cap-height="745"
    bbox="-279 -222 784 972"
    underline-thickness="50"
    underline-position="-50"
    unicode-range="U+0017-FB02"
  />
<missing-glyph horiz-adv-x="567" 
d="M146 -196q-48 0 -73 21t-25 66v816q0 43 25 65t73 22h272q99 0 99 -87v-816q0 -87 -99 -87h-272zM147 -96q32 0 52 27t20 69q0 24 -18.5 46.5t-59.5 22.5q-18 0 -31 -9.5t-21.5 -24t-13 -31.5t-4.5 -33q0 -25 17.5 -46t58.5 -21zM246 146q11 35 32.5 65t47.5 58t53 57
t49.5 63.5t37 75.5t14.5 94q0 42 -17.5 75t-47 55.5t-68 34t-79.5 11.5q-10 0 -20.5 -1t-21.5 -2l-32 -118q8 1 16 1h16q38 0 63.5 -6.5t41 -17.5t22 -24.5t6.5 -26.5q0 -38 -13 -68.5t-33.5 -58t-45.5 -53t-49 -54t-44 -61t-31 -72.5z" />
    <glyph glyph-name="copyright" unicode="&#x28;C&#x29;" horiz-adv-x="598" 
d="M296 -12q-70 0 -119.5 24t-81 72.5t-46 122t-14.5 173.5t15 171.5t47.5 117.5t82.5 67.5t121 21.5q70 0 119.5 -22t81 -68.5t46.5 -119t15 -174.5q0 -101 -15 -174t-47 -120t-82.5 -69.5t-122.5 -22.5zM296 21q64 0 109 20t73.5 62.5t41.5 109.5t13 161t-13 160.5
t-40.5 108.5t-71.5 61.5t-106 19.5q-64 0 -109 -19t-73.5 -60.5t-41.5 -107t-13 -157.5t12.5 -160t40.5 -112t72 -65.5t106 -21.5zM370 153q-14 -9 -30 -11.5t-33 -2.5q-32 0 -51 9.5t-28.5 26t-12 38t-2.5 46.5v244q0 25 2.5 46.5t12 37.5t28.5 25.5t51 9.5q17 0 33 -2.5
t30 -10.5v-32q-17 8 -31 11t-28 3q-24 0 -37.5 -7t-20.5 -19t-8.5 -28t-1.5 -35v-243q0 -19 1.5 -35.5t8.5 -28.5t20.5 -19t37.5 -7q14 0 29 2.5t30 11.5v-30z" />
    <glyph glyph-name="registered" unicode="&#x28;R&#x29;" horiz-adv-x="598" 
d="M372 143v52q0 24 -12 39.5t-47 15.5h-54v-107h-30v107h-28l-2 23h30v337h71q27 0 46.5 -13.5t31.5 -37.5t18 -56.5t6 -70.5v-42q0 -19 -2 -39t-7.5 -38t-15.5 -31.5t-25 -19.5q24 -5 37 -23.5t13 -43.5v-52h-30zM372 435q0 32 -4 59t-13 46t-23 29.5t-35 10.5h-38v-307
h53q18 0 30 9t18.5 24.5t9 37t2.5 46.5v45zM295 -12q-70 0 -119 24t-80.5 72.5t-46 122t-14.5 173.5t15 171.5t47 117.5t82 67.5t121 21.5q70 0 120 -22t81.5 -68.5t46.5 -119t15 -174.5q0 -101 -15 -174t-47 -120t-83 -69.5t-123 -22.5zM296 21q64 0 109 20t73.5 62.5
t41.5 109.5t13 161t-13 160.5t-40.5 108.5t-71.5 61.5t-106 19.5q-64 0 -109 -19t-73.5 -60.5t-41.5 -107t-13 -157.5t12.5 -160t40.5 -112t72 -65.5t106 -21.5z" />
    <glyph glyph-name="uni2117" unicode="&#x28;P&#x29;" horiz-adv-x="598" 
d="M232 136v113h-27l-3 25h30v355h77q57 0 83 -44t26 -135v-35q0 -44 -5 -75.5t-17.5 -51.5t-33.5 -29.5t-53 -9.5h-45v-113h-32zM387 453q0 75 -18 109.5t-62 34.5h-43v-323h43q47 0 63.5 32.5t16.5 103.5v43zM295 -12q-70 0 -119 24t-80.5 72.5t-46 122t-14.5 173.5
t15 171.5t47 117.5t82 67.5t121 21.5q70 0 120 -22t81.5 -68.5t46.5 -119t15 -174.5q0 -101 -15 -174t-47 -120t-83 -69.5t-123 -22.5zM296 21q64 0 109 20t73.5 62.5t41.5 109.5t13 161t-13 160.5t-40.5 108.5t-71.5 61.5t-106 19.5q-64 0 -109 -19t-73.5 -60.5t-41.5 -107
t-13 -157.5t12.5 -160t40.5 -112t72 -65.5t106 -21.5z" />
    <glyph glyph-name=".notdef" horiz-adv-x="567" 
d="M146 -196q-48 0 -73 21t-25 66v816q0 43 25 65t73 22h272q99 0 99 -87v-816q0 -87 -99 -87h-272zM147 -96q32 0 52 27t20 69q0 24 -18.5 46.5t-59.5 22.5q-18 0 -31 -9.5t-21.5 -24t-13 -31.5t-4.5 -33q0 -25 17.5 -46t58.5 -21zM246 146q11 35 32.5 65t47.5 58t53 57
t49.5 63.5t37 75.5t14.5 94q0 42 -17.5 75t-47 55.5t-68 34t-79.5 11.5q-10 0 -20.5 -1t-21.5 -2l-32 -118q8 1 16 1h16q38 0 63.5 -6.5t41 -17.5t22 -24.5t6.5 -26.5q0 -38 -13 -68.5t-33.5 -58t-45.5 -53t-49 -54t-44 -61t-31 -72.5z" />
    <glyph glyph-name="uni0017" horiz-adv-x="183" 
 />
    <glyph glyph-name="space" unicode=" " horiz-adv-x="183" 
 />
    <glyph glyph-name="exclam" unicode="!" horiz-adv-x="174" 
d="M65 226l-10 519h60l-10 -519h-40zM85 -8q-33 0 -33 41t33 41q34 0 34 -41t-34 -41z" />
    <glyph glyph-name="quotedbl" unicode="&#x22;" horiz-adv-x="274" 
d="M54 498l-9 247h45l-8 -247h-28zM191 498l-9 247h45l-8 -247h-28z" />
    <glyph glyph-name="numbersign" unicode="#" horiz-adv-x="458" 
d="M192 0l60 238h-118l-59 -238h-32l59 238h-71v29h76l54 214h-102v28h109l59 236h32l-58 -236h117l59 236h31l-58 -236h77v-28h-83l-54 -214h110v-29h-116l-60 -238h-32zM311 481h-117l-54 -214h117z" />
    <glyph glyph-name="dollar" unicode="$" horiz-adv-x="318" 
d="M137 0v84q-21 -3 -46 -3q-10 0 -21 1t-19 2v40q8 -2 17.5 -3t20.5 -1q65 0 101.5 24.5t36.5 83.5q0 32 -14.5 56.5t-36 45.5t-46.5 40.5t-46.5 42t-36 50t-14.5 64.5q0 43 27.5 73.5t76.5 42.5v102h31v-96q15 3 32 3q8 0 19 -1t20 -2v-42q-17 3 -34 3q-57 0 -91.5 -22
t-34.5 -63q0 -33 14.5 -57t36 -44.5t47 -39.5t47 -41.5t36 -50.5t14.5 -67q0 -45 -27 -81t-79 -53v-91h-31z" />
    <glyph glyph-name="percent" unicode="%" horiz-adv-x="501" 
d="M47 669q0 38 19.5 60.5t60.5 22.5t60.5 -22.5t19.5 -60.5v-261q0 -38 -19.5 -60t-60.5 -22t-60.5 22t-19.5 60v261zM172 663q0 23 -9.5 38.5t-35.5 15.5t-35.5 -15.5t-9.5 -38.5v-249q0 -22 9.5 -38t35.5 -16t35.5 16t9.5 38v249zM95 0l274 745h36l-273 -745h-37z
M292 336q0 38 19.5 60.5t60.5 22.5t60.5 -22.5t19.5 -60.5v-261q0 -38 -19.5 -60t-60.5 -22t-60.5 22t-19.5 60v261zM417 330q0 23 -9.5 38.5t-35.5 15.5t-35.5 -15.5t-9.5 -38.5v-249q0 -22 9.5 -38t35.5 -16t35.5 16t9.5 38v249z" />
    <glyph glyph-name="ampersand" unicode="&#x26;" horiz-adv-x="438" 
d="M365 0l-49 41q-34 -27 -72 -40.5t-89 -13.5t-84 27.5t-33 77.5q0 21 8.5 37t22.5 28.5t31 22t35 16.5q-17 16 -33 32.5t-28 34.5t-19.5 39t-7.5 47v264q0 66 33.5 105.5t104.5 39.5t105 -39.5t34 -105.5v-256q0 -36 -6.5 -60.5t-22 -43t-40.5 -32.5t-62 -29l119 -103
q29 30 44.5 66t20.5 75h37q-4 -42 -21.5 -87t-51.5 -80l75 -63h-51zM169 212q28 10 48.5 21.5t34.5 27t21 37t7 52.5v244q0 26 -5 48t-16 37.5t-29 24t-45 8.5q-30 0 -48 -10t-28.5 -28t-14 -43t-3.5 -56v-230q0 -42 21.5 -72t56.5 -61zM158 176q-32 -13 -55 -29t-23 -48
q0 -35 24.5 -54.5t61.5 -19.5q35 0 64.5 10.5t55.5 31.5z" />
    <glyph glyph-name="quotesingle" unicode="'" horiz-adv-x="137" 
d="M54 498l-9 247h45l-8 -247h-28z" />
    <glyph glyph-name="parenleft" unicode="(" horiz-adv-x="325" 
d="M288 -132q-57 22 -97 62t-64.5 100t-36 140.5t-11.5 183.5q0 97 9 177t30.5 142t58.5 107t94 73l19 -28q-53 -28 -86.5 -72.5t-53 -103.5t-27 -133t-7.5 -162q0 -92 9.5 -167t31.5 -132.5t58 -97.5t90 -62z" />
    <glyph glyph-name="parenright" unicode=")" horiz-adv-x="326" 
d="M20 -105q54 22 90.5 62t58 97.5t31 132.5t9.5 167q0 88 -7.5 162t-27 133t-53.5 103.5t-86 72.5l19 28q57 -28 94 -73t58.5 -107t30.5 -142t9 -177q0 -103 -11.5 -183.5t-36 -140.5t-64.5 -100t-97 -62z" />
    <glyph glyph-name="asterisk" unicode="*" horiz-adv-x="422" 
d="M301 398l-91 139l-93 -138l-33 24l105 131l-163 45l14 37l157 -59l-9 168h44l-9 -169l158 60l13 -37l-163 -45l104 -132z" />
    <glyph glyph-name="plus" unicode="+" horiz-adv-x="514" 
d="M239 156v190h-190v35h190v188h34v-188h190v-35h-190v-190h-34z" />
    <glyph glyph-name="comma" unicode="," horiz-adv-x="168" 
d="M62 -57l19 53q-13 1 -21.5 9.5t-8.5 27.5q0 41 33 41q34 0 34 -41q0 -15 -7 -35l-23 -55h-26z" />
    <glyph glyph-name="hyphen" unicode="-" horiz-adv-x="277" 
d="M22 283v35h230v-35h-230z" />
    <glyph glyph-name="period" unicode="." horiz-adv-x="167" 
d="M82 -8q-33 0 -33 41t33 41q34 0 34 -41t-34 -41z" />
    <glyph glyph-name="slash" unicode="/" horiz-adv-x="318" 
d="M3 -40l275 796h35l-276 -796h-34z" />
    <glyph glyph-name="zero" unicode="0" horiz-adv-x="373" 
d="M47 615q0 65 34 104t105 39t104.5 -39t33.5 -104v-485q0 -65 -33.5 -104t-104.5 -39t-105 39t-34 104v485zM280 604q0 23 -4.5 43t-15 35t-29 23.5t-45.5 8.5t-45.5 -8.5t-29.5 -23.5t-15.5 -35t-4.5 -43v-464q0 -23 4.5 -43t15.5 -35t29.5 -23.5t45.5 -8.5t45.5 8.5
t29 23.5t15 35t4.5 43v464z" />
    <glyph glyph-name="one" unicode="1" horiz-adv-x="141" 
d="M44 0v695l-35 50h79v-745h-44z" />
    <glyph glyph-name="two" unicode="2" horiz-adv-x="359" 
d="M41 0v110q0 47 10.5 85.5t29 72t44 63.5t55.5 60q38 37 64.5 82.5t26.5 106.5q0 26 -6.5 50t-21 42.5t-37.5 29.5t-57 11q-24 0 -46.5 -4.5t-46.5 -15.5v44q26 12 49.5 16.5t50.5 4.5q43 0 72.5 -14.5t48.5 -38.5t27.5 -56t8.5 -67q0 -71 -33 -128t-78 -101
q-28 -27 -49.5 -53t-36.5 -54.5t-23 -62t-8 -75.5v-67h222v-41h-266z" />
    <glyph glyph-name="three" unicode="3" horiz-adv-x="335" 
d="M37 49q55 -22 103 -22q16 0 34 4.5t33 14.5t24.5 26t9.5 40q0 11 -3.5 22t-13.5 19.5t-27 13.5t-45 5h-66l-7 34h70q31 0 50 12.5t29 34t13 50.5t3 61v202q0 31 -3 57.5t-14.5 46.5t-34 31.5t-61.5 11.5q-26 0 -48.5 -4t-45.5 -18v46q23 14 48.5 17.5t51.5 3.5
q52 0 82 -15t45.5 -41t19.5 -60.5t4 -74.5v-195q0 -34 -3 -65t-13 -55t-28 -40.5t-48 -22.5q50 -4 69 -28.5t19 -54.5q0 -35 -12.5 -58t-33 -36.5t-46 -19t-52.5 -5.5t-54 5.5t-49 15.5v41z" />
    <glyph glyph-name="four" unicode="4" horiz-adv-x="354" 
d="M254 0v124h-232l276 690v-656h26v-34h-26v-124h-44zM254 602l-177 -444h177v444z" />
    <glyph glyph-name="five" unicode="5" horiz-adv-x="327" 
d="M45 48q23 -10 52 -15.5t56 -5.5q19 0 36.5 5.5t31 17t22 28.5t8.5 41q0 39 -22 60.5t-61 21.5q-29 0 -57 -5.5t-58 -17.5l18 567h201v-44h-159l-17 -483q20 9 41.5 12.5t43.5 3.5q54 0 83 -31t29 -84q0 -71 -39 -101.5t-103 -30.5q-26 0 -55 5t-51 16v40z" />
    <glyph glyph-name="six" unicode="6" horiz-adv-x="366" 
d="M324 130q0 -65 -33.5 -104t-104.5 -39t-105 39t-34 104v437q0 40 4 74.5t19.5 60.5t45.5 41t82 15q26 0 52.5 -4t47.5 -17v-46q-22 14 -45.5 18t-48.5 4q-39 0 -62 -11.5t-34 -31.5t-14 -46.5t-3 -57.5v-298q11 31 38.5 44t68.5 13q60 0 93 -30.5t33 -90.5v-74zM280 198
q0 46 -22 68.5t-72 22.5t-72.5 -21t-22.5 -64v-67q0 -49 22 -78t73 -29q50 0 72 29t22 78v61z" />
    <glyph glyph-name="seven" unicode="7" horiz-adv-x="328" 
d="M88 0q13 174 53 354t109 347h-220v44h274q-75 -191 -116 -378.5t-52 -366.5h-48z" />
    <glyph glyph-name="eight" unicode="8" horiz-adv-x="373" 
d="M47 615q0 65 33.5 104t105.5 39t105.5 -39t33.5 -104v-282q0 -75 -28.5 -110.5t-71.5 -40.5q93 -9 93 -90q0 -52 -34.5 -78.5t-97.5 -26.5q-61 0 -96.5 25.5t-35.5 79.5q0 81 93 90q-43 5 -71.5 40.5t-28.5 110.5v282zM281 610q0 47 -23 74.5t-72 27.5q-50 0 -72.5 -27.5
t-22.5 -74.5v-283q0 -64 22 -95.5t73 -31.5t73 31.5t22 95.5v283zM279 99q0 32 -22.5 50t-70.5 18t-70 -18t-22 -50q0 -73 92 -73q93 0 93 73z" />
    <glyph glyph-name="nine" unicode="9" horiz-adv-x="372" 
d="M171 0q39 39 69.5 109.5t38.5 163.5q-9 -24 -32 -44t-71 -20q-63 0 -97 32t-34 104v270q0 65 34.5 104t105.5 39q70 0 104 -39t34 -104v-260q0 -71 -9 -128t-23.5 -101t-32 -75.5t-33.5 -50.5h-54zM279 599q0 51 -21 83t-73 32q-53 0 -74 -32t-21 -83v-254
q0 -54 23 -76.5t72 -22.5q40 0 67 23t27 76v254z" />
    <glyph glyph-name="colon" unicode=":" horiz-adv-x="167" 
d="M82 -8q-33 0 -33 41t33 41q34 0 34 -41t-34 -41zM82 360q-33 0 -33 42t33 42q34 0 34 -42t-34 -42z" />
    <glyph glyph-name="semicolon" unicode=";" horiz-adv-x="168" 
d="M62 -57l19 53q-13 1 -21.5 9.5t-8.5 27.5q0 41 33 41q34 0 34 -41q0 -15 -7 -35l-23 -55h-26zM84 360q-33 0 -33 42t33 42q34 0 34 -42t-34 -42z" />
    <glyph glyph-name="less" unicode="&#x3c;" horiz-adv-x="514" 
d="M49 352v29l414 273v-44l-368 -243l368 -244v-44z" />
    <glyph glyph-name="equal" unicode="=" horiz-adv-x="514" 
d="M49 243v35h414v-35h-414zM49 448v36h414v-36h-414z" />
    <glyph glyph-name="greater" unicode="&#x3e;" horiz-adv-x="514" 
d="M49 79v44l369 244l-369 243v44l414 -273v-29z" />
    <glyph glyph-name="question" unicode="?" horiz-adv-x="302" 
d="M85 33q1 19 8 30t25 11t26 -11t8 -30q0 -41 -34 -41q-33 0 -33 41zM100 226q1 53 22 92t46.5 76.5t46.5 81t21 106.5q0 26 -6 49.5t-20 41.5t-37 29t-57 11q-19 0 -40.5 -4.5t-53.5 -18.5v47q25 12 49.5 16.5t50.5 4.5q42 0 72 -14t48.5 -37.5t27 -54.5t8.5 -65
q0 -47 -10.5 -83t-26 -65t-33.5 -53.5t-33.5 -49t-26 -51t-10.5 -59.5h-38z" />
    <glyph glyph-name="at" unicode="@" horiz-adv-x="406" 
d="M354 -59q-20 -29 -52.5 -47t-70.5 -18q-69 0 -107.5 32.5t-57 91t-23 141t-4.5 181.5q0 78 3.5 147t20 121t50 82t93.5 30q50 0 79.5 -20t44.5 -54.5t19.5 -81t4.5 -99.5v-352h-27v65q-9 -32 -29.5 -53t-52.5 -21q-38 0 -63 47.5t-25 149.5t25 151t63 49q32 0 52 -21
t30 -56v47q0 42 -4 81t-17 69t-37 48t-63 18q-49 0 -76 -27t-40.5 -74.5t-16.5 -111t-3 -135.5q0 -99 4.5 -176t21 -129t48.5 -79t87 -27q38 0 69.5 20t53.5 53v-42zM325 364q-8 38 -26.5 60.5t-46.5 22.5q-29 0 -47 -39.5t-18 -124.5t18 -123.5t47 -38.5q26 0 46 24.5
t27 58.5v160z" />
    <glyph glyph-name="A" unicode="A" 
d="M315 0l-18 86h-218l-16 -86h-48l174 814l173 -814h-47zM189 627l-102 -503h203z" />
    <glyph glyph-name="B" unicode="B" horiz-adv-x="369" 
d="M48 0v172h-38l-8 33h46v540h115q43 0 73.5 -21.5t50.5 -59.5t29.5 -90t9.5 -113v-72q0 -53 -6 -88.5t-17.5 -58.5t-28.5 -35.5t-39 -17.5q43 -5 64 -30.5t21 -60.5q0 -19 -5.5 -36.5t-18 -31t-33 -22t-51.5 -8.5h-164zM282 466q0 52 -6.5 95.5t-21 74.5t-38 48t-57.5 17
h-67v-496h99q23 0 40 9t28.5 30t17 56.5t5.5 88.5v77zM206 41q42 0 58 19.5t16 46.5q0 29 -20 47t-65 18h-103v-131h114z" />
    <glyph glyph-name="C" unicode="C" horiz-adv-x="336" 
d="M298 8q-23 -14 -48.5 -17.5t-51.5 -3.5q-52 0 -82 15t-45.5 41t-19.5 60.5t-4 74.5v389q0 40 4 74.5t19.5 60.5t45.5 41t82 15q26 0 51.5 -3.5t48.5 -17.5v-46q-24 15 -47.5 18.5t-46.5 3.5q-39 0 -62 -11.5t-34 -31.5t-14 -46.5t-3 -57.5v-388q0 -31 3 -57.5t14 -46.5
t34 -31.5t62 -11.5q23 0 47 3.5t47 17.5v-44z" />
    <glyph glyph-name="D" unicode="D" horiz-adv-x="375" 
d="M51 0v745h115q86 0 124 -71.5t38 -208.5v-185q0 -137 -38 -208.5t-124 -71.5h-115zM162 41q68 0 95 60t27 175v193q0 114 -27 173t-95 59h-67v-660h67z" />
    <glyph glyph-name="E" unicode="E" horiz-adv-x="293" 
d="M48 0v172h-38l-8 34h46v539h207v-44h-163v-495h149v-34h-149v-131h170v-41h-214z" />
    <glyph glyph-name="F" unicode="F" horiz-adv-x="278" 
d="M48 0v172h-38l-8 34h46v539h207v-44h-163v-495h140v-34h-140v-172h-44z" />
    <glyph glyph-name="G" unicode="G" horiz-adv-x="363" 
d="M282 230h44v-213q-14 -11 -49.5 -20.5t-89.5 -9.5q-71 0 -105 39t-34 104v42h-38l-8 34h46v361q0 40 4 74.5t19.5 60.5t45.5 41t81 15q27 0 52.5 -3.5t48.5 -17.5v-46q-24 14 -47 18t-48 4q-39 0 -61.5 -11.5t-33.5 -31.5t-14 -46.5t-3 -57.5v-435q0 -48 23.5 -74.5
t71.5 -26.5q39 0 61.5 4.5t33.5 11.5v184z" />
    <glyph glyph-name="H" unicode="H" 
d="M282 0v172h-190v-172h-44v172h-39l-7 34h46v539h44v-539h190v539h44v-745h-44z" />
    <glyph glyph-name="I" unicode="I" horiz-adv-x="148" 
d="M51 0v745h44v-745h-44z" />
    <glyph glyph-name="J" unicode="J" horiz-adv-x="293" 
d="M196 745h44v-605q0 -75 -29.5 -114t-97.5 -39q-35 0 -55.5 5t-34.5 16v44q18 -11 37.5 -15t48.5 -4q47 0 67 28t20 83v601z" />
    <glyph glyph-name="K" unicode="K" horiz-adv-x="367" 
d="M282 0v82q0 39 -19 64.5t-69 25.5h-102v-172h-44v172h-38l-8 34h46v539h44v-539h103q87 0 87 133v406h44v-406q0 -132 -85 -149q41 -6 63 -33t22 -75v-82h-44z" />
    <glyph glyph-name="L" unicode="L" horiz-adv-x="280" 
d="M51 0v745h44v-704h159v-41h-203z" />
    <glyph glyph-name="M" unicode="M" horiz-adv-x="463" 
d="M375 0v557l-144 -456l-143 456v-557h-39v814l182 -582l183 582v-814h-39z" />
    <glyph glyph-name="N" unicode="N" horiz-adv-x="376" 
d="M91 579v-579h-42v814l235 -649v580h41v-814z" />
    <glyph glyph-name="O" unicode="O" horiz-adv-x="373" 
d="M47 615q0 65 34 104t105 39t104.5 -39t33.5 -104v-485q0 -65 -33.5 -104t-104.5 -39t-105 39t-34 104v485zM280 604q0 23 -4.5 43t-15 35t-29 23.5t-45.5 8.5t-45.5 -8.5t-29.5 -23.5t-15.5 -35t-4.5 -43v-464q0 -23 4.5 -43t15.5 -35t29.5 -23.5t45.5 -8.5t45.5 8.5
t29 23.5t15 35t4.5 43v464z" />
    <glyph glyph-name="P" unicode="P" horiz-adv-x="362" 
d="M49 0v172h-39l-8 33h47v540h115q86 0 124 -65.5t38 -203.5v-54q0 -66 -7 -113.5t-25.5 -77.5t-50 -44.5t-79.5 -14.5h-72v-172h-43zM283 480q0 114 -27.5 167.5t-95.5 53.5h-68v-496h68q37 0 61 12.5t37.5 38t19 65t5.5 94.5v65z" />
    <glyph glyph-name="Q" unicode="Q" horiz-adv-x="372" 
d="M343 -137q-15 -11 -35 -15t-46 -4q-54 0 -81 28t-27 79q0 12 1.5 21t3.5 17q-57 8 -84.5 45t-27.5 96v485q0 65 34 104t105 39t104.5 -39t33.5 -104v-485q0 -61 -31.5 -100t-97.5 -42q-4 -12 -4 -33q0 -31 19.5 -49.5t51.5 -18.5q23 0 42.5 3t38.5 16v-43zM280 604
q0 21 -4.5 41t-15.5 35t-29 24.5t-45 9.5q-28 0 -46 -8.5t-29 -23.5t-15.5 -35t-4.5 -43v-464q0 -21 4.5 -41t15.5 -35.5t29.5 -24.5t45.5 -9t45.5 8.5t29 23.5t15 35t4.5 43v464z" />
    <glyph glyph-name="R" unicode="R" horiz-adv-x="370" 
d="M283 0v81q0 42 -24.5 66.5t-67.5 24.5h-99v-172h-43v172h-39l-8 33h47v540h115q43 0 73.5 -21.5t50 -59.5t29 -90t9.5 -113v-68q0 -32 -4 -64.5t-14 -61t-27 -49.5t-43 -29q43 -5 65.5 -35t22.5 -72v-82h-43zM283 466q0 52 -6.5 95.5t-21 74.5t-38 48t-57.5 17h-68v-496
h94q29 0 48 14.5t30 39.5t15 59.5t4 73.5v74z" />
    <glyph glyph-name="S" unicode="S" horiz-adv-x="279" 
d="M37 35q7 -1 16 -2t17 -1q32 0 56 12.5t40 33.5t24 49t8 58q0 37 -13 70t-33 64.5t-42.5 62t-42.5 63.5t-33 69.5t-13 79.5q0 35 10.5 65t30 51.5t47.5 34t64 12.5q8 0 18 -1t18 -2v-47q-6 2 -14 2.5t-16 0.5q-53 0 -84 -34.5t-31 -87.5q0 -47 20 -85.5t46 -73.5
q26 -37 47 -67t35.5 -59t22.5 -59.5t8 -69.5q0 -38 -11 -72t-32.5 -59.5t-54 -40.5t-74.5 -15q-8 0 -17.5 0.5t-16.5 2.5v45z" />
    <glyph glyph-name="T" unicode="T" horiz-adv-x="299" 
d="M127 0v701h-104v44h251v-44h-104v-701h-43z" />
    <glyph glyph-name="U" unicode="U" horiz-adv-x="377" 
d="M283 745h43v-615q0 -65 -33.5 -104t-104.5 -39t-105 39t-34 104v615h45v-614q0 -46 23 -73.5t71 -27.5q49 0 72 27.5t23 73.5v614z" />
    <glyph glyph-name="V" unicode="V" horiz-adv-x="366" 
d="M15 745h48l119 -621l120 621h48l-168 -814z" />
    <glyph glyph-name="W" unicode="W" horiz-adv-x="556" 
d="M278 556l-103 -625l-160 814h47l110 -592l106 661l106 -661l110 592h46l-159 -814z" />
    <glyph glyph-name="X" unicode="X" horiz-adv-x="358" 
d="M294 0l-116 350l-122 -350h-45l146 400l-119 345h46l97 -293l102 293h44l-124 -341l139 -404h-48z" />
    <glyph glyph-name="Y" unicode="Y" horiz-adv-x="330" 
d="M144 0v446l-132 299h44l111 -256l109 256h42l-130 -299v-446h-44z" />
    <glyph glyph-name="Z" unicode="Z" horiz-adv-x="287" 
d="M25 0l186 701h-186v44h237l-181 -704h181v-41h-237z" />
    <glyph glyph-name="bracketleft" unicode="[" horiz-adv-x="268" 
d="M79 -131v984h167v-32h-131v-920h131v-32h-167z" />
    <glyph glyph-name="backslash" unicode="\" horiz-adv-x="332" 
d="M286 -40l-276 796h35l275 -796h-34z" />
    <glyph glyph-name="bracketright" unicode="]" horiz-adv-x="268" 
d="M20 -131v32h132v920h-132v32h167v-984h-167z" />
    <glyph glyph-name="asciicircum" unicode="^" horiz-adv-x="396" 
d="M337 392l-141 314l-139 -314h-36l157 353h36l160 -353h-37z" />
    <glyph glyph-name="underscore" unicode="_" horiz-adv-x="329" 
d="M-2 -99v28h332v-28h-332z" />
    <glyph glyph-name="grave" unicode="`" horiz-adv-x="311" 
d="M49 858v36l212 -97v-20z" />
    <glyph glyph-name="a" unicode="a" 
d="M315 0l-18 86h-218l-16 -86h-48l174 814l173 -814h-47zM189 627l-102 -503h203z" />
    <glyph glyph-name="b" unicode="b" horiz-adv-x="369" 
d="M48 0v172h-38l-8 33h46v540h115q43 0 73.5 -21.5t50.5 -59.5t29.5 -90t9.5 -113v-72q0 -53 -6 -88.5t-17.5 -58.5t-28.5 -35.5t-39 -17.5q43 -5 64 -30.5t21 -60.5q0 -19 -5.5 -36.5t-18 -31t-33 -22t-51.5 -8.5h-164zM282 466q0 52 -6.5 95.5t-21 74.5t-38 48t-57.5 17
h-67v-496h99q23 0 40 9t28.5 30t17 56.5t5.5 88.5v77zM206 41q42 0 58 19.5t16 46.5q0 29 -20 47t-65 18h-103v-131h114z" />
    <glyph glyph-name="c" unicode="c" horiz-adv-x="336" 
d="M298 8q-23 -14 -48.5 -17.5t-51.5 -3.5q-52 0 -82 15t-45.5 41t-19.5 60.5t-4 74.5v389q0 40 4 74.5t19.5 60.5t45.5 41t82 15q26 0 51.5 -3.5t48.5 -17.5v-46q-24 15 -47.5 18.5t-46.5 3.5q-39 0 -62 -11.5t-34 -31.5t-14 -46.5t-3 -57.5v-388q0 -31 3 -57.5t14 -46.5
t34 -31.5t62 -11.5q23 0 47 3.5t47 17.5v-44z" />
    <glyph glyph-name="d" unicode="d" horiz-adv-x="375" 
d="M51 0v745h115q86 0 124 -71.5t38 -208.5v-185q0 -137 -38 -208.5t-124 -71.5h-115zM162 41q68 0 95 60t27 175v193q0 114 -27 173t-95 59h-67v-660h67z" />
    <glyph glyph-name="e" unicode="e" horiz-adv-x="293" 
d="M48 0v172h-38l-8 34h46v539h207v-44h-163v-495h149v-34h-149v-131h170v-41h-214z" />
    <glyph glyph-name="f" unicode="f" horiz-adv-x="278" 
d="M48 0v172h-38l-8 34h46v539h207v-44h-163v-495h140v-34h-140v-172h-44z" />
    <glyph glyph-name="g" unicode="g" horiz-adv-x="363" 
d="M282 230h44v-213q-14 -11 -49.5 -20.5t-89.5 -9.5q-71 0 -105 39t-34 104v42h-38l-8 34h46v361q0 40 4 74.5t19.5 60.5t45.5 41t81 15q27 0 52.5 -3.5t48.5 -17.5v-46q-24 14 -47 18t-48 4q-39 0 -61.5 -11.5t-33.5 -31.5t-14 -46.5t-3 -57.5v-435q0 -48 23.5 -74.5
t71.5 -26.5q39 0 61.5 4.5t33.5 11.5v184z" />
    <glyph glyph-name="h" unicode="h" 
d="M282 0v172h-190v-172h-44v172h-39l-7 34h46v539h44v-539h190v539h44v-745h-44z" />
    <glyph glyph-name="i" unicode="i" horiz-adv-x="148" 
d="M51 0v745h44v-745h-44z" />
    <glyph glyph-name="j" unicode="j" horiz-adv-x="293" 
d="M196 745h44v-605q0 -75 -29.5 -114t-97.5 -39q-35 0 -55.5 5t-34.5 16v44q18 -11 37.5 -15t48.5 -4q47 0 67 28t20 83v601z" />
    <glyph glyph-name="k" unicode="k" horiz-adv-x="367" 
d="M282 0v82q0 39 -19 64.5t-69 25.5h-102v-172h-44v172h-38l-8 34h46v539h44v-539h103q87 0 87 133v406h44v-406q0 -132 -85 -149q41 -6 63 -33t22 -75v-82h-44z" />
    <glyph glyph-name="l" unicode="l" horiz-adv-x="280" 
d="M51 0v745h44v-704h159v-41h-203z" />
    <glyph glyph-name="m" unicode="m" horiz-adv-x="463" 
d="M375 0v557l-144 -456l-143 456v-557h-39v814l182 -582l183 582v-814h-39z" />
    <glyph glyph-name="n" unicode="n" horiz-adv-x="376" 
d="M91 579v-579h-42v814l235 -649v580h41v-814z" />
    <glyph glyph-name="o" unicode="o" horiz-adv-x="373" 
d="M47 615q0 65 34 104t105 39t104.5 -39t33.5 -104v-485q0 -65 -33.5 -104t-104.5 -39t-105 39t-34 104v485zM280 604q0 23 -4.5 43t-15 35t-29 23.5t-45.5 8.5t-45.5 -8.5t-29.5 -23.5t-15.5 -35t-4.5 -43v-464q0 -23 4.5 -43t15.5 -35t29.5 -23.5t45.5 -8.5t45.5 8.5
t29 23.5t15 35t4.5 43v464z" />
    <glyph glyph-name="p" unicode="p" horiz-adv-x="362" 
d="M49 0v172h-39l-8 33h47v540h115q86 0 124 -65.5t38 -203.5v-54q0 -66 -7 -113.5t-25.5 -77.5t-50 -44.5t-79.5 -14.5h-72v-172h-43zM283 480q0 114 -27.5 167.5t-95.5 53.5h-68v-496h68q37 0 61 12.5t37.5 38t19 65t5.5 94.5v65z" />
    <glyph glyph-name="q" unicode="q" horiz-adv-x="372" 
d="M343 -137q-15 -11 -35 -15t-46 -4q-54 0 -81 28t-27 79q0 12 1.5 21t3.5 17q-57 8 -84.5 45t-27.5 96v485q0 65 34 104t105 39t104.5 -39t33.5 -104v-485q0 -61 -31.5 -100t-97.5 -42q-4 -12 -4 -33q0 -31 19.5 -49.5t51.5 -18.5q23 0 42.5 3t38.5 16v-43zM280 604
q0 21 -4.5 41t-15.5 35t-29 24.5t-45 9.5q-28 0 -46 -8.5t-29 -23.5t-15.5 -35t-4.5 -43v-464q0 -21 4.5 -41t15.5 -35.5t29.5 -24.5t45.5 -9t45.5 8.5t29 23.5t15 35t4.5 43v464z" />
    <glyph glyph-name="r" unicode="r" horiz-adv-x="370" 
d="M283 0v81q0 42 -24.5 66.5t-67.5 24.5h-99v-172h-43v172h-39l-8 33h47v540h115q43 0 73.5 -21.5t50 -59.5t29 -90t9.5 -113v-68q0 -32 -4 -64.5t-14 -61t-27 -49.5t-43 -29q43 -5 65.5 -35t22.5 -72v-82h-43zM283 466q0 52 -6.5 95.5t-21 74.5t-38 48t-57.5 17h-68v-496
h94q29 0 48 14.5t30 39.5t15 59.5t4 73.5v74z" />
    <glyph glyph-name="s" unicode="s" horiz-adv-x="279" 
d="M37 35q7 -1 16 -2t17 -1q32 0 56 12.5t40 33.5t24 49t8 58q0 37 -13 70t-33 64.5t-42.5 62t-42.5 63.5t-33 69.5t-13 79.5q0 35 10.5 65t30 51.5t47.5 34t64 12.5q8 0 18 -1t18 -2v-47q-6 2 -14 2.5t-16 0.5q-53 0 -84 -34.5t-31 -87.5q0 -47 20 -85.5t46 -73.5
q26 -37 47 -67t35.5 -59t22.5 -59.5t8 -69.5q0 -38 -11 -72t-32.5 -59.5t-54 -40.5t-74.5 -15q-8 0 -17.5 0.5t-16.5 2.5v45z" />
    <glyph glyph-name="t" unicode="t" horiz-adv-x="299" 
d="M127 0v701h-104v44h251v-44h-104v-701h-43z" />
    <glyph glyph-name="u" unicode="u" horiz-adv-x="377" 
d="M283 745h43v-615q0 -65 -33.5 -104t-104.5 -39t-105 39t-34 104v615h45v-614q0 -46 23 -73.5t71 -27.5q49 0 72 27.5t23 73.5v614z" />
    <glyph glyph-name="v" unicode="v" horiz-adv-x="366" 
d="M15 745h48l119 -621l120 621h48l-168 -814z" />
    <glyph glyph-name="w" unicode="w" horiz-adv-x="556" 
d="M278 556l-103 -625l-160 814h47l110 -592l106 661l106 -661l110 592h46l-159 -814z" />
    <glyph glyph-name="x" unicode="x" horiz-adv-x="358" 
d="M294 0l-116 350l-122 -350h-45l146 400l-119 345h46l97 -293l102 293h44l-124 -341l139 -404h-48z" />
    <glyph glyph-name="y" unicode="y" horiz-adv-x="330" 
d="M144 0v446l-132 299h44l111 -256l109 256h42l-130 -299v-446h-44z" />
    <glyph glyph-name="z" unicode="z" horiz-adv-x="287" 
d="M25 0l186 701h-186v44h237l-181 -704h181v-41h-237z" />
    <glyph glyph-name="braceleft" unicode="{" horiz-adv-x="300" 
d="M227 -132q-20 0 -39.5 6t-34.5 20t-24.5 38t-9.5 60v285q0 35 -9.5 50t-31.5 15h-22v36h22q23 0 32 16t9 49v289q0 35 9.5 58t24.5 37t34.5 20t39.5 6h51v-33h-49q-15 0 -28.5 -5t-24 -17t-17 -31.5t-6.5 -49.5v-286q0 -59 -40 -71q22 -8 31 -26.5t9 -47.5v-284
q0 -31 6.5 -50.5t17 -31t24 -16t28.5 -4.5h49v-32h-51z" />
    <glyph glyph-name="bar" unicode="|" horiz-adv-x="217" 
d="M89 -174v1033h36v-1033h-36z" />
    <glyph glyph-name="braceright" unicode="}" horiz-adv-x="294" 
d="M21 -132v32h50q15 0 28.5 4.5t24 16t16.5 31t6 50.5v284q0 60 41 74q-41 12 -41 71v286q0 30 -6 49.5t-16.5 31.5t-24 17t-28.5 5h-50v33h52q20 0 39.5 -6t34.5 -20t24.5 -37t9.5 -58v-289q0 -33 8.5 -49t31.5 -16h22v-36h-22q-22 0 -31 -15t-9 -50v-285q0 -36 -9.5 -60
t-25 -38t-35 -20t-38.5 -6h-52z" />
    <glyph glyph-name="asciitilde" unicode="~" horiz-adv-x="514" 
d="M463 353q-23 -31 -48 -42t-56 -11q-29 0 -55 8.5t-51 19t-50 19.5t-51 9q-19 0 -33 -3.5t-25.5 -11t-22 -19t-22.5 -27.5v39q23 32 48.5 42.5t56.5 10.5q28 0 53.5 -8.5t50 -19t50 -19t53.5 -8.5q37 0 58 14t44 46v-39z" />
    <glyph glyph-name="nonbreakingspace" unicode="&#xa0;" horiz-adv-x="183" 
 />
    <glyph glyph-name="exclamdown" unicode="&#xa1;" horiz-adv-x="174" 
d="M106 519l10 -519h-60l10 519h40zM86 753q33 0 33 -41t-33 -41q-34 0 -34 41t34 41z" />
    <glyph glyph-name="cent" unicode="&#xa2;" horiz-adv-x="301" 
d="M171 0v83q-38 1 -62.5 13t-38.5 30.5t-19.5 43.5t-5.5 54v288q0 61 28 99.5t98 42.5v91h31v-91q33 -2 65 -16v-41q-21 10 -40 13t-36 3q-59 0 -81 -29t-22 -78v-275q0 -25 4.5 -45t16 -34t31.5 -21.5t52 -7.5q17 0 36 3t39 13v-41q-16 -9 -32 -12t-33 -4v-82h-31z" />
    <glyph glyph-name="sterling" unicode="&#xa3;" horiz-adv-x="370" 
d="M317 0q-32 0 -65 13.5t-55 48.5q-16 -35 -40 -53t-53 -18q-35 0 -58.5 22.5t-23.5 78.5q0 48 20.5 74t56.5 26q26 0 45.5 -13t39.5 -45q0 5 0.5 9.5t0.5 9.5q0 42 -11.5 77t-33.5 78h-82v33h65q-14 27 -27 53t-23.5 53.5t-16.5 58t-6 65.5q0 39 8.5 73t26.5 59.5t47.5 40
t71.5 14.5q26 0 51 -4.5t49 -16.5v-44q-23 11 -46.5 15t-47.5 4q-34 0 -57 -11.5t-36.5 -31t-19 -46t-5.5 -57.5q0 -32 6 -61t16.5 -56t23 -53.5t26.5 -54.5h140v-33h-127q19 -41 30 -74t11 -68q0 -34 -8 -66q23 -32 49 -46t51 -14h20v-40h-13zM177 94q-17 40 -34 55t-43 15
q-49 0 -49 -72q0 -38 14 -54.5t40 -16.5q23 0 41.5 17.5t30.5 55.5z" />
    <glyph glyph-name="currency" unicode="&#xa4;" horiz-adv-x="561" 
d="M412 190q-27 -22 -60.5 -35t-70.5 -13q-38 0 -72 13t-60 35l-71 -72l-31 30l73 70q-23 27 -35.5 61t-12.5 72q0 76 48 132l-72 70l31 30l69 -72q27 23 60.5 36t72.5 13q38 0 71.5 -13t60.5 -36l69 72l30 -30l-71 -69q23 -28 36 -61.5t13 -71.5t-13 -72.5t-36 -60.5
l72 -70l-30 -30zM460 351q0 37 -14 70t-38.5 57.5t-57 38.5t-69.5 14q-38 0 -70.5 -14t-57 -38.5t-38.5 -57.5t-14 -70t14 -69.5t38.5 -57t57 -38.5t70.5 -14q37 0 69.5 14t57 38.5t38.5 57t14 69.5z" />
    <glyph glyph-name="yen" unicode="&#xa5;" horiz-adv-x="359" 
d="M159 0v225h-134v34h134v131h-134v34h130l-130 321h45l112 -285l107 285h43l-126 -321h126v-34h-130v-131h130v-34h-130v-225h-43z" />
    <glyph glyph-name="brokenbar" unicode="&#xa6;" horiz-adv-x="217" 
d="M89 -174v443h36v-443h-36zM89 446v413h36v-413h-36z" />
    <glyph glyph-name="section" unicode="&#xa7;" horiz-adv-x="372" 
d="M84 -150q15 -3 35 -3q53 0 81 33.5t28 79.5q0 43 -15.5 79t-38.5 68.5t-49.5 64t-49.5 64t-38.5 68.5t-15.5 79q0 48 23.5 83t67.5 46q-14 26 -21.5 52.5t-7.5 58.5q0 60 35 97t96 37q8 0 20.5 -1t21.5 -3v-44q-6 2 -14.5 3t-16.5 1q-46 0 -72 -28t-26 -72
q0 -39 15.5 -72.5t38.5 -64.5t49.5 -61.5t49.5 -63t38.5 -70t15.5 -82.5q0 -52 -22 -90t-64 -57q11 -21 18 -46t7 -48q0 -33 -10 -61.5t-29 -49.5t-46.5 -32.5t-62.5 -11.5q-9 0 -20.5 1t-19.5 3zM132 477q-35 -9 -51 -37t-16 -63q0 -45 19 -81.5t45 -70t54.5 -66
t48.5 -69.5q29 17 44.5 46t15.5 67q0 43 -17 78.5t-41.5 68t-52.5 63.5t-49 64z" />
    <glyph glyph-name="dieresis" unicode="&#xa8;" horiz-adv-x="340" 
d="M256 798q-30 0 -30 38q0 37 30 37t30 -37q0 -38 -30 -38zM82 798q-29 0 -29 38q0 37 29 37q30 0 30 -37q0 -38 -30 -38z" />
    <glyph glyph-name="ordfeminine" unicode="&#xaa;" horiz-adv-x="238" 
d="M180 300l-9 46h-108l-8 -46h-39l102 468l99 -468h-37zM118 611l-48 -233h95z" />
    <glyph glyph-name="guillemotleft" unicode="&#xab;" horiz-adv-x="474" 
d="M190 70l-168 228l168 226l24 -20l-152 -206l152 -208zM427 70l-168 228l168 226l24 -20l-152 -206l152 -208z" />
    <glyph glyph-name="logicalnot" unicode="&#xac;" horiz-adv-x="479" 
d="M385 147v261h-334v48h374v-309h-40z" />
    <glyph glyph-name="macron" unicode="&#xaf;" horiz-adv-x="357" 
d="M49 828v29h258v-29h-258z" />
    <glyph glyph-name="degree" unicode="&#xb0;" horiz-adv-x="323" 
d="M159 499q-29 0 -49.5 10.5t-34 28t-20 40.5t-6.5 49q0 27 6.5 50.5t20 41t34 27.5t49.5 10q31 0 52.5 -10t35 -27.5t19 -41t5.5 -50.5q0 -26 -5.5 -49t-19 -40.5t-35 -28t-52.5 -10.5zM159 525q47 0 66.5 30t19.5 72t-19 72t-67 30q-44 0 -63.5 -30t-19.5 -72t19.5 -72
t63.5 -30z" />
    <glyph glyph-name="plusminus" unicode="&#xb1;" horiz-adv-x="514" 
d="M239 156v190h-190v35h190v188h34v-188h190v-35h-190v-190h-34zM49 38v35h414v-35h-414z" />
    <glyph glyph-name="twosuperior" unicode="&#xb2;" horiz-adv-x="227" 
d="M33 333v65q0 52 21.5 87.5t54.5 67.5q20 19 33.5 42t13.5 55q0 26 -13.5 46t-46.5 20q-26 0 -55 -14v36q17 8 30.5 11t28.5 3q24 0 41.5 -8.5t28 -22.5t15.5 -32t5 -38q0 -39 -18 -71t-44 -56q-29 -28 -44.5 -56t-15.5 -72v-29h119v-34h-154z" />
    <glyph glyph-name="threesuperior" unicode="&#xb3;" horiz-adv-x="214" 
d="M30 374q36 -15 61 -15q16 0 32.5 8.5t16.5 31.5q0 10 -8 18.5t-34 8.5h-41l-6 29h45q15 0 24 6.5t13.5 17t6 25t1.5 30.5v109q0 15 -1.5 28.5t-7 23.5t-16.5 15.5t-30 5.5q-13 0 -26 -2.5t-30 -13.5v37q15 11 30 13t29 2q30 0 47.5 -8.5t26.5 -23.5t11 -34.5t2 -41.5
v-105q0 -32 -5.5 -58.5t-27.5 -39.5q19 -5 25 -17.5t6 -28.5q0 -20 -7 -33.5t-19 -21.5t-27 -11t-30 -3q-14 0 -30.5 3.5t-30.5 10.5v34z" />
    <glyph glyph-name="acute" unicode="&#xb4;" horiz-adv-x="312" 
d="M50 777v20l212 97v-36z" />
    <glyph glyph-name="mu" unicode="&#xb5;" horiz-adv-x="385" 
d="M294 0v88q-6 -24 -14 -42.5t-20 -31t-29.5 -19t-43.5 -6.5q-13 0 -27.5 2.5t-28 9.5t-24 19.5t-15.5 32.5v-250h-43v744h43v-395q0 -36 8.5 -59.5t22 -37t31.5 -19t36 -5.5q19 0 34 4.5t27.5 17t22 34t17.5 56.5v404h42v-547h-39z" />
    <glyph glyph-name="paragraph" unicode="&#xb6;" horiz-adv-x="448" 
d="M319 -196v897h-75v-580q0 -72 -29 -103t-71 -31q-40 0 -59 18l3 32q11 -11 22.5 -14t25.5 -3q32 0 53 23.5t21 77.5v203q-39 1 -72 6t-57 26.5t-37.5 64.5t-13.5 120q0 109 36.5 156.5t96.5 47.5h260v-44h-71v-897h-33z" />
    <glyph glyph-name="periodcentered" unicode="&#xb7;" horiz-adv-x="167" 
d="M82 292q-33 0 -33 41t33 41q34 0 34 -41t-34 -41z" />
    <glyph glyph-name="cedilla" unicode="&#xb8;" horiz-adv-x="181" 
d="M49 -222l41 135l40 -135h-81z" />
    <glyph glyph-name="onesuperior" unicode="&#xb9;" horiz-adv-x="108" 
d="M33 333v377l-24 35h59v-412h-35z" />
    <glyph glyph-name="ordmasculine" unicode="&#xba;" horiz-adv-x="235" 
d="M36 636q0 38 19.5 60.5t60.5 22.5t60.5 -22.5t19.5 -60.5v-261q0 -38 -19.5 -60t-60.5 -22t-60.5 22t-19.5 60v261zM161 630q0 23 -9.5 38.5t-35.5 15.5t-35.5 -15.5t-9.5 -38.5v-249q0 -22 9.5 -38t35.5 -16t35.5 16t9.5 38v249z" />
    <glyph glyph-name="guillemotright" unicode="&#xbb;" horiz-adv-x="474" 
d="M22 90l152 208l-151 206l23 20l168 -226l-168 -228zM259 90l152 208l-151 206l23 20l168 -226l-168 -228z" />
    <glyph glyph-name="onequarter" unicode="&#xbc;" horiz-adv-x="416" 
d="M105 333v377l-24 35h59v-412h-35zM47 0l274 745h36l-273 -745h-37zM318 0v66h-128l163 411v-380h14v-31h-14v-66h-35zM318 297l-81 -200h81v200z" />
    <glyph glyph-name="onehalf" unicode="&#xbd;" horiz-adv-x="456" 
d="M101 333v377l-24 35h59v-412h-35zM47 0l274 745h36l-273 -745h-37zM250 0v65q0 52 21.5 87.5t54.5 67.5q20 19 33.5 42t13.5 55q0 26 -13.5 46t-46.5 20q-26 0 -55 -14v36q17 8 30.5 11t28.5 3q24 0 41.5 -8.5t28 -22.5t15.5 -32t5 -38q0 -39 -18 -71t-44 -56
q-29 -28 -44.5 -56t-15.5 -72v-29h119v-34h-154z" />
    <glyph glyph-name="threequarters" unicode="&#xbe;" horiz-adv-x="436" 
d="M47 374q36 -15 61 -15q16 0 32.5 8.5t16.5 31.5q0 10 -8 18.5t-34 8.5h-41l-6 29h45q15 0 24 6.5t13.5 17t6 25t1.5 30.5v109q0 15 -1.5 28.5t-7 23.5t-16.5 15.5t-30 5.5q-13 0 -26 -2.5t-30 -13.5v37q15 11 30 13t29 2q30 0 47.5 -8.5t26.5 -23.5t11 -34.5t2 -41.5
v-105q0 -32 -5.5 -58.5t-27.5 -39.5q19 -5 25 -17.5t6 -28.5q0 -20 -7 -33.5t-19 -21.5t-27 -11t-30 -3q-14 0 -30.5 3.5t-30.5 10.5v34zM77 0l274 745h36l-273 -745h-37zM338 0v66h-128l163 411v-380h14v-31h-14v-66h-35zM338 297l-81 -200h81v200z" />
    <glyph glyph-name="questiondown" unicode="&#xbf;" horiz-adv-x="302" 
d="M215 717q-1 -19 -8 -30t-25 -11t-26 11t-8 30q0 41 34 41q33 0 33 -41zM200 524q-1 -53 -22 -92t-46.5 -76.5t-46.5 -81t-21 -106.5q0 -26 6 -49.5t20 -41.5t37 -29t57 -11q19 0 40.5 4.5t53.5 18.5v-47q-25 -12 -49.5 -16.5t-50.5 -4.5q-42 0 -72 14t-48.5 37.5
t-27 54.5t-8.5 65q0 47 10.5 83t26 65t33.5 53.5t33.5 49t26 51t10.5 59.5h38z" />
    <glyph glyph-name="Agrave" unicode="&#xc0;" 
d="M191 805l171 -805h-47l-18 86h-218l-16 -86h-48l172 806l-134 52v36l212 -97v-20zM189 627l-102 -503h203z" />
    <glyph glyph-name="Aacute" unicode="&#xc1;" 
d="M190 807l172 -807h-47l-18 86h-218l-16 -86h-48l172 805l-74 -28v20l212 97v-36zM189 627l-102 -503h203z" />
    <glyph glyph-name="Acircumflex" unicode="&#xc2;" 
d="M315 0l-18 86h-218l-16 -86h-48l174 814l173 -814h-47zM189 627l-102 -503h203zM190 886l-135 -117v23l135 133l133 -133v-23z" />
    <glyph glyph-name="Atilde" unicode="&#xc3;" 
d="M315 0l-18 86h-218l-16 -86h-48l174 814l173 -814h-47zM189 627l-102 -503h203zM318 837q-25 -27 -67 -27q-17 0 -32.5 6t-30 12.5t-29.5 12.5t-32 6q-42 0 -67 -33v33q27 27 68 27q17 0 32.5 -6t30 -12.5t29.5 -12.5t32 -6q40 0 66 33v-33z" />
    <glyph glyph-name="Adieresis" unicode="&#xc4;" 
d="M315 0l-18 86h-218l-16 -86h-48l174 814l173 -814h-47zM189 627l-102 -503h203zM275 798q-30 0 -30 38q0 37 30 37t30 -37q0 -38 -30 -38zM101 798q-29 0 -29 38q0 37 29 37q30 0 30 -37q0 -38 -30 -38z" />
    <glyph glyph-name="Aring" unicode="&#xc5;" 
d="M315 0l-18 86h-218l-16 -86h-48l160 749q-24 2 -38 11t-21.5 21t-10 26.5t-2.5 28.5q0 15 3 31t12 28.5t26 21t46 8.5q28 0 45 -8.5t26 -21t11.5 -28.5t2.5 -31q0 -14 -2.5 -29t-10 -27.5t-21.5 -21t-38 -10.5l159 -748h-47zM189 627l-102 -503h203zM190 765
q22 0 34.5 6.5t19.5 16.5t9 23t2 25t-2 25t-9 23t-19.5 16.5t-34.5 6.5t-35 -6.5t-20 -16.5t-9 -23t-2 -25t2 -25t9 -23t20 -16.5t35 -6.5z" />
    <glyph glyph-name="AE" unicode="&#xc6;" horiz-adv-x="482" 
d="M245 0v88h-167v1l-18 -89h-45l159 745h270v-44h-156v-495h142v-34h-142v-131h163v-41h-206zM245 701h-43l-117 -579h160v579z" />
    <glyph glyph-name="Ccedilla" unicode="&#xc7;" horiz-adv-x="336" 
d="M298 8q-23 -14 -48.5 -17.5t-51.5 -3.5q-52 0 -82 15t-45.5 41t-19.5 60.5t-4 74.5v389q0 40 4 74.5t19.5 60.5t45.5 41t82 15q26 0 51.5 -3.5t48.5 -17.5v-46q-24 15 -47.5 18.5t-46.5 3.5q-39 0 -62 -11.5t-34 -31.5t-14 -46.5t-3 -57.5v-388q0 -31 3 -57.5t14 -46.5
t34 -31.5t62 -11.5q23 0 47 3.5t47 17.5v-44zM157 -222l41 135l40 -135h-81z" />
    <glyph glyph-name="Egrave" unicode="&#xc8;" horiz-adv-x="293" 
d="M48 0v172h-38l-8 34h46v539h207v-44h-163v-495h149v-34h-149v-131h170v-41h-214zM41 858v36l212 -97v-20z" />
    <glyph glyph-name="Eacute" unicode="&#xc9;" horiz-adv-x="293" 
d="M48 0v172h-38l-8 34h46v539h207v-44h-163v-495h149v-34h-149v-131h170v-41h-214zM45 777v20l212 97v-36z" />
    <glyph glyph-name="Ecircumflex" unicode="&#xca;" horiz-adv-x="293" 
d="M48 0v172h-38l-8 34h46v539h207v-44h-163v-495h149v-34h-149v-131h170v-41h-214zM148 886l-135 -117v23l135 133l133 -133v-23z" />
    <glyph glyph-name="Edieresis" unicode="&#xcb;" horiz-adv-x="293" 
d="M48 0v172h-38l-8 34h46v539h207v-44h-163v-495h149v-34h-149v-131h170v-41h-214zM233 798q-30 0 -30 38q0 37 30 37t30 -37q0 -38 -30 -38zM59 798q-29 0 -29 38q0 37 29 37q30 0 30 -37q0 -38 -30 -38z" />
    <glyph glyph-name="Igrave" unicode="&#xcc;" horiz-adv-x="148" 
d="M51 0v745h44v-745h-44zM-32 858v36l212 -97v-20z" />
    <glyph glyph-name="Iacute" unicode="&#xcd;" horiz-adv-x="148" 
d="M51 0v745h44v-745h-44zM-32 777v20l212 97v-36z" />
    <glyph glyph-name="Icircumflex" unicode="&#xce;" horiz-adv-x="148" 
d="M51 0v745h44v-745h-44zM75 886l-135 -117v23l135 133l133 -133v-23z" />
    <glyph glyph-name="Idieresis" unicode="&#xcf;" horiz-adv-x="148" 
d="M51 0v745h44v-745h-44zM161 798q-30 0 -30 38q0 37 30 37t30 -37q0 -38 -30 -38zM-13 798q-29 0 -29 38q0 37 29 37q30 0 30 -37q0 -38 -30 -38z" />
    <glyph glyph-name="Eth" unicode="&#xd0;" horiz-adv-x="370" 
d="M45 0v172h-39l-8 34h47v539h114q86 0 124.5 -71.5t38.5 -208.5v-185q0 -137 -38.5 -208.5t-124.5 -71.5h-114zM155 41q34 0 57.5 17t38 49t21 77.5t6.5 102.5v170q0 119 -27 181.5t-96 62.5h-66v-495h90v-34h-90v-131h66z" />
    <glyph glyph-name="Ntilde" unicode="&#xd1;" horiz-adv-x="376" 
d="M91 579v-579h-42v814l235 -649v580h41v-814zM317 837q-25 -27 -67 -27q-17 0 -32.5 6t-30 12.5t-29.5 12.5t-32 6q-42 0 -67 -33v33q27 27 68 27q17 0 32.5 -6t30 -12.5t29.5 -12.5t32 -6q40 0 66 33v-33z" />
    <glyph glyph-name="Ograve" unicode="&#xd2;" horiz-adv-x="373" 
d="M47 615q0 65 34 104t105 39t104.5 -39t33.5 -104v-485q0 -65 -33.5 -104t-104.5 -39t-105 39t-34 104v485zM280 604q0 23 -4.5 43t-15 35t-29 23.5t-45.5 8.5t-45.5 -8.5t-29.5 -23.5t-15.5 -35t-4.5 -43v-464q0 -23 4.5 -43t15.5 -35t29.5 -23.5t45.5 -8.5t45.5 8.5
t29 23.5t15 35t4.5 43v464zM80 858v36l212 -97v-20z" />
    <glyph glyph-name="Oacute" unicode="&#xd3;" horiz-adv-x="373" 
d="M47 615q0 65 34 104t105 39t104.5 -39t33.5 -104v-485q0 -65 -33.5 -104t-104.5 -39t-105 39t-34 104v485zM280 604q0 23 -4.5 43t-15 35t-29 23.5t-45.5 8.5t-45.5 -8.5t-29.5 -23.5t-15.5 -35t-4.5 -43v-464q0 -23 4.5 -43t15.5 -35t29.5 -23.5t45.5 -8.5t45.5 8.5
t29 23.5t15 35t4.5 43v464zM80 777v20l212 97v-36z" />
    <glyph glyph-name="Ocircumflex" unicode="&#xd4;" horiz-adv-x="373" 
d="M47 615q0 65 34 104t105 39t104.5 -39t33.5 -104v-485q0 -65 -33.5 -104t-104.5 -39t-105 39t-34 104v485zM280 604q0 23 -4.5 43t-15 35t-29 23.5t-45.5 8.5t-45.5 -8.5t-29.5 -23.5t-15.5 -35t-4.5 -43v-464q0 -23 4.5 -43t15.5 -35t29.5 -23.5t45.5 -8.5t45.5 8.5
t29 23.5t15 35t4.5 43v464zM187 886l-135 -117v23l135 133l133 -133v-23z" />
    <glyph glyph-name="Otilde" unicode="&#xd5;" horiz-adv-x="373" 
d="M47 615q0 65 34 104t105 39t104.5 -39t33.5 -104v-485q0 -65 -33.5 -104t-104.5 -39t-105 39t-34 104v485zM280 604q0 23 -4.5 43t-15 35t-29 23.5t-45.5 8.5t-45.5 -8.5t-29.5 -23.5t-15.5 -35t-4.5 -43v-464q0 -23 4.5 -43t15.5 -35t29.5 -23.5t45.5 -8.5t45.5 8.5
t29 23.5t15 35t4.5 43v464zM315 837q-25 -27 -67 -27q-17 0 -32.5 6t-30 12.5t-29.5 12.5t-32 6q-42 0 -67 -33v33q27 27 68 27q17 0 32.5 -6t30 -12.5t29.5 -12.5t32 -6q40 0 66 33v-33z" />
    <glyph glyph-name="Odieresis" unicode="&#xd6;" horiz-adv-x="373" 
d="M47 615q0 65 34 104t105 39t104.5 -39t33.5 -104v-485q0 -65 -33.5 -104t-104.5 -39t-105 39t-34 104v485zM280 604q0 23 -4.5 43t-15 35t-29 23.5t-45.5 8.5t-45.5 -8.5t-29.5 -23.5t-15.5 -35t-4.5 -43v-464q0 -23 4.5 -43t15.5 -35t29.5 -23.5t45.5 -8.5t45.5 8.5
t29 23.5t15 35t4.5 43v464zM273 798q-30 0 -30 38q0 37 30 37t30 -37q0 -38 -30 -38zM99 798q-29 0 -29 38q0 37 29 37q30 0 30 -37q0 -38 -30 -38z" />
    <glyph glyph-name="multiply" unicode="&#xd7;" horiz-adv-x="489" 
d="M243 338l-134 -133l-25 24l134 134l-134 134l26 24l133 -134l134 134l24 -24l-133 -134l134 -135l-25 -24z" />
    <glyph glyph-name="Oslash" unicode="&#xd8;" horiz-adv-x="373" 
d="M47 615q0 65 34 104t105 39q56 0 92 -28l22 77l24 -6l-27 -92q27 -36 27 -94v-485q0 -65 -33.5 -104t-104.5 -39q-56 0 -90 25l-25 -87l-24 7l29 100q-29 36 -29 98v485zM91 140q0 -25 4 -41l168 579q-11 17 -29.5 26.5t-47.5 9.5q-27 0 -45.5 -8.5t-29.5 -23.5
t-15.5 -35t-4.5 -43v-464zM280 604q0 18 -3 35l-166 -577q22 -32 75 -32q27 0 45.5 8.5t29 23.5t15 35t4.5 43v464z" />
    <glyph glyph-name="Ugrave" unicode="&#xd9;" horiz-adv-x="377" 
d="M283 745h43v-615q0 -65 -33.5 -104t-104.5 -39t-105 39t-34 104v615h45v-614q0 -46 23 -73.5t71 -27.5q49 0 72 27.5t23 73.5v614zM82 858v36l212 -97v-20z" />
    <glyph glyph-name="Uacute" unicode="&#xda;" horiz-adv-x="377" 
d="M283 745h43v-615q0 -65 -33.5 -104t-104.5 -39t-105 39t-34 104v615h45v-614q0 -46 23 -73.5t71 -27.5q49 0 72 27.5t23 73.5v614zM82 777v20l212 97v-36z" />
    <glyph glyph-name="Ucircumflex" unicode="&#xdb;" horiz-adv-x="377" 
d="M283 745h43v-615q0 -65 -33.5 -104t-104.5 -39t-105 39t-34 104v615h45v-614q0 -46 23 -73.5t71 -27.5q49 0 72 27.5t23 73.5v614zM189 886l-135 -117v23l135 133l133 -133v-23z" />
    <glyph glyph-name="Udieresis" unicode="&#xdc;" horiz-adv-x="377" 
d="M283 745h43v-615q0 -65 -33.5 -104t-104.5 -39t-105 39t-34 104v615h45v-614q0 -46 23 -73.5t71 -27.5q49 0 72 27.5t23 73.5v614zM275 798q-30 0 -30 38q0 37 30 37t30 -37q0 -38 -30 -38zM101 798q-29 0 -29 38q0 37 29 37q30 0 30 -37q0 -38 -30 -38z" />
    <glyph glyph-name="Yacute" unicode="&#xdd;" horiz-adv-x="330" 
d="M144 0v446l-132 299h44l111 -256l109 256h42l-130 -299v-446h-44zM61 777v20l212 97v-36z" />
    <glyph glyph-name="Thorn" unicode="&#xde;" horiz-adv-x="362" 
d="M49 0v172h-39l-8 33h47v540h43v-111h72q85 0 123.5 -54.5t38.5 -177.5q0 -57 -7 -100t-25.5 -72t-50 -43.5t-79.5 -14.5h-72v-172h-43zM160 205q37 0 60.5 11t37.5 35t19.5 60.5t5.5 87.5v7q0 53 -6.5 88.5t-21 57.5t-38 31t-57.5 9h-68v-387h68z" />
    <glyph glyph-name="germandbls" unicode="&#xdf;" horiz-adv-x="558" 
d="M37 35q7 -1 16 -2t17 -1q32 0 56 12.5t40 33.5t24 49t8 58q0 37 -13 70t-33 64.5t-42.5 62t-42.5 63.5t-33 69.5t-13 79.5q0 35 10.5 65t30 51.5t47.5 34t64 12.5q8 0 18 -1t18 -2v-47q-6 2 -14 2.5t-16 0.5q-53 0 -84 -34.5t-31 -87.5q0 -47 20 -85.5t46 -73.5
q26 -37 47 -67t35.5 -59t22.5 -59.5t8 -69.5q0 -38 -11 -72t-32.5 -59.5t-54 -40.5t-74.5 -15q-8 0 -17.5 0.5t-16.5 2.5v45zM316 35q7 -1 16 -2t17 -1q32 0 56 12.5t40 33.5t24 49t8 58q0 37 -13 70t-33 64.5t-42.5 62t-42.5 63.5t-33 69.5t-13 79.5q0 35 10.5 65t30 51.5
t47.5 34t64 12.5q8 0 18 -1t18 -2v-47q-6 2 -14 2.5t-16 0.5q-53 0 -84 -34.5t-31 -87.5q0 -47 20 -85.5t46 -73.5q26 -37 47 -67t35.5 -59t22.5 -59.5t8 -69.5q0 -38 -11 -72t-32.5 -59.5t-54 -40.5t-74.5 -15q-8 0 -17.5 0.5t-16.5 2.5v45z" />
    <glyph glyph-name="agrave" unicode="&#xe0;" 
d="M191 805l171 -805h-47l-18 86h-218l-16 -86h-48l172 806l-134 52v36l212 -97v-20zM189 627l-102 -503h203z" />
    <glyph glyph-name="aacute" unicode="&#xe1;" 
d="M190 807l172 -807h-47l-18 86h-218l-16 -86h-48l172 805l-74 -28v20l212 97v-36zM189 627l-102 -503h203z" />
    <glyph glyph-name="acircumflex" unicode="&#xe2;" 
d="M315 0l-18 86h-218l-16 -86h-48l174 814l173 -814h-47zM189 627l-102 -503h203zM190 886l-135 -117v23l135 133l133 -133v-23z" />
    <glyph glyph-name="atilde" unicode="&#xe3;" 
d="M315 0l-18 86h-218l-16 -86h-48l174 814l173 -814h-47zM189 627l-102 -503h203zM318 837q-25 -27 -67 -27q-17 0 -32.5 6t-30 12.5t-29.5 12.5t-32 6q-42 0 -67 -33v33q27 27 68 27q17 0 32.5 -6t30 -12.5t29.5 -12.5t32 -6q40 0 66 33v-33z" />
    <glyph glyph-name="adieresis" unicode="&#xe4;" 
d="M315 0l-18 86h-218l-16 -86h-48l174 814l173 -814h-47zM189 627l-102 -503h203zM275 798q-30 0 -30 38q0 37 30 37t30 -37q0 -38 -30 -38zM101 798q-29 0 -29 38q0 37 29 37q30 0 30 -37q0 -38 -30 -38z" />
    <glyph glyph-name="aring" unicode="&#xe5;" 
d="M315 0l-18 86h-218l-16 -86h-48l160 749q-24 2 -38 11t-21.5 21t-10 26.5t-2.5 28.5q0 15 3 31t12 28.5t26 21t46 8.5q28 0 45 -8.5t26 -21t11.5 -28.5t2.5 -31q0 -14 -2.5 -29t-10 -27.5t-21.5 -21t-38 -10.5l159 -748h-47zM189 627l-102 -503h203zM190 765
q22 0 34.5 6.5t19.5 16.5t9 23t2 25t-2 25t-9 23t-19.5 16.5t-34.5 6.5t-35 -6.5t-20 -16.5t-9 -23t-2 -25t2 -25t9 -23t20 -16.5t35 -6.5z" />
    <glyph glyph-name="ae" unicode="&#xe6;" horiz-adv-x="482" 
d="M245 0v88h-167v1l-18 -89h-45l159 745h270v-44h-156v-495h142v-34h-142v-131h163v-41h-206zM245 701h-43l-117 -579h160v579z" />
    <glyph glyph-name="ccedilla" unicode="&#xe7;" horiz-adv-x="336" 
d="M298 8q-23 -14 -48.5 -17.5t-51.5 -3.5q-52 0 -82 15t-45.5 41t-19.5 60.5t-4 74.5v389q0 40 4 74.5t19.5 60.5t45.5 41t82 15q26 0 51.5 -3.5t48.5 -17.5v-46q-24 15 -47.5 18.5t-46.5 3.5q-39 0 -62 -11.5t-34 -31.5t-14 -46.5t-3 -57.5v-388q0 -31 3 -57.5t14 -46.5
t34 -31.5t62 -11.5q23 0 47 3.5t47 17.5v-44zM157 -222l41 135l40 -135h-81z" />
    <glyph glyph-name="egrave" unicode="&#xe8;" horiz-adv-x="293" 
d="M48 0v172h-38l-8 34h46v539h207v-44h-163v-495h149v-34h-149v-131h170v-41h-214zM41 858v36l212 -97v-20z" />
    <glyph glyph-name="eacute" unicode="&#xe9;" horiz-adv-x="293" 
d="M48 0v172h-38l-8 34h46v539h207v-44h-163v-495h149v-34h-149v-131h170v-41h-214zM45 777v20l212 97v-36z" />
    <glyph glyph-name="ecircumflex" unicode="&#xea;" horiz-adv-x="293" 
d="M48 0v172h-38l-8 34h46v539h207v-44h-163v-495h149v-34h-149v-131h170v-41h-214zM148 886l-135 -117v23l135 133l133 -133v-23z" />
    <glyph glyph-name="edieresis" unicode="&#xeb;" horiz-adv-x="293" 
d="M48 0v172h-38l-8 34h46v539h207v-44h-163v-495h149v-34h-149v-131h170v-41h-214zM233 798q-30 0 -30 38q0 37 30 37t30 -37q0 -38 -30 -38zM59 798q-29 0 -29 38q0 37 29 37q30 0 30 -37q0 -38 -30 -38z" />
    <glyph glyph-name="igrave" unicode="&#xec;" horiz-adv-x="148" 
d="M51 0v745h44v-745h-44zM-32 858v36l212 -97v-20z" />
    <glyph glyph-name="iacute" unicode="&#xed;" horiz-adv-x="148" 
d="M51 0v745h44v-745h-44zM-32 777v20l212 97v-36z" />
    <glyph glyph-name="icircumflex" unicode="&#xee;" horiz-adv-x="148" 
d="M51 0v745h44v-745h-44zM75 886l-135 -117v23l135 133l133 -133v-23z" />
    <glyph glyph-name="idieresis" unicode="&#xef;" horiz-adv-x="148" 
d="M51 0v745h44v-745h-44zM161 798q-30 0 -30 38q0 37 30 37t30 -37q0 -38 -30 -38zM-13 798q-29 0 -29 38q0 37 29 37q30 0 30 -37q0 -38 -30 -38z" />
    <glyph glyph-name="eth" unicode="&#xf0;" horiz-adv-x="370" 
d="M45 0v172h-39l-8 34h47v539h114q86 0 124.5 -71.5t38.5 -208.5v-185q0 -137 -38.5 -208.5t-124.5 -71.5h-114zM155 41q34 0 57.5 17t38 49t21 77.5t6.5 102.5v170q0 119 -27 181.5t-96 62.5h-66v-495h90v-34h-90v-131h66z" />
    <glyph glyph-name="ntilde" unicode="&#xf1;" horiz-adv-x="376" 
d="M91 579v-579h-42v814l235 -649v580h41v-814zM317 837q-25 -27 -67 -27q-17 0 -32.5 6t-30 12.5t-29.5 12.5t-32 6q-42 0 -67 -33v33q27 27 68 27q17 0 32.5 -6t30 -12.5t29.5 -12.5t32 -6q40 0 66 33v-33z" />
    <glyph glyph-name="ograve" unicode="&#xf2;" horiz-adv-x="373" 
d="M47 615q0 65 34 104t105 39t104.5 -39t33.5 -104v-485q0 -65 -33.5 -104t-104.5 -39t-105 39t-34 104v485zM280 604q0 23 -4.5 43t-15 35t-29 23.5t-45.5 8.5t-45.5 -8.5t-29.5 -23.5t-15.5 -35t-4.5 -43v-464q0 -23 4.5 -43t15.5 -35t29.5 -23.5t45.5 -8.5t45.5 8.5
t29 23.5t15 35t4.5 43v464zM80 858v36l212 -97v-20z" />
    <glyph glyph-name="oacute" unicode="&#xf3;" horiz-adv-x="373" 
d="M47 615q0 65 34 104t105 39t104.5 -39t33.5 -104v-485q0 -65 -33.5 -104t-104.5 -39t-105 39t-34 104v485zM280 604q0 23 -4.5 43t-15 35t-29 23.5t-45.5 8.5t-45.5 -8.5t-29.5 -23.5t-15.5 -35t-4.5 -43v-464q0 -23 4.5 -43t15.5 -35t29.5 -23.5t45.5 -8.5t45.5 8.5
t29 23.5t15 35t4.5 43v464zM80 777v20l212 97v-36z" />
    <glyph glyph-name="ocircumflex" unicode="&#xf4;" horiz-adv-x="373" 
d="M47 615q0 65 34 104t105 39t104.5 -39t33.5 -104v-485q0 -65 -33.5 -104t-104.5 -39t-105 39t-34 104v485zM280 604q0 23 -4.5 43t-15 35t-29 23.5t-45.5 8.5t-45.5 -8.5t-29.5 -23.5t-15.5 -35t-4.5 -43v-464q0 -23 4.5 -43t15.5 -35t29.5 -23.5t45.5 -8.5t45.5 8.5
t29 23.5t15 35t4.5 43v464zM187 886l-135 -117v23l135 133l133 -133v-23z" />
    <glyph glyph-name="otilde" unicode="&#xf5;" horiz-adv-x="373" 
d="M47 615q0 65 34 104t105 39t104.5 -39t33.5 -104v-485q0 -65 -33.5 -104t-104.5 -39t-105 39t-34 104v485zM280 604q0 23 -4.5 43t-15 35t-29 23.5t-45.5 8.5t-45.5 -8.5t-29.5 -23.5t-15.5 -35t-4.5 -43v-464q0 -23 4.5 -43t15.5 -35t29.5 -23.5t45.5 -8.5t45.5 8.5
t29 23.5t15 35t4.5 43v464zM315 837q-25 -27 -67 -27q-17 0 -32.5 6t-30 12.5t-29.5 12.5t-32 6q-42 0 -67 -33v33q27 27 68 27q17 0 32.5 -6t30 -12.5t29.5 -12.5t32 -6q40 0 66 33v-33z" />
    <glyph glyph-name="odieresis" unicode="&#xf6;" horiz-adv-x="373" 
d="M47 615q0 65 34 104t105 39t104.5 -39t33.5 -104v-485q0 -65 -33.5 -104t-104.5 -39t-105 39t-34 104v485zM280 604q0 23 -4.5 43t-15 35t-29 23.5t-45.5 8.5t-45.5 -8.5t-29.5 -23.5t-15.5 -35t-4.5 -43v-464q0 -23 4.5 -43t15.5 -35t29.5 -23.5t45.5 -8.5t45.5 8.5
t29 23.5t15 35t4.5 43v464zM273 798q-30 0 -30 38q0 37 30 37t30 -37q0 -38 -30 -38zM99 798q-29 0 -29 38q0 37 29 37q30 0 30 -37q0 -38 -30 -38z" />
    <glyph glyph-name="divide" unicode="&#xf7;" horiz-adv-x="514" 
d="M49 345v35h414v-35h-414zM256 515q-33 0 -33 41t33 41q34 0 34 -41t-34 -41zM256 129q-33 0 -33 41t33 41q34 0 34 -41t-34 -41z" />
    <glyph glyph-name="oslash" unicode="&#xf8;" horiz-adv-x="373" 
d="M47 615q0 65 34 104t105 39q56 0 92 -28l22 77l24 -6l-27 -92q27 -36 27 -94v-485q0 -65 -33.5 -104t-104.5 -39q-56 0 -90 25l-25 -87l-24 7l29 100q-29 36 -29 98v485zM91 140q0 -25 4 -41l168 579q-11 17 -29.5 26.5t-47.5 9.5q-27 0 -45.5 -8.5t-29.5 -23.5
t-15.5 -35t-4.5 -43v-464zM280 604q0 18 -3 35l-166 -577q22 -32 75 -32q27 0 45.5 8.5t29 23.5t15 35t4.5 43v464z" />
    <glyph glyph-name="ugrave" unicode="&#xf9;" horiz-adv-x="377" 
d="M283 745h43v-615q0 -65 -33.5 -104t-104.5 -39t-105 39t-34 104v615h45v-614q0 -46 23 -73.5t71 -27.5q49 0 72 27.5t23 73.5v614zM82 858v36l212 -97v-20z" />
    <glyph glyph-name="uacute" unicode="&#xfa;" horiz-adv-x="377" 
d="M283 745h43v-615q0 -65 -33.5 -104t-104.5 -39t-105 39t-34 104v615h45v-614q0 -46 23 -73.5t71 -27.5q49 0 72 27.5t23 73.5v614zM82 777v20l212 97v-36z" />
    <glyph glyph-name="ucircumflex" unicode="&#xfb;" horiz-adv-x="377" 
d="M283 745h43v-615q0 -65 -33.5 -104t-104.5 -39t-105 39t-34 104v615h45v-614q0 -46 23 -73.5t71 -27.5q49 0 72 27.5t23 73.5v614zM189 886l-135 -117v23l135 133l133 -133v-23z" />
    <glyph glyph-name="udieresis" unicode="&#xfc;" horiz-adv-x="377" 
d="M283 745h43v-615q0 -65 -33.5 -104t-104.5 -39t-105 39t-34 104v615h45v-614q0 -46 23 -73.5t71 -27.5q49 0 72 27.5t23 73.5v614zM275 798q-30 0 -30 38q0 37 30 37t30 -37q0 -38 -30 -38zM101 798q-29 0 -29 38q0 37 29 37q30 0 30 -37q0 -38 -30 -38z" />
    <glyph glyph-name="yacute" unicode="&#xfd;" horiz-adv-x="330" 
d="M144 0v446l-132 299h44l111 -256l109 256h42l-130 -299v-446h-44zM61 777v20l212 97v-36z" />
    <glyph glyph-name="thorn" unicode="&#xfe;" horiz-adv-x="362" 
d="M49 0v172h-39l-8 33h47v540h43v-111h72q85 0 123.5 -54.5t38.5 -177.5q0 -57 -7 -100t-25.5 -72t-50 -43.5t-79.5 -14.5h-72v-172h-43zM160 205q37 0 60.5 11t37.5 35t19.5 60.5t5.5 87.5v7q0 53 -6.5 88.5t-21 57.5t-38 31t-57.5 9h-68v-387h68z" />
    <glyph glyph-name="ydieresis" unicode="&#xff;" horiz-adv-x="330" 
d="M144 0v446l-132 299h44l111 -256l109 256h42l-130 -299v-446h-44zM252 798q-30 0 -30 38q0 37 30 37t30 -37q0 -38 -30 -38zM78 798q-29 0 -29 38q0 37 29 37q30 0 30 -37q0 -38 -30 -38z" />
    <glyph glyph-name="Amacron" unicode="&#x100;" 
d="M315 0l-18 86h-218l-16 -86h-48l174 814l173 -814h-47zM189 627l-102 -503h203zM60 828v29h258v-29h-258z" />
    <glyph glyph-name="amacron" unicode="&#x101;" 
d="M315 0l-18 86h-218l-16 -86h-48l174 814l173 -814h-47zM189 627l-102 -503h203zM60 828v29h258v-29h-258z" />
    <glyph glyph-name="Abreve" unicode="&#x102;" 
d="M340 925q-6 -71 -42.5 -112.5t-99.5 -43.5l164 -769h-47l-18 86h-218l-16 -86h-48l164 769q-62 4 -98.5 45t-42.5 111h27q8 -63 40 -95.5t85 -32.5q52 0 84 32.5t40 95.5h26zM189 627l-102 -503h203z" />
    <glyph glyph-name="abreve" unicode="&#x103;" 
d="M340 925q-6 -71 -42.5 -112.5t-99.5 -43.5l164 -769h-47l-18 86h-218l-16 -86h-48l164 769q-62 4 -98.5 45t-42.5 111h27q8 -63 40 -95.5t85 -32.5q52 0 84 32.5t40 95.5h26zM189 627l-102 -503h203z" />
    <glyph glyph-name="Aogonek" unicode="&#x104;" 
d="M362 -206q-8 -7 -29 -11.5t-47 -4.5q-51 0 -84.5 22.5t-33.5 71.5q0 31 14 53.5t36 37.5t48 23.5t49 12.5l-18 87h-218l-16 -86h-48l174 814l173 -814q-34 -5 -63.5 -14.5t-51.5 -23t-34.5 -32t-12.5 -42.5q0 -38 24 -56t64 -18q47 0 74 15v-35zM189 627l-102 -503h203z
" />
    <glyph glyph-name="aogonek" unicode="&#x105;" 
d="M362 -206q-8 -7 -29 -11.5t-47 -4.5q-51 0 -84.5 22.5t-33.5 71.5q0 31 14 53.5t36 37.5t48 23.5t49 12.5l-18 87h-218l-16 -86h-48l174 814l173 -814q-34 -5 -63.5 -14.5t-51.5 -23t-34.5 -32t-12.5 -42.5q0 -38 24 -56t64 -18q47 0 74 15v-35zM189 627l-102 -503h203z
" />
    <glyph glyph-name="Cacute" unicode="&#x106;" horiz-adv-x="336" 
d="M298 8q-23 -14 -48.5 -17.5t-51.5 -3.5q-52 0 -82 15t-45.5 41t-19.5 60.5t-4 74.5v389q0 40 4 74.5t19.5 60.5t45.5 41t82 15q26 0 51.5 -3.5t48.5 -17.5v-46q-24 15 -47.5 18.5t-46.5 3.5q-39 0 -62 -11.5t-34 -31.5t-14 -46.5t-3 -57.5v-388q0 -31 3 -57.5t14 -46.5
t34 -31.5t62 -11.5q23 0 47 3.5t47 17.5v-44zM92 777v20l212 97v-36z" />
    <glyph glyph-name="cacute" unicode="&#x107;" horiz-adv-x="336" 
d="M298 8q-23 -14 -48.5 -17.5t-51.5 -3.5q-52 0 -82 15t-45.5 41t-19.5 60.5t-4 74.5v389q0 40 4 74.5t19.5 60.5t45.5 41t82 15q26 0 51.5 -3.5t48.5 -17.5v-46q-24 15 -47.5 18.5t-46.5 3.5q-39 0 -62 -11.5t-34 -31.5t-14 -46.5t-3 -57.5v-388q0 -31 3 -57.5t14 -46.5
t34 -31.5t62 -11.5q23 0 47 3.5t47 17.5v-44zM92 777v20l212 97v-36z" />
    <glyph glyph-name="Ccircumflex" unicode="&#x108;" horiz-adv-x="336" 
d="M298 8q-23 -14 -48.5 -17.5t-51.5 -3.5q-52 0 -82 15t-45.5 41t-19.5 60.5t-4 74.5v389q0 40 4 74.5t19.5 60.5t45.5 41t82 15q26 0 51.5 -3.5t48.5 -17.5v-46q-24 15 -47.5 18.5t-46.5 3.5q-39 0 -62 -11.5t-34 -31.5t-14 -46.5t-3 -57.5v-388q0 -31 3 -57.5t14 -46.5
t34 -31.5t62 -11.5q23 0 47 3.5t47 17.5v-44zM199 886l-135 -117v23l135 133l133 -133v-23z" />
    <glyph glyph-name="ccircumflex" unicode="&#x109;" horiz-adv-x="336" 
d="M298 8q-23 -14 -48.5 -17.5t-51.5 -3.5q-52 0 -82 15t-45.5 41t-19.5 60.5t-4 74.5v389q0 40 4 74.5t19.5 60.5t45.5 41t82 15q26 0 51.5 -3.5t48.5 -17.5v-46q-24 15 -47.5 18.5t-46.5 3.5q-39 0 -62 -11.5t-34 -31.5t-14 -46.5t-3 -57.5v-388q0 -31 3 -57.5t14 -46.5
t34 -31.5t62 -11.5q23 0 47 3.5t47 17.5v-44zM199 886l-135 -117v23l135 133l133 -133v-23z" />
    <glyph glyph-name="Cdotaccent" unicode="&#x10a;" horiz-adv-x="336" 
d="M298 8q-23 -14 -48.5 -17.5t-51.5 -3.5q-52 0 -82 15t-45.5 41t-19.5 60.5t-4 74.5v389q0 40 4 74.5t19.5 60.5t45.5 41t82 15q26 0 51.5 -3.5t48.5 -17.5v-46q-24 15 -47.5 18.5t-46.5 3.5q-39 0 -62 -11.5t-34 -31.5t-14 -46.5t-3 -57.5v-388q0 -31 3 -57.5t14 -46.5
t34 -31.5t62 -11.5q23 0 47 3.5t47 17.5v-44zM197 798q-29 0 -29 38q0 37 29 37q31 0 31 -37q0 -38 -31 -38z" />
    <glyph glyph-name="cdotaccent" unicode="&#x10b;" horiz-adv-x="336" 
d="M298 8q-23 -14 -48.5 -17.5t-51.5 -3.5q-52 0 -82 15t-45.5 41t-19.5 60.5t-4 74.5v389q0 40 4 74.5t19.5 60.5t45.5 41t82 15q26 0 51.5 -3.5t48.5 -17.5v-46q-24 15 -47.5 18.5t-46.5 3.5q-39 0 -62 -11.5t-34 -31.5t-14 -46.5t-3 -57.5v-388q0 -31 3 -57.5t14 -46.5
t34 -31.5t62 -11.5q23 0 47 3.5t47 17.5v-44zM197 798q-29 0 -29 38q0 37 29 37q31 0 31 -37q0 -38 -31 -38z" />
    <glyph glyph-name="Ccaron" unicode="&#x10c;" horiz-adv-x="336" 
d="M298 8q-23 -14 -48.5 -17.5t-51.5 -3.5q-52 0 -82 15t-45.5 41t-19.5 60.5t-4 74.5v389q0 40 4 74.5t19.5 60.5t45.5 41t82 15q26 0 51.5 -3.5t48.5 -17.5v-46q-24 15 -47.5 18.5t-46.5 3.5q-39 0 -62 -11.5t-34 -31.5t-14 -46.5t-3 -57.5v-388q0 -31 3 -57.5t14 -46.5
t34 -31.5t62 -11.5q23 0 47 3.5t47 17.5v-44zM64 900v25l134 -118l134 118v-25l-134 -131z" />
    <glyph glyph-name="ccaron" unicode="&#x10d;" horiz-adv-x="336" 
d="M298 8q-23 -14 -48.5 -17.5t-51.5 -3.5q-52 0 -82 15t-45.5 41t-19.5 60.5t-4 74.5v389q0 40 4 74.5t19.5 60.5t45.5 41t82 15q26 0 51.5 -3.5t48.5 -17.5v-46q-24 15 -47.5 18.5t-46.5 3.5q-39 0 -62 -11.5t-34 -31.5t-14 -46.5t-3 -57.5v-388q0 -31 3 -57.5t14 -46.5
t34 -31.5t62 -11.5q23 0 47 3.5t47 17.5v-44zM64 900v25l134 -118l134 118v-25l-134 -131z" />
    <glyph glyph-name="Dcaron" unicode="&#x10e;" horiz-adv-x="375" 
d="M51 0v745h115q86 0 124 -71.5t38 -208.5v-185q0 -137 -38 -208.5t-124 -71.5h-115zM162 41q68 0 95 60t27 175v193q0 114 -27 173t-95 59h-67v-660h67zM23 900v25l134 -118l134 118v-25l-134 -131z" />
    <glyph glyph-name="dcaron" unicode="&#x10f;" horiz-adv-x="375" 
d="M51 0v745h115q86 0 124 -71.5t38 -208.5v-185q0 -137 -38 -208.5t-124 -71.5h-115zM162 41q68 0 95 60t27 175v193q0 114 -27 173t-95 59h-67v-660h67zM23 900v25l134 -118l134 118v-25l-134 -131z" />
    <glyph glyph-name="Dcroat" unicode="&#x110;" horiz-adv-x="370" 
d="M45 0v172h-39l-8 34h47v539h114q86 0 124.5 -71.5t38.5 -208.5v-185q0 -137 -38.5 -208.5t-124.5 -71.5h-114zM155 41q34 0 57.5 17t38 49t21 77.5t6.5 102.5v170q0 119 -27 181.5t-96 62.5h-66v-495h90v-34h-90v-131h66z" />
    <glyph glyph-name="dcroat" unicode="&#x111;" horiz-adv-x="370" 
d="M45 0v172h-39l-8 34h47v539h114q86 0 124.5 -71.5t38.5 -208.5v-185q0 -137 -38.5 -208.5t-124.5 -71.5h-114zM155 41q34 0 57.5 17t38 49t21 77.5t6.5 102.5v170q0 119 -27 181.5t-96 62.5h-66v-495h90v-34h-90v-131h66z" />
    <glyph glyph-name="Emacron" unicode="&#x112;" horiz-adv-x="293" 
d="M48 0v172h-38l-8 34h46v539h207v-44h-163v-495h149v-34h-149v-131h170v-41h-214zM18 828v29h258v-29h-258z" />
    <glyph glyph-name="emacron" unicode="&#x113;" horiz-adv-x="293" 
d="M48 0v172h-38l-8 34h46v539h207v-44h-163v-495h149v-34h-149v-131h170v-41h-214zM18 828v29h258v-29h-258z" />
    <glyph glyph-name="Ebreve" unicode="&#x114;" horiz-adv-x="293" 
d="M48 0v172h-38l-8 34h46v539h207v-44h-163v-495h149v-34h-149v-131h170v-41h-214zM298 925q-6 -73 -45 -114.5t-105 -41.5q-67 0 -106 41.5t-46 114.5h27q8 -63 40 -95.5t85 -32.5q52 0 84 32.5t40 95.5h26z" />
    <glyph glyph-name="ebreve" unicode="&#x115;" horiz-adv-x="293" 
d="M48 0v172h-38l-8 34h46v539h207v-44h-163v-495h149v-34h-149v-131h170v-41h-214zM298 925q-6 -73 -45 -114.5t-105 -41.5q-67 0 -106 41.5t-46 114.5h27q8 -63 40 -95.5t85 -32.5q52 0 84 32.5t40 95.5h26z" />
    <glyph glyph-name="Edotaccent" unicode="&#x116;" horiz-adv-x="293" 
d="M48 0v172h-38l-8 34h46v539h207v-44h-163v-495h149v-34h-149v-131h170v-41h-214zM145 798q-29 0 -29 38q0 37 29 37q31 0 31 -37q0 -38 -31 -38z" />
    <glyph glyph-name="edotaccent" unicode="&#x117;" horiz-adv-x="293" 
d="M48 0v172h-38l-8 34h46v539h207v-44h-163v-495h149v-34h-149v-131h170v-41h-214zM145 798q-29 0 -29 38q0 37 29 37q31 0 31 -37q0 -38 -31 -38z" />
    <glyph glyph-name="Eogonek" unicode="&#x118;" horiz-adv-x="293" 
d="M262 -206q-8 -7 -29 -11.5t-47 -4.5q-51 0 -84.5 22.5t-33.5 71.5q0 32 15.5 55t38.5 38t50 23.5t51 11.5h-175v172h-38l-8 34h46v539h207v-44h-163v-495h149v-34h-149v-131h170v-41q-34 -5 -63.5 -14.5t-51.5 -23t-34.5 -32t-12.5 -42.5q0 -38 24 -56t64 -18q47 0 74 15
v-35z" />
    <glyph glyph-name="eogonek" unicode="&#x119;" horiz-adv-x="293" 
d="M262 -206q-8 -7 -29 -11.5t-47 -4.5q-51 0 -84.5 22.5t-33.5 71.5q0 32 15.5 55t38.5 38t50 23.5t51 11.5h-175v172h-38l-8 34h46v539h207v-44h-163v-495h149v-34h-149v-131h170v-41q-34 -5 -63.5 -14.5t-51.5 -23t-34.5 -32t-12.5 -42.5q0 -38 24 -56t64 -18q47 0 74 15
v-35z" />
    <glyph glyph-name="Ecaron" unicode="&#x11a;" horiz-adv-x="293" 
d="M48 0v172h-38l-8 34h46v539h207v-44h-163v-495h149v-34h-149v-131h170v-41h-214zM13 900v25l134 -118l134 118v-25l-134 -131z" />
    <glyph glyph-name="ecaron" unicode="&#x11b;" horiz-adv-x="293" 
d="M48 0v172h-38l-8 34h46v539h207v-44h-163v-495h149v-34h-149v-131h170v-41h-214zM13 900v25l134 -118l134 118v-25l-134 -131z" />
    <glyph glyph-name="Gcircumflex" unicode="&#x11c;" horiz-adv-x="363" 
d="M282 230h44v-213q-14 -11 -49.5 -20.5t-89.5 -9.5q-71 0 -105 39t-34 104v42h-38l-8 34h46v361q0 40 4 74.5t19.5 60.5t45.5 41t81 15q27 0 52.5 -3.5t48.5 -17.5v-46q-24 14 -47 18t-48 4q-39 0 -61.5 -11.5t-33.5 -31.5t-14 -46.5t-3 -57.5v-435q0 -48 23.5 -74.5
t71.5 -26.5q39 0 61.5 4.5t33.5 11.5v184zM203 886l-135 -117v23l135 133l133 -133v-23z" />
    <glyph glyph-name="gcircumflex" unicode="&#x11d;" horiz-adv-x="363" 
d="M282 230h44v-213q-14 -11 -49.5 -20.5t-89.5 -9.5q-71 0 -105 39t-34 104v42h-38l-8 34h46v361q0 40 4 74.5t19.5 60.5t45.5 41t81 15q27 0 52.5 -3.5t48.5 -17.5v-46q-24 14 -47 18t-48 4q-39 0 -61.5 -11.5t-33.5 -31.5t-14 -46.5t-3 -57.5v-435q0 -48 23.5 -74.5
t71.5 -26.5q39 0 61.5 4.5t33.5 11.5v184zM203 886l-135 -117v23l135 133l133 -133v-23z" />
    <glyph glyph-name="Gbreve" unicode="&#x11e;" horiz-adv-x="363" 
d="M282 230h44v-213q-14 -11 -49.5 -20.5t-89.5 -9.5q-71 0 -105 39t-34 104v42h-38l-8 34h46v361q0 40 4 74.5t19.5 60.5t45.5 41t81 15q27 0 52.5 -3.5t48.5 -17.5v-46q-24 14 -47 18t-48 4q-39 0 -61.5 -11.5t-33.5 -31.5t-14 -46.5t-3 -57.5v-435q0 -48 23.5 -74.5
t71.5 -26.5q39 0 61.5 4.5t33.5 11.5v184zM353 925q-6 -73 -45 -114.5t-105 -41.5q-67 0 -106 41.5t-46 114.5h27q8 -63 40 -95.5t85 -32.5q52 0 84 32.5t40 95.5h26z" />
    <glyph glyph-name="gbreve" unicode="&#x11f;" horiz-adv-x="363" 
d="M282 230h44v-213q-14 -11 -49.5 -20.5t-89.5 -9.5q-71 0 -105 39t-34 104v42h-38l-8 34h46v361q0 40 4 74.5t19.5 60.5t45.5 41t81 15q27 0 52.5 -3.5t48.5 -17.5v-46q-24 14 -47 18t-48 4q-39 0 -61.5 -11.5t-33.5 -31.5t-14 -46.5t-3 -57.5v-435q0 -48 23.5 -74.5
t71.5 -26.5q39 0 61.5 4.5t33.5 11.5v184zM353 925q-6 -73 -45 -114.5t-105 -41.5q-67 0 -106 41.5t-46 114.5h27q8 -63 40 -95.5t85 -32.5q52 0 84 32.5t40 95.5h26z" />
    <glyph glyph-name="Gdotaccent" unicode="&#x120;" horiz-adv-x="363" 
d="M282 230h44v-213q-14 -11 -49.5 -20.5t-89.5 -9.5q-71 0 -105 39t-34 104v42h-38l-8 34h46v361q0 40 4 74.5t19.5 60.5t45.5 41t81 15q27 0 52.5 -3.5t48.5 -17.5v-46q-24 14 -47 18t-48 4q-39 0 -61.5 -11.5t-33.5 -31.5t-14 -46.5t-3 -57.5v-435q0 -48 23.5 -74.5
t71.5 -26.5q39 0 61.5 4.5t33.5 11.5v184zM200 798q-29 0 -29 38q0 37 29 37q31 0 31 -37q0 -38 -31 -38z" />
    <glyph glyph-name="gdotaccent" unicode="&#x121;" horiz-adv-x="363" 
d="M282 230h44v-213q-14 -11 -49.5 -20.5t-89.5 -9.5q-71 0 -105 39t-34 104v42h-38l-8 34h46v361q0 40 4 74.5t19.5 60.5t45.5 41t81 15q27 0 52.5 -3.5t48.5 -17.5v-46q-24 14 -47 18t-48 4q-39 0 -61.5 -11.5t-33.5 -31.5t-14 -46.5t-3 -57.5v-435q0 -48 23.5 -74.5
t71.5 -26.5q39 0 61.5 4.5t33.5 11.5v184zM200 798q-29 0 -29 38q0 37 29 37q31 0 31 -37q0 -38 -31 -38z" />
    <glyph glyph-name="Gcommaaccent" unicode="&#x122;" horiz-adv-x="363" 
d="M282 230h44v-213q-14 -11 -49.5 -20.5t-89.5 -9.5q-71 0 -105 39t-34 104v42h-38l-8 34h46v361q0 40 4 74.5t19.5 60.5t45.5 41t81 15q27 0 52.5 -3.5t48.5 -17.5v-46q-24 14 -47 18t-48 4q-39 0 -61.5 -11.5t-33.5 -31.5t-14 -46.5t-3 -57.5v-435q0 -48 23.5 -74.5
t71.5 -26.5q39 0 61.5 4.5t33.5 11.5v184zM161 -222l41 135l40 -135h-81z" />
    <glyph glyph-name="gcommaaccent" unicode="&#x123;" horiz-adv-x="363" 
d="M282 230h44v-213q-14 -11 -49.5 -20.5t-89.5 -9.5q-71 0 -105 39t-34 104v42h-38l-8 34h46v361q0 40 4 74.5t19.5 60.5t45.5 41t81 15q27 0 52.5 -3.5t48.5 -17.5v-46q-24 14 -47 18t-48 4q-39 0 -61.5 -11.5t-33.5 -31.5t-14 -46.5t-3 -57.5v-435q0 -48 23.5 -74.5
t71.5 -26.5q39 0 61.5 4.5t33.5 11.5v184zM161 -222l41 135l40 -135h-81z" />
    <glyph glyph-name="Hcircumflex" unicode="&#x124;" 
d="M282 0v172h-190v-172h-44v172h-39l-7 34h46v539h44v-539h190v539h44v-745h-44zM190 886l-135 -117v23l135 133l133 -133v-23z" />
    <glyph glyph-name="hcircumflex" unicode="&#x125;" 
d="M282 0v172h-190v-172h-44v172h-39l-7 34h46v539h44v-539h190v539h44v-745h-44zM190 886l-135 -117v23l135 133l133 -133v-23z" />
    <glyph glyph-name="Hbar" unicode="&#x126;" 
d="M282 0v172h-190v-172h-44v172h-39l-7 34h46v94h-39l-7 37h46v408h44v-408h190v408h44v-745h-44zM282 206v94h-190v-94h190z" />
    <glyph glyph-name="hbar" unicode="&#x127;" 
d="M282 0v172h-190v-172h-44v172h-39l-7 34h46v94h-39l-7 37h46v408h44v-408h190v408h44v-745h-44zM282 206v94h-190v-94h190z" />
    <glyph glyph-name="Itilde" unicode="&#x128;" horiz-adv-x="148" 
d="M51 0v745h44v-745h-44zM203 837q-25 -27 -67 -27q-17 0 -32.5 6t-30 12.5t-29.5 12.5t-32 6q-41 0 -67 -33v33q27 27 68 27q17 0 32.5 -6t30 -12.5t29.5 -12.5t32 -6q40 0 66 33v-33z" />
    <glyph glyph-name="itilde" unicode="&#x129;" horiz-adv-x="148" 
d="M51 0v745h44v-745h-44zM203 837q-25 -27 -67 -27q-17 0 -32.5 6t-30 12.5t-29.5 12.5t-32 6q-41 0 -67 -33v33q27 27 68 27q17 0 32.5 -6t30 -12.5t29.5 -12.5t32 -6q40 0 66 33v-33z" />
    <glyph glyph-name="uni012A" unicode="&#x12a;" horiz-adv-x="148" 
d="M51 0v745h44v-745h-44zM-55 828v29h258v-29h-258z" />
    <glyph glyph-name="imacron" unicode="&#x12b;" horiz-adv-x="148" 
d="M51 0v745h44v-745h-44zM-55 828v29h258v-29h-258z" />
    <glyph glyph-name="Ibreve" unicode="&#x12c;" horiz-adv-x="148" 
d="M51 0v745h44v-745h-44zM225 925q-6 -73 -45 -114.5t-105 -41.5q-67 0 -106 41.5t-46 114.5h27q8 -63 40 -95.5t85 -32.5q52 0 84 32.5t40 95.5h26z" />
    <glyph glyph-name="ibreve" unicode="&#x12d;" horiz-adv-x="148" 
d="M51 0v745h44v-745h-44zM225 925q-6 -73 -45 -114.5t-105 -41.5q-67 0 -106 41.5t-46 114.5h27q8 -63 40 -95.5t85 -32.5q52 0 84 32.5t40 95.5h26z" />
    <glyph glyph-name="Iogonek" unicode="&#x12e;" horiz-adv-x="148" 
d="M95 -206q-8 -7 -29 -11.5t-47 -4.5q-51 0 -84.5 22.5t-33.5 71.5q0 31 14.5 54t37 38t48.5 23.5t50 12.5v745h44v-745q-34 -5 -63.5 -14.5t-51.5 -23t-34.5 -32t-12.5 -42.5q0 -38 24 -56t64 -18q47 0 74 15v-35z" />
    <glyph glyph-name="iogonek" unicode="&#x12f;" horiz-adv-x="148" 
d="M95 -206q-8 -7 -29 -11.5t-47 -4.5q-51 0 -84.5 22.5t-33.5 71.5q0 31 14.5 54t37 38t48.5 23.5t50 12.5v745h44v-745q-34 -5 -63.5 -14.5t-51.5 -23t-34.5 -32t-12.5 -42.5q0 -38 24 -56t64 -18q47 0 74 15v-35z" />
    <glyph glyph-name="Idotaccent" unicode="&#x130;" horiz-adv-x="148" 
d="M51 0v745h44v-745h-44zM73 798q-29 0 -29 38q0 37 29 37q31 0 31 -37q0 -38 -31 -38z" />
    <glyph glyph-name="dotlessi" unicode="&#x131;" horiz-adv-x="148" 
d="M51 0v745h44v-745h-44z" />
    <glyph glyph-name="IJ" unicode="&#x132;" horiz-adv-x="441" 
d="M51 0v745h44v-745h-44zM344 745h44v-605q0 -75 -29.5 -114t-97.5 -39q-35 0 -55.5 5t-34.5 16v44q18 -11 37.5 -15t48.5 -4q47 0 67 28t20 83v601z" />
    <glyph glyph-name="ij" unicode="&#x133;" horiz-adv-x="441" 
d="M51 0v745h44v-745h-44zM344 745h44v-605q0 -75 -29.5 -114t-97.5 -39q-35 0 -55.5 5t-34.5 16v44q18 -11 37.5 -15t48.5 -4q47 0 67 28t20 83v601z" />
    <glyph glyph-name="Jcircumflex" unicode="&#x134;" horiz-adv-x="293" 
d="M196 745h44v-605q0 -75 -29.5 -114t-97.5 -39q-35 0 -55.5 5t-34.5 16v44q18 -11 37.5 -15t48.5 -4q47 0 67 28t20 83v601zM148 886l-135 -117v23l135 133l133 -133v-23z" />
    <glyph glyph-name="jcircumflex" unicode="&#x135;" horiz-adv-x="293" 
d="M196 745h44v-605q0 -75 -29.5 -114t-97.5 -39q-35 0 -55.5 5t-34.5 16v44q18 -11 37.5 -15t48.5 -4q47 0 67 28t20 83v601zM148 886l-135 -117v23l135 133l133 -133v-23z" />
    <glyph glyph-name="Kcommaaccent" unicode="&#x136;" horiz-adv-x="367" 
d="M282 0v82q0 39 -19 64.5t-69 25.5h-102v-172h-44v172h-38l-8 34h46v539h44v-539h103q87 0 87 133v406h44v-406q0 -132 -85 -149q41 -6 63 -33t22 -75v-82h-44zM143 -222l41 135l40 -135h-81z" />
    <glyph glyph-name="kcommaaccent" unicode="&#x137;" horiz-adv-x="367" 
d="M282 0v82q0 39 -19 64.5t-69 25.5h-102v-172h-44v172h-38l-8 34h46v539h44v-539h103q87 0 87 133v406h44v-406q0 -132 -85 -149q41 -6 63 -33t22 -75v-82h-44zM143 -222l41 135l40 -135h-81z" />
    <glyph glyph-name="Lacute" unicode="&#x139;" horiz-adv-x="280" 
d="M51 0v745h44v-704h159v-41h-203zM-31 777v20l212 97v-36z" />
    <glyph glyph-name="lacute" unicode="&#x13a;" horiz-adv-x="280" 
d="M51 0v745h44v-704h159v-41h-203zM-31 777v20l212 97v-36z" />
    <glyph glyph-name="Lcommaaccent" unicode="&#x13b;" horiz-adv-x="280" 
d="M51 0v745h44v-704h159v-41h-203zM99 -222l41 135l40 -135h-81z" />
    <glyph glyph-name="lcommaaccent" unicode="&#x13c;" horiz-adv-x="280" 
d="M51 0v745h44v-704h159v-41h-203zM99 -222l41 135l40 -135h-81z" />
    <glyph glyph-name="Lcaron" unicode="&#x13d;" horiz-adv-x="280" 
d="M51 0v745h44v-704h159v-41h-203zM198 625l19 54q-13 0 -21.5 8.5t-8.5 27.5q0 42 33 42q34 0 34 -42q0 -8 -1 -16t-5 -18l-24 -56h-26z" />
    <glyph glyph-name="lcaron" unicode="&#x13e;" horiz-adv-x="280" 
d="M51 0v745h44v-704h159v-41h-203zM198 625l19 54q-13 0 -21.5 8.5t-8.5 27.5q0 42 33 42q34 0 34 -42q0 -8 -1 -16t-5 -18l-24 -56h-26z" />
    <glyph glyph-name="Ldot" unicode="&#x13f;" horiz-adv-x="280" 
d="M51 0v745h44v-704h159v-41h-203zM198 300q-29 0 -29 38q0 37 29 37q31 0 31 -37q0 -38 -31 -38z" />
    <glyph glyph-name="ldot" unicode="&#x140;" horiz-adv-x="280" 
d="M51 0v745h44v-704h159v-41h-203zM198 300q-29 0 -29 38q0 37 29 37q31 0 31 -37q0 -38 -31 -38z" />
    <glyph glyph-name="Lslash" unicode="&#x141;" horiz-adv-x="300" 
d="M44 0v347l-35 -12v29l35 12v369h44v-353l93 36v-29l-93 -36v-322h158v-41h-202z" />
    <glyph glyph-name="lslash" unicode="&#x142;" horiz-adv-x="300" 
d="M44 0v347l-35 -12v29l35 12v369h44v-353l93 36v-29l-93 -36v-322h158v-41h-202z" />
    <glyph glyph-name="Nacute" unicode="&#x143;" horiz-adv-x="376" 
d="M91 579v-579h-42v814l235 -649v580h41v-814zM82 777v20l212 97v-36z" />
    <glyph glyph-name="nacute" unicode="&#x144;" horiz-adv-x="376" 
d="M91 579v-579h-42v814l235 -649v580h41v-814zM82 777v20l212 97v-36z" />
    <glyph glyph-name="Ncommaaccent" unicode="&#x145;" horiz-adv-x="376" 
d="M91 579v-579h-42v814l235 -649v580h41v-814zM147 -222l41 135l40 -135h-81z" />
    <glyph glyph-name="ncommaaccent" unicode="&#x146;" horiz-adv-x="376" 
d="M91 579v-579h-42v814l235 -649v580h41v-814zM147 -222l41 135l40 -135h-81z" />
    <glyph glyph-name="Ncaron" unicode="&#x147;" horiz-adv-x="376" 
d="M91 579v-579h-42v814l235 -649v580h41v-814zM54 900v25l134 -118l134 118v-25l-134 -131z" />
    <glyph glyph-name="ncaron" unicode="&#x148;" horiz-adv-x="376" 
d="M91 579v-579h-42v814l235 -649v580h41v-814zM54 900v25l134 -118l134 118v-25l-134 -131z" />
    <glyph glyph-name="Eng" unicode="&#x14a;" horiz-adv-x="376" 
d="M284 56l-193 523v-579h-42v814l235 -649v580h41v-797q0 -75 -29.5 -114t-97.5 -39q-35 0 -55.5 5t-34.5 16v44q18 -11 37.5 -15t48.5 -4q47 0 68.5 28t21.5 83v104z" />
    <glyph glyph-name="eng" unicode="&#x14b;" horiz-adv-x="376" 
d="M284 56l-193 523v-579h-42v814l235 -649v580h41v-797q0 -75 -29.5 -114t-97.5 -39q-35 0 -55.5 5t-34.5 16v44q18 -11 37.5 -15t48.5 -4q47 0 68.5 28t21.5 83v104z" />
    <glyph glyph-name="Omacron" unicode="&#x14c;" horiz-adv-x="373" 
d="M47 615q0 65 34 104t105 39t104.5 -39t33.5 -104v-485q0 -65 -33.5 -104t-104.5 -39t-105 39t-34 104v485zM280 604q0 23 -4.5 43t-15 35t-29 23.5t-45.5 8.5t-45.5 -8.5t-29.5 -23.5t-15.5 -35t-4.5 -43v-464q0 -23 4.5 -43t15.5 -35t29.5 -23.5t45.5 -8.5t45.5 8.5
t29 23.5t15 35t4.5 43v464zM57 828v29h258v-29h-258z" />
    <glyph glyph-name="omacron" unicode="&#x14d;" horiz-adv-x="373" 
d="M47 615q0 65 34 104t105 39t104.5 -39t33.5 -104v-485q0 -65 -33.5 -104t-104.5 -39t-105 39t-34 104v485zM280 604q0 23 -4.5 43t-15 35t-29 23.5t-45.5 8.5t-45.5 -8.5t-29.5 -23.5t-15.5 -35t-4.5 -43v-464q0 -23 4.5 -43t15.5 -35t29.5 -23.5t45.5 -8.5t45.5 8.5
t29 23.5t15 35t4.5 43v464zM57 828v29h258v-29h-258z" />
    <glyph glyph-name="Obreve" unicode="&#x14e;" horiz-adv-x="373" 
d="M47 615q0 65 34 104t105 39t104.5 -39t33.5 -104v-485q0 -65 -33.5 -104t-104.5 -39t-105 39t-34 104v485zM280 604q0 23 -4.5 43t-15 35t-29 23.5t-45.5 8.5t-45.5 -8.5t-29.5 -23.5t-15.5 -35t-4.5 -43v-464q0 -23 4.5 -43t15.5 -35t29.5 -23.5t45.5 -8.5t45.5 8.5
t29 23.5t15 35t4.5 43v464zM338 925q-6 -73 -45 -114.5t-105 -41.5q-67 0 -106 41.5t-46 114.5h27q8 -63 40 -95.5t85 -32.5q52 0 84 32.5t40 95.5h26z" />
    <glyph glyph-name="obreve" unicode="&#x14f;" horiz-adv-x="373" 
d="M47 615q0 65 34 104t105 39t104.5 -39t33.5 -104v-485q0 -65 -33.5 -104t-104.5 -39t-105 39t-34 104v485zM280 604q0 23 -4.5 43t-15 35t-29 23.5t-45.5 8.5t-45.5 -8.5t-29.5 -23.5t-15.5 -35t-4.5 -43v-464q0 -23 4.5 -43t15.5 -35t29.5 -23.5t45.5 -8.5t45.5 8.5
t29 23.5t15 35t4.5 43v464zM338 925q-6 -73 -45 -114.5t-105 -41.5q-67 0 -106 41.5t-46 114.5h27q8 -63 40 -95.5t85 -32.5q52 0 84 32.5t40 95.5h26z" />
    <glyph glyph-name="Ohungarumlaut" unicode="&#x150;" horiz-adv-x="373" 
d="M47 615q0 65 34 104t105 39t104.5 -39t33.5 -104v-485q0 -65 -33.5 -104t-104.5 -39t-105 39t-34 104v485zM280 604q0 23 -4.5 43t-15 35t-29 23.5t-45.5 8.5t-45.5 -8.5t-29.5 -23.5t-15.5 -35t-4.5 -43v-464q0 -23 4.5 -43t15.5 -35t29.5 -23.5t45.5 -8.5t45.5 8.5
t29 23.5t15 35t4.5 43v464zM254 769l56 156h30l-61 -156h-25zM80 769l56 156h31l-61 -156h-26z" />
    <glyph glyph-name="ohungarumlaut" unicode="&#x151;" horiz-adv-x="373" 
d="M47 615q0 65 34 104t105 39t104.5 -39t33.5 -104v-485q0 -65 -33.5 -104t-104.5 -39t-105 39t-34 104v485zM280 604q0 23 -4.5 43t-15 35t-29 23.5t-45.5 8.5t-45.5 -8.5t-29.5 -23.5t-15.5 -35t-4.5 -43v-464q0 -23 4.5 -43t15.5 -35t29.5 -23.5t45.5 -8.5t45.5 8.5
t29 23.5t15 35t4.5 43v464zM254 769l56 156h30l-61 -156h-25zM80 769l56 156h31l-61 -156h-26z" />
    <glyph glyph-name="OE" unicode="&#x152;" horiz-adv-x="486" 
d="M254 0q-31 -13 -68 -13q-71 0 -105 39t-34 104v485q0 65 34 104t105 39q37 0 68 -13h194v-44h-149q25 -32 25 -86v-409h110v-34h-110v-42q0 -56 -27 -89h159v-41h-202zM280 604q0 23 -4.5 43t-15 35t-29 23.5t-45.5 8.5t-45.5 -8.5t-29.5 -23.5t-15.5 -35t-4.5 -43v-464
q0 -23 4.5 -43t15.5 -35t29.5 -23.5t45.5 -8.5t45.5 8.5t29 23.5t15 35t4.5 43v464z" />
    <glyph glyph-name="oe" unicode="&#x153;" horiz-adv-x="486" 
d="M254 0q-31 -13 -68 -13q-71 0 -105 39t-34 104v485q0 65 34 104t105 39q37 0 68 -13h194v-44h-149q25 -32 25 -86v-409h110v-34h-110v-42q0 -56 -27 -89h159v-41h-202zM280 604q0 23 -4.5 43t-15 35t-29 23.5t-45.5 8.5t-45.5 -8.5t-29.5 -23.5t-15.5 -35t-4.5 -43v-464
q0 -23 4.5 -43t15.5 -35t29.5 -23.5t45.5 -8.5t45.5 8.5t29 23.5t15 35t4.5 43v464z" />
    <glyph glyph-name="Racute" unicode="&#x154;" horiz-adv-x="370" 
d="M283 0v81q0 42 -24.5 66.5t-67.5 24.5h-99v-172h-43v172h-39l-8 33h47v540h115q43 0 73.5 -21.5t50 -59.5t29 -90t9.5 -113v-68q0 -32 -4 -64.5t-14 -61t-27 -49.5t-43 -29q43 -5 65.5 -35t22.5 -72v-82h-43zM283 466q0 52 -6.5 95.5t-21 74.5t-38 48t-57.5 17h-68v-496
h94q29 0 48 14.5t30 39.5t15 59.5t4 73.5v74zM59 777v20l212 97v-36z" />
    <glyph glyph-name="racute" unicode="&#x155;" horiz-adv-x="370" 
d="M283 0v81q0 42 -24.5 66.5t-67.5 24.5h-99v-172h-43v172h-39l-8 33h47v540h115q43 0 73.5 -21.5t50 -59.5t29 -90t9.5 -113v-68q0 -32 -4 -64.5t-14 -61t-27 -49.5t-43 -29q43 -5 65.5 -35t22.5 -72v-82h-43zM283 466q0 52 -6.5 95.5t-21 74.5t-38 48t-57.5 17h-68v-496
h94q29 0 48 14.5t30 39.5t15 59.5t4 73.5v74zM59 777v20l212 97v-36z" />
    <glyph glyph-name="Rcommaaccent" unicode="&#x156;" horiz-adv-x="370" 
d="M283 0v81q0 42 -24.5 66.5t-67.5 24.5h-99v-172h-43v172h-39l-8 33h47v540h115q43 0 73.5 -21.5t50 -59.5t29 -90t9.5 -113v-68q0 -32 -4 -64.5t-14 -61t-27 -49.5t-43 -29q43 -5 65.5 -35t22.5 -72v-82h-43zM283 466q0 52 -6.5 95.5t-21 74.5t-38 48t-57.5 17h-68v-496
h94q29 0 48 14.5t30 39.5t15 59.5t4 73.5v74zM144 -222l41 135l40 -135h-81z" />
    <glyph glyph-name="rcommaaccent" unicode="&#x157;" horiz-adv-x="370" 
d="M283 0v81q0 42 -24.5 66.5t-67.5 24.5h-99v-172h-43v172h-39l-8 33h47v540h115q43 0 73.5 -21.5t50 -59.5t29 -90t9.5 -113v-68q0 -32 -4 -64.5t-14 -61t-27 -49.5t-43 -29q43 -5 65.5 -35t22.5 -72v-82h-43zM283 466q0 52 -6.5 95.5t-21 74.5t-38 48t-57.5 17h-68v-496
h94q29 0 48 14.5t30 39.5t15 59.5t4 73.5v74zM144 -222l41 135l40 -135h-81z" />
    <glyph glyph-name="Rcaron" unicode="&#x158;" horiz-adv-x="370" 
d="M283 0v81q0 42 -24.5 66.5t-67.5 24.5h-99v-172h-43v172h-39l-8 33h47v540h115q43 0 73.5 -21.5t50 -59.5t29 -90t9.5 -113v-68q0 -32 -4 -64.5t-14 -61t-27 -49.5t-43 -29q43 -5 65.5 -35t22.5 -72v-82h-43zM283 466q0 52 -6.5 95.5t-21 74.5t-38 48t-57.5 17h-68v-496
h94q29 0 48 14.5t30 39.5t15 59.5t4 73.5v74zM31 900v25l134 -118l134 118v-25l-134 -131z" />
    <glyph glyph-name="rcaron" unicode="&#x159;" horiz-adv-x="370" 
d="M283 0v81q0 42 -24.5 66.5t-67.5 24.5h-99v-172h-43v172h-39l-8 33h47v540h115q43 0 73.5 -21.5t50 -59.5t29 -90t9.5 -113v-68q0 -32 -4 -64.5t-14 -61t-27 -49.5t-43 -29q43 -5 65.5 -35t22.5 -72v-82h-43zM283 466q0 52 -6.5 95.5t-21 74.5t-38 48t-57.5 17h-68v-496
h94q29 0 48 14.5t30 39.5t15 59.5t4 73.5v74zM31 900v25l134 -118l134 118v-25l-134 -131z" />
    <glyph glyph-name="Sacute" unicode="&#x15a;" horiz-adv-x="279" 
d="M37 35q7 -1 16 -2t17 -1q32 0 56 12.5t40 33.5t24 49t8 58q0 37 -13 70t-33 64.5t-42.5 62t-42.5 63.5t-33 69.5t-13 79.5q0 35 10.5 65t30 51.5t47.5 34t64 12.5q8 0 18 -1t18 -2v-47q-6 2 -14 2.5t-16 0.5q-53 0 -84 -34.5t-31 -87.5q0 -47 20 -85.5t46 -73.5
q26 -37 47 -67t35.5 -59t22.5 -59.5t8 -69.5q0 -38 -11 -72t-32.5 -59.5t-54 -40.5t-74.5 -15q-8 0 -17.5 0.5t-16.5 2.5v45zM33 777v20l212 97v-36z" />
    <glyph glyph-name="sacute" unicode="&#x15b;" horiz-adv-x="279" 
d="M37 35q7 -1 16 -2t17 -1q32 0 56 12.5t40 33.5t24 49t8 58q0 37 -13 70t-33 64.5t-42.5 62t-42.5 63.5t-33 69.5t-13 79.5q0 35 10.5 65t30 51.5t47.5 34t64 12.5q8 0 18 -1t18 -2v-47q-6 2 -14 2.5t-16 0.5q-53 0 -84 -34.5t-31 -87.5q0 -47 20 -85.5t46 -73.5
q26 -37 47 -67t35.5 -59t22.5 -59.5t8 -69.5q0 -38 -11 -72t-32.5 -59.5t-54 -40.5t-74.5 -15q-8 0 -17.5 0.5t-16.5 2.5v45zM33 777v20l212 97v-36z" />
    <glyph glyph-name="Scircumflex" unicode="&#x15c;" horiz-adv-x="279" 
d="M37 35q7 -1 16 -2t17 -1q32 0 56 12.5t40 33.5t24 49t8 58q0 37 -13 70t-33 64.5t-42.5 62t-42.5 63.5t-33 69.5t-13 79.5q0 35 10.5 65t30 51.5t47.5 34t64 12.5q8 0 18 -1t18 -2v-47q-6 2 -14 2.5t-16 0.5q-53 0 -84 -34.5t-31 -87.5q0 -47 20 -85.5t46 -73.5
q26 -37 47 -67t35.5 -59t22.5 -59.5t8 -69.5q0 -38 -11 -72t-32.5 -59.5t-54 -40.5t-74.5 -15q-8 0 -17.5 0.5t-16.5 2.5v45zM141 886l-135 -117v23l135 133l133 -133v-23z" />
    <glyph glyph-name="scircumflex" unicode="&#x15d;" horiz-adv-x="279" 
d="M37 35q7 -1 16 -2t17 -1q32 0 56 12.5t40 33.5t24 49t8 58q0 37 -13 70t-33 64.5t-42.5 62t-42.5 63.5t-33 69.5t-13 79.5q0 35 10.5 65t30 51.5t47.5 34t64 12.5q8 0 18 -1t18 -2v-47q-6 2 -14 2.5t-16 0.5q-53 0 -84 -34.5t-31 -87.5q0 -47 20 -85.5t46 -73.5
q26 -37 47 -67t35.5 -59t22.5 -59.5t8 -69.5q0 -38 -11 -72t-32.5 -59.5t-54 -40.5t-74.5 -15q-8 0 -17.5 0.5t-16.5 2.5v45zM141 886l-135 -117v23l135 133l133 -133v-23z" />
    <glyph glyph-name="Scedilla" unicode="&#x15e;" horiz-adv-x="279" 
d="M37 35q7 -1 16 -2t17 -1q32 0 56 12.5t40 33.5t24 49t8 58q0 37 -13 70t-33 64.5t-42.5 62t-42.5 63.5t-33 69.5t-13 79.5q0 35 10.5 65t30 51.5t47.5 34t64 12.5q8 0 18 -1t18 -2v-47q-6 2 -14 2.5t-16 0.5q-53 0 -84 -34.5t-31 -87.5q0 -47 20 -85.5t46 -73.5
q26 -37 47 -67t35.5 -59t22.5 -59.5t8 -69.5q0 -38 -11 -72t-32.5 -59.5t-54 -40.5t-74.5 -15q-8 0 -17.5 0.5t-16.5 2.5v45zM99 -222l41 135l40 -135h-81z" />
    <glyph glyph-name="scedilla" unicode="&#x15f;" horiz-adv-x="279" 
d="M37 35q7 -1 16 -2t17 -1q32 0 56 12.5t40 33.5t24 49t8 58q0 37 -13 70t-33 64.5t-42.5 62t-42.5 63.5t-33 69.5t-13 79.5q0 35 10.5 65t30 51.5t47.5 34t64 12.5q8 0 18 -1t18 -2v-47q-6 2 -14 2.5t-16 0.5q-53 0 -84 -34.5t-31 -87.5q0 -47 20 -85.5t46 -73.5
q26 -37 47 -67t35.5 -59t22.5 -59.5t8 -69.5q0 -38 -11 -72t-32.5 -59.5t-54 -40.5t-74.5 -15q-8 0 -17.5 0.5t-16.5 2.5v45zM99 -222l41 135l40 -135h-81z" />
    <glyph glyph-name="Scaron" unicode="&#x160;" horiz-adv-x="279" 
d="M37 35q7 -1 16 -2t17 -1q32 0 56 12.5t40 33.5t24 49t8 58q0 37 -13 70t-33 64.5t-42.5 62t-42.5 63.5t-33 69.5t-13 79.5q0 35 10.5 65t30 51.5t47.5 34t64 12.5q8 0 18 -1t18 -2v-47q-6 2 -14 2.5t-16 0.5q-53 0 -84 -34.5t-31 -87.5q0 -47 20 -85.5t46 -73.5
q26 -37 47 -67t35.5 -59t22.5 -59.5t8 -69.5q0 -38 -11 -72t-32.5 -59.5t-54 -40.5t-74.5 -15q-8 0 -17.5 0.5t-16.5 2.5v45zM6 900v25l134 -118l134 118v-25l-134 -131z" />
    <glyph glyph-name="scaron" unicode="&#x161;" horiz-adv-x="279" 
d="M37 35q7 -1 16 -2t17 -1q32 0 56 12.5t40 33.5t24 49t8 58q0 37 -13 70t-33 64.5t-42.5 62t-42.5 63.5t-33 69.5t-13 79.5q0 35 10.5 65t30 51.5t47.5 34t64 12.5q8 0 18 -1t18 -2v-47q-6 2 -14 2.5t-16 0.5q-53 0 -84 -34.5t-31 -87.5q0 -47 20 -85.5t46 -73.5
q26 -37 47 -67t35.5 -59t22.5 -59.5t8 -69.5q0 -38 -11 -72t-32.5 -59.5t-54 -40.5t-74.5 -15q-8 0 -17.5 0.5t-16.5 2.5v45zM6 900v25l134 -118l134 118v-25l-134 -131z" />
    <glyph glyph-name="Tcommaaccent" unicode="&#x162;" horiz-adv-x="299" 
d="M127 0v701h-104v44h251v-44h-104v-701h-43zM109 -222l41 135l40 -135h-81z" />
    <glyph glyph-name="tcommaaccent" unicode="&#x163;" horiz-adv-x="299" 
d="M127 0v701h-104v44h251v-44h-104v-701h-43zM109 -222l41 135l40 -135h-81z" />
    <glyph glyph-name="Tcaron" unicode="&#x164;" horiz-adv-x="299" 
d="M127 0v701h-104v44h251v-44h-104v-701h-43zM16 900v25l134 -118l134 118v-25l-134 -131z" />
    <glyph glyph-name="tcaron" unicode="&#x165;" horiz-adv-x="299" 
d="M127 0v701h-104v44h251v-44h-104v-701h-43zM16 900v25l134 -118l134 118v-25l-134 -131z" />
    <glyph glyph-name="Tbar" unicode="&#x166;" horiz-adv-x="299" 
d="M127 0v300h-93v35h93v366h-104v44h251v-44h-104v-366h94v-35h-94v-300h-43z" />
    <glyph glyph-name="tbar" unicode="&#x167;" horiz-adv-x="299" 
d="M127 0v300h-93v35h93v366h-104v44h251v-44h-104v-366h94v-35h-94v-300h-43z" />
    <glyph glyph-name="Utilde" unicode="&#x168;" horiz-adv-x="377" 
d="M283 745h43v-615q0 -65 -33.5 -104t-104.5 -39t-105 39t-34 104v615h45v-614q0 -46 23 -73.5t71 -27.5q49 0 72 27.5t23 73.5v614zM317 837q-25 -27 -67 -27q-17 0 -32.5 6t-30 12.5t-29.5 12.5t-32 6q-42 0 -67 -33v33q27 27 68 27q17 0 32.5 -6t30 -12.5t29.5 -12.5
t32 -6q40 0 66 33v-33z" />
    <glyph glyph-name="utilde" unicode="&#x169;" horiz-adv-x="377" 
d="M283 745h43v-615q0 -65 -33.5 -104t-104.5 -39t-105 39t-34 104v615h45v-614q0 -46 23 -73.5t71 -27.5q49 0 72 27.5t23 73.5v614zM317 837q-25 -27 -67 -27q-17 0 -32.5 6t-30 12.5t-29.5 12.5t-32 6q-42 0 -67 -33v33q27 27 68 27q17 0 32.5 -6t30 -12.5t29.5 -12.5
t32 -6q40 0 66 33v-33z" />
    <glyph glyph-name="Umacron" unicode="&#x16a;" horiz-adv-x="377" 
d="M283 745h43v-615q0 -65 -33.5 -104t-104.5 -39t-105 39t-34 104v615h45v-614q0 -46 23 -73.5t71 -27.5q49 0 72 27.5t23 73.5v614zM59 828v29h258v-29h-258z" />
    <glyph glyph-name="umacron" unicode="&#x16b;" horiz-adv-x="377" 
d="M283 745h43v-615q0 -65 -33.5 -104t-104.5 -39t-105 39t-34 104v615h45v-614q0 -46 23 -73.5t71 -27.5q49 0 72 27.5t23 73.5v614zM59 828v29h258v-29h-258z" />
    <glyph glyph-name="Ubreve" unicode="&#x16c;" horiz-adv-x="377" 
d="M283 745h43v-615q0 -65 -33.5 -104t-104.5 -39t-105 39t-34 104v615h45v-614q0 -46 23 -73.5t71 -27.5q49 0 72 27.5t23 73.5v614zM340 925q-6 -73 -45 -114.5t-105 -41.5q-67 0 -106 41.5t-46 114.5h27q8 -63 40 -95.5t85 -32.5q52 0 84 32.5t40 95.5h26z" />
    <glyph glyph-name="ubreve" unicode="&#x16d;" horiz-adv-x="377" 
d="M283 745h43v-615q0 -65 -33.5 -104t-104.5 -39t-105 39t-34 104v615h45v-614q0 -46 23 -73.5t71 -27.5q49 0 72 27.5t23 73.5v614zM340 925q-6 -73 -45 -114.5t-105 -41.5q-67 0 -106 41.5t-46 114.5h27q8 -63 40 -95.5t85 -32.5q52 0 84 32.5t40 95.5h26z" />
    <glyph glyph-name="Uring" unicode="&#x16e;" horiz-adv-x="377" 
d="M283 745h43v-615q0 -65 -33.5 -104t-104.5 -39t-105 39t-34 104v615h45v-614q0 -46 23 -73.5t71 -27.5q49 0 72 27.5t23 73.5v614zM189 748q-29 0 -46 8t-26 21t-12 28.5t-3 30.5t3 31t12 28.5t26 21t46 8.5q28 0 45 -8.5t26 -21t11.5 -28.5t2.5 -31t-2.5 -30.5
t-11.5 -28.5t-26 -21t-45 -8zM189 765q22 0 34.5 6.5t19.5 16.5t9 23t2 25t-2 25t-9 23t-19.5 16.5t-34.5 6.5t-35 -6.5t-20 -16.5t-9 -23t-2 -25t2 -25t9 -23t20 -16.5t35 -6.5z" />
    <glyph glyph-name="uring" unicode="&#x16f;" horiz-adv-x="377" 
d="M283 745h43v-615q0 -65 -33.5 -104t-104.5 -39t-105 39t-34 104v615h45v-614q0 -46 23 -73.5t71 -27.5q49 0 72 27.5t23 73.5v614zM189 748q-29 0 -46 8t-26 21t-12 28.5t-3 30.5t3 31t12 28.5t26 21t46 8.5q28 0 45 -8.5t26 -21t11.5 -28.5t2.5 -31t-2.5 -30.5
t-11.5 -28.5t-26 -21t-45 -8zM189 765q22 0 34.5 6.5t19.5 16.5t9 23t2 25t-2 25t-9 23t-19.5 16.5t-34.5 6.5t-35 -6.5t-20 -16.5t-9 -23t-2 -25t2 -25t9 -23t20 -16.5t35 -6.5z" />
    <glyph glyph-name="Uhungarumlaut" unicode="&#x170;" horiz-adv-x="377" 
d="M283 745h43v-615q0 -65 -33.5 -104t-104.5 -39t-105 39t-34 104v615h45v-614q0 -46 23 -73.5t71 -27.5q49 0 72 27.5t23 73.5v614zM258 769l56 156h30l-61 -156h-25zM84 769l56 156h31l-61 -156h-26z" />
    <glyph glyph-name="uhungarumlaut" unicode="&#x171;" horiz-adv-x="377" 
d="M283 745h43v-615q0 -65 -33.5 -104t-104.5 -39t-105 39t-34 104v615h45v-614q0 -46 23 -73.5t71 -27.5q49 0 72 27.5t23 73.5v614zM258 769l56 156h30l-61 -156h-25zM84 769l56 156h31l-61 -156h-26z" />
    <glyph glyph-name="Uogonek" unicode="&#x172;" horiz-adv-x="377" 
d="M285 -206q-8 -7 -29 -11.5t-47 -4.5q-51 0 -84.5 22.5t-33.5 71.5q0 22 8 39.5t21 32t30.5 25t35.5 18.5q-70 1 -103.5 39.5t-33.5 103.5v615h45v-614q0 -46 23 -73.5t71 -27.5q49 0 72 27.5t23 73.5v614h43v-615q0 -51 -20 -86t-65 -49q-50 -16 -84 -42.5t-34 -64.5
t24 -56t64 -18q47 0 74 15v-35z" />
    <glyph glyph-name="uogonek" unicode="&#x173;" horiz-adv-x="377" 
d="M285 -206q-8 -7 -29 -11.5t-47 -4.5q-51 0 -84.5 22.5t-33.5 71.5q0 22 8 39.5t21 32t30.5 25t35.5 18.5q-70 1 -103.5 39.5t-33.5 103.5v615h45v-614q0 -46 23 -73.5t71 -27.5q49 0 72 27.5t23 73.5v614h43v-615q0 -51 -20 -86t-65 -49q-50 -16 -84 -42.5t-34 -64.5
t24 -56t64 -18q47 0 74 15v-35z" />
    <glyph glyph-name="Wcircumflex" unicode="&#x174;" horiz-adv-x="556" 
d="M278 556l-103 -625l-160 814h47l110 -592l106 661l106 -661l110 592h46l-159 -814zM279 886l-135 -117v23l135 133l133 -133v-23z" />
    <glyph glyph-name="wcircumflex" unicode="&#x175;" horiz-adv-x="556" 
d="M278 556l-103 -625l-160 814h47l110 -592l106 661l106 -661l110 592h46l-159 -814zM279 886l-135 -117v23l135 133l133 -133v-23z" />
    <glyph glyph-name="Ycircumflex" unicode="&#x176;" horiz-adv-x="330" 
d="M144 0v446l-132 299h44l111 -256l109 256h42l-130 -299v-446h-44zM166 886l-135 -117v23l135 133l133 -133v-23z" />
    <glyph glyph-name="ycircumflex" unicode="&#x177;" horiz-adv-x="330" 
d="M144 0v446l-132 299h44l111 -256l109 256h42l-130 -299v-446h-44zM166 886l-135 -117v23l135 133l133 -133v-23z" />
    <glyph glyph-name="Ydieresis" unicode="&#x178;" horiz-adv-x="330" 
d="M144 0v446l-132 299h44l111 -256l109 256h42l-130 -299v-446h-44zM252 798q-30 0 -30 38q0 37 30 37t30 -37q0 -38 -30 -38zM78 798q-29 0 -29 38q0 37 29 37q30 0 30 -37q0 -38 -30 -38z" />
    <glyph glyph-name="Zacute" unicode="&#x179;" horiz-adv-x="287" 
d="M25 0l186 701h-186v44h237l-181 -704h181v-41h-237zM37 777v20l212 97v-36z" />
    <glyph glyph-name="zacute" unicode="&#x17a;" horiz-adv-x="287" 
d="M25 0l186 701h-186v44h237l-181 -704h181v-41h-237zM37 777v20l212 97v-36z" />
    <glyph glyph-name="Zdotaccent" unicode="&#x17b;" horiz-adv-x="287" 
d="M25 0l186 701h-186v44h237l-181 -704h181v-41h-237zM142 798q-29 0 -29 38q0 37 29 37q31 0 31 -37q0 -38 -31 -38z" />
    <glyph glyph-name="zdotaccent" unicode="&#x17c;" horiz-adv-x="287" 
d="M25 0l186 701h-186v44h237l-181 -704h181v-41h-237zM142 798q-29 0 -29 38q0 37 29 37q31 0 31 -37q0 -38 -31 -38z" />
    <glyph glyph-name="Zcaron" unicode="&#x17d;" horiz-adv-x="287" 
d="M25 0l186 701h-186v44h237l-181 -704h181v-41h-237zM10 900v25l134 -118l134 118v-25l-134 -131z" />
    <glyph glyph-name="zcaron" unicode="&#x17e;" horiz-adv-x="287" 
d="M25 0l186 701h-186v44h237l-181 -704h181v-41h-237zM10 900v25l134 -118l134 118v-25l-134 -131z" />
    <glyph glyph-name="florin" unicode="&#x192;" horiz-adv-x="361" 
d="M15 -75v40h22q37 0 59.5 18t27.5 63l47 486h-85v37h89l6 59q6 68 38 92t89 24h22v-40h-25q-35 0 -57 -18t-26 -59l-5 -58h89v-37h-93l-47 -491q-7 -69 -39 -92.5t-88 -23.5h-24z" />
    <glyph glyph-name="Ohorn" unicode="&#x1a0;" horiz-adv-x="427" 
d="M47 615q0 65 34 104t105 39t104.5 -39t33.5 -104v-30q3 -1 9 -2t9 -1q31 1 49.5 23.5t18.5 64.5q0 48 -15 75h35q7 -8 11.5 -29.5t4.5 -47.5q0 -52 -24 -84.5t-70 -32.5q-15 0 -28 3v-424q0 -65 -33.5 -104t-104.5 -39t-105 39t-34 104v485zM280 604q0 23 -4.5 43t-15 35
t-29 23.5t-45.5 8.5t-45.5 -8.5t-29.5 -23.5t-15.5 -35t-4.5 -43v-464q0 -23 4.5 -43t15.5 -35t29.5 -23.5t45.5 -8.5t45.5 8.5t29 23.5t15 35t4.5 43v464z" />
    <glyph glyph-name="ohorn" unicode="&#x1a1;" horiz-adv-x="427" 
d="M47 615q0 65 34 104t105 39t104.5 -39t33.5 -104v-30q3 -1 9 -2t9 -1q31 1 49.5 23.5t18.5 64.5q0 48 -15 75h35q7 -8 11.5 -29.5t4.5 -47.5q0 -52 -24 -84.5t-70 -32.5q-15 0 -28 3v-424q0 -65 -33.5 -104t-104.5 -39t-105 39t-34 104v485zM280 604q0 23 -4.5 43t-15 35
t-29 23.5t-45.5 8.5t-45.5 -8.5t-29.5 -23.5t-15.5 -35t-4.5 -43v-464q0 -23 4.5 -43t15.5 -35t29.5 -23.5t45.5 -8.5t45.5 8.5t29 23.5t15 35t4.5 43v464z" />
    <glyph glyph-name="Uhorn" unicode="&#x1af;" horiz-adv-x="446" 
d="M283 745h43v-157q15 -5 30 -5q37 0 55 24t18 63q0 50 -15 75h36q7 -8 11.5 -29.5t4.5 -47.5q0 -51 -22.5 -84t-72.5 -33q-23 0 -45 10v-431q0 -65 -33.5 -104t-104.5 -39t-105 39t-34 104v615h45v-614q0 -46 23 -73.5t71 -27.5q49 0 72 27.5t23 73.5v614z" />
    <glyph glyph-name="uhorn" unicode="&#x1b0;" horiz-adv-x="446" 
d="M283 745h43v-157q15 -5 30 -5q37 0 55 24t18 63q0 50 -15 75h36q7 -8 11.5 -29.5t4.5 -47.5q0 -51 -22.5 -84t-72.5 -33q-23 0 -45 10v-431q0 -65 -33.5 -104t-104.5 -39t-105 39t-34 104v615h45v-614q0 -46 23 -73.5t71 -27.5q49 0 72 27.5t23 73.5v614z" />
    <glyph glyph-name="Scommaaccent" unicode="&#x218;" horiz-adv-x="279" 
d="M37 35q7 -1 16 -2t17 -1q32 0 56 12.5t40 33.5t24 49t8 58q0 37 -13 70t-33 64.5t-42.5 62t-42.5 63.5t-33 69.5t-13 79.5q0 35 10.5 65t30 51.5t47.5 34t64 12.5q8 0 18 -1t18 -2v-47q-6 2 -14 2.5t-16 0.5q-53 0 -84 -34.5t-31 -87.5q0 -47 20 -85.5t46 -73.5
q26 -37 47 -67t35.5 -59t22.5 -59.5t8 -69.5q0 -38 -11 -72t-32.5 -59.5t-54 -40.5t-74.5 -15q-8 0 -17.5 0.5t-16.5 2.5v45zM99 -222l41 135l40 -135h-81z" />
    <glyph glyph-name="scommaaccent" unicode="&#x219;" horiz-adv-x="279" 
d="M37 35q7 -1 16 -2t17 -1q32 0 56 12.5t40 33.5t24 49t8 58q0 37 -13 70t-33 64.5t-42.5 62t-42.5 63.5t-33 69.5t-13 79.5q0 35 10.5 65t30 51.5t47.5 34t64 12.5q8 0 18 -1t18 -2v-47q-6 2 -14 2.5t-16 0.5q-53 0 -84 -34.5t-31 -87.5q0 -47 20 -85.5t46 -73.5
q26 -37 47 -67t35.5 -59t22.5 -59.5t8 -69.5q0 -38 -11 -72t-32.5 -59.5t-54 -40.5t-74.5 -15q-8 0 -17.5 0.5t-16.5 2.5v45zM99 -222l41 135l40 -135h-81z" />
    <glyph glyph-name="uni021A" unicode="&#x21a;" horiz-adv-x="299" 
d="M127 0v701h-104v44h251v-44h-104v-701h-43zM109 -222l41 135l40 -135h-81z" />
    <glyph glyph-name="uni021B" unicode="&#x21b;" horiz-adv-x="299" 
d="M127 0v701h-104v44h251v-44h-104v-701h-43zM109 -222l41 135l40 -135h-81z" />
    <glyph glyph-name="circumflex" unicode="&#x2c6;" horiz-adv-x="369" 
d="M184 886l-135 -117v23l135 133l133 -133v-23z" />
    <glyph glyph-name="caron" unicode="&#x2c7;" horiz-adv-x="369" 
d="M49 900v25l134 -118l134 118v-25l-134 -131z" />
    <glyph glyph-name="uni02C9" unicode="&#x2c9;" horiz-adv-x="357" 
d="M49 828v29h258v-29h-258z" />
    <glyph glyph-name="breve" unicode="&#x2d8;" horiz-adv-x="402" 
d="M351 925q-6 -73 -45 -114.5t-105 -41.5q-67 0 -106 41.5t-46 114.5h27q8 -63 40 -95.5t85 -32.5q52 0 84 32.5t40 95.5h26z" />
    <glyph glyph-name="dotaccent" unicode="&#x2d9;" horiz-adv-x="167" 
d="M82 798q-29 0 -29 38q0 37 29 37q31 0 31 -37q0 -38 -31 -38z" />
    <glyph glyph-name="ring" unicode="&#x2da;" horiz-adv-x="272" 
d="M136 748q-29 0 -46 8t-26 21t-12 28.5t-3 30.5t3 31t12 28.5t26 21t46 8.5q28 0 45 -8.5t26 -21t11.5 -28.5t2.5 -31t-2.5 -30.5t-11.5 -28.5t-26 -21t-45 -8zM136 765q22 0 34.5 6.5t19.5 16.5t9 23t2 25t-2 25t-9 23t-19.5 16.5t-34.5 6.5t-35 -6.5t-20 -16.5t-9 -23
t-2 -25t2 -25t9 -23t20 -16.5t35 -6.5z" />
    <glyph glyph-name="ogonek" unicode="&#x2db;" horiz-adv-x="255" 
d="M227 -206q-8 -7 -29 -11.5t-47 -4.5q-51 0 -84.5 22.5t-33.5 71.5q0 32 15.5 55t38.5 38t50 23.5t51 11.5h39q-34 -5 -63.5 -14.5t-51.5 -23t-34.5 -32t-12.5 -42.5q0 -38 24 -56t64 -18q47 0 74 15v-35z" />
    <glyph glyph-name="tilde" unicode="&#x2dc;" horiz-adv-x="358" 
d="M307 837q-25 -27 -67 -27q-17 0 -32.5 6t-30 12.5t-29.5 12.5t-32 6q-42 0 -67 -33v33q27 27 68 27q17 0 32.5 -6t30 -12.5t29.5 -12.5t32 -6q40 0 66 33v-33z" />
    <glyph glyph-name="hungarumlaut" unicode="&#x2dd;" horiz-adv-x="360" 
d="M195 769l56 156h30l-61 -156h-25zM21 769l56 156h31l-61 -156h-26z" />
    <glyph glyph-name="gravecomb" unicode="&#x300;" horiz-adv-x="20" 
d="M-200 858v36l212 -97v-20z" />
    <glyph glyph-name="acutecomb" unicode="&#x301;" horiz-adv-x="20" 
d="M-254 777v20l212 97v-36z" />
    <glyph glyph-name="uni0302" unicode="&#x302;" horiz-adv-x="20" 
d="M-144 886l-135 -117v23l135 133l133 -133v-23z" />
    <glyph glyph-name="tildecomb" unicode="&#x303;" horiz-adv-x="347" 
d="M173 876l-116 -107v23l116 123l116 -123v-23zM295 939q-11 -11 -27.5 -17t-36.5 -6q-17 0 -31.5 5.5t-28.5 11.5t-28 11.5t-30 5.5q-21 0 -36.5 -8t-26.5 -22v27q12 11 28 18t35 7q16 0 31 -5.5t29.5 -12t29 -12t30.5 -5.5q20 0 35 7.5t27 21.5v-27z" />
    <glyph glyph-name="hookabovecomb" unicode="&#x309;" horiz-adv-x="226" 
d="M89 769q1 21 10 32t19.5 20t19 19t8.5 28q0 12 -10 23t-38 11q-17 0 -45 -7v23q13 5 24.5 6t22.5 1q39 0 55.5 -16.5t16.5 -38.5q0 -23 -9 -35t-20.5 -21t-20.5 -18t-9 -27h-24z" />
    <glyph glyph-name="dotbelowcomb" unicode="&#x323;" horiz-adv-x="167" 
d="M82 -197q-29 0 -29 38q0 37 29 37q31 0 31 -37q0 -38 -31 -38z" />
    <glyph glyph-name="uni037E" unicode="&#x37e;" horiz-adv-x="168" 
d="M62 -57l19 53q-13 1 -21.5 9.5t-8.5 27.5q0 41 33 41q34 0 34 -41q0 -15 -7 -35l-23 -55h-26zM84 360q-33 0 -33 42t33 42q34 0 34 -42t-34 -42z" />
    <glyph glyph-name="Delta" unicode="&#x394;" horiz-adv-x="367" 
d="M15 0l167 814l168 -814h-335zM182 628l-115 -587h231z" />
    <glyph glyph-name="Omega" unicode="&#x3a9;" horiz-adv-x="444" 
d="M258 0v47q22 23 41 60.5t33 85.5t22 103.5t8 115.5q0 73 -3.5 129t-17 94t-42 57.5t-77.5 19.5q-50 0 -78.5 -19.5t-42.5 -57.5t-17.5 -94t-3.5 -129q0 -60 8 -115.5t22 -103.5t33 -85.5t41 -60.5v-47h-141v41h113q-21 18 -43 55t-39.5 87.5t-29 113t-11.5 131.5
q0 76 4 137t22.5 104t56.5 66t106 23q67 0 105 -23t56 -66t22 -104t4 -137q0 -69 -11.5 -131.5t-29 -113t-39 -87.5t-42.5 -55h113v-41h-142z" />
    <glyph glyph-name="uni03BC" unicode="&#x3bc;" horiz-adv-x="385" 
d="M294 0v88q-6 -24 -14 -42.5t-20 -31t-29.5 -19t-43.5 -6.5q-13 0 -27.5 2.5t-28 9.5t-24 19.5t-15.5 32.5v-250h-43v744h43v-395q0 -36 8.5 -59.5t22 -37t31.5 -19t36 -5.5q19 0 34 4.5t27.5 17t22 34t17.5 56.5v404h42v-547h-39z" />
    <glyph glyph-name="pi" unicode="&#x3c0;" horiz-adv-x="432" 
d="M413 12q-11 -8 -29 -12t-40 -4q-106 0 -106 133v374h-146v-503h-43v547h231v-414q0 -30 5.5 -50t16 -31t25.5 -15.5t33 -4.5q14 0 27.5 2.5t25.5 12.5v-35z" />
    <glyph glyph-name="Wgrave" unicode="&#x1e80;" horiz-adv-x="556" 
d="M279 805l105 -652l110 592h46l-159 -814l-103 625l-103 -625l-160 814h47l110 -592l105 653l-135 52v36l212 -97v-20z" />
    <glyph glyph-name="wgrave" unicode="&#x1e81;" horiz-adv-x="556" 
d="M279 805l105 -652l110 592h46l-159 -814l-103 625l-103 -625l-160 814h47l110 -592l105 653l-135 52v36l212 -97v-20z" />
    <glyph glyph-name="Wacute" unicode="&#x1e82;" horiz-adv-x="556" 
d="M279 806l105 -653l110 592h46l-159 -814l-103 625l-103 -625l-160 814h47l110 -592l104 652l-74 -28v20l212 97v-36z" />
    <glyph glyph-name="wacute" unicode="&#x1e83;" horiz-adv-x="556" 
d="M279 806l105 -653l110 592h46l-159 -814l-103 625l-103 -625l-160 814h47l110 -592l104 652l-74 -28v20l212 97v-36z" />
    <glyph glyph-name="Wdieresis" unicode="&#x1e84;" horiz-adv-x="556" 
d="M278 556l-103 -625l-160 814h47l110 -592l106 661l106 -661l110 592h46l-159 -814zM364 798q-30 0 -30 38q0 37 30 37t30 -37q0 -38 -30 -38zM190 798q-29 0 -29 38q0 37 29 37q30 0 30 -37q0 -38 -30 -38z" />
    <glyph glyph-name="wdieresis" unicode="&#x1e85;" horiz-adv-x="556" 
d="M278 556l-103 -625l-160 814h47l110 -592l106 661l106 -661l110 592h46l-159 -814zM364 798q-30 0 -30 38q0 37 30 37t30 -37q0 -38 -30 -38zM190 798q-29 0 -29 38q0 37 29 37q30 0 30 -37q0 -38 -30 -38z" />
    <glyph glyph-name="uni1EA0" unicode="&#x1ea0;" 
d="M315 0l-18 86h-218l-16 -86h-48l174 814l173 -814h-47zM189 627l-102 -503h203zM188 -197q-29 0 -29 38q0 37 29 37q31 0 31 -37q0 -38 -31 -38z" />
    <glyph glyph-name="uni1EA1" unicode="&#x1ea1;" 
d="M315 0l-18 86h-218l-16 -86h-48l174 814l173 -814h-47zM189 627l-102 -503h203zM188 -197q-29 0 -29 38q0 37 29 37q31 0 31 -37q0 -38 -31 -38z" />
    <glyph glyph-name="uni1EA2" unicode="&#x1ea2;" 
d="M362 0h-47l-18 86h-218l-16 -86h-48l163 764q1 23 9.5 35t19 21.5t19 19.5t8.5 28q0 12 -10 23t-38 11q-17 0 -45 -7v23q13 5 24.5 6t22.5 1q39 0 55.5 -16.5t16.5 -38.5q0 -23 -9.5 -35t-21 -21.5t-21 -20t-9.5 -29.5zM189 627l-102 -503h203z" />
    <glyph glyph-name="uni1EA3" unicode="&#x1ea3;" 
d="M362 0h-47l-18 86h-218l-16 -86h-48l163 764q1 23 9.5 35t19 21.5t19 19.5t8.5 28q0 12 -10 23t-38 11q-17 0 -45 -7v23q13 5 24.5 6t22.5 1q39 0 55.5 -16.5t16.5 -38.5q0 -23 -9.5 -35t-21 -21.5t-21 -20t-9.5 -29.5zM189 627l-102 -503h203z" />
    <glyph glyph-name="uni1EA4" unicode="&#x1ea4;" 
d="M315 0l-18 86h-218l-16 -86h-48l174 814l173 -814h-47zM189 627l-102 -503h203zM275 855v19l167 98v-37zM188 876l-116 -107v23l116 123l117 -123v-23z" />
    <glyph glyph-name="uni1EA5" unicode="&#x1ea5;" 
d="M315 0l-18 86h-218l-16 -86h-48l174 814l173 -814h-47zM189 627l-102 -503h203zM275 855v19l167 98v-37zM188 876l-116 -107v23l116 123l117 -123v-23z" />
    <glyph glyph-name="uni1EA6" unicode="&#x1ea6;" 
d="M315 0l-18 86h-218l-16 -86h-48l174 814l173 -814h-47zM189 627l-102 -503h203zM-65 935v37l167 -98v-19zM189 876l-116 -107v23l116 123l116 -123v-23z" />
    <glyph glyph-name="uni1EA7" unicode="&#x1ea7;" 
d="M315 0l-18 86h-218l-16 -86h-48l174 814l173 -814h-47zM189 627l-102 -503h203zM-65 935v37l167 -98v-19zM189 876l-116 -107v23l116 123l116 -123v-23z" />
    <glyph glyph-name="uni1EA8" unicode="&#x1ea8;" 
d="M315 0l-18 86h-218l-16 -86h-48l174 814l173 -814h-47zM189 627l-102 -503h203zM325 816q1 21 10 32t19.5 20t19 19t8.5 28q0 12 -9.5 23t-38.5 11q-17 0 -45 -7v23q13 5 24.5 6t22.5 1q39 0 55.5 -16.5t16.5 -38.5q0 -23 -9 -35t-20.5 -21t-20.5 -18t-9 -27h-24z
M188 876l-116 -107v23l116 123l117 -123v-23z" />
    <glyph glyph-name="uni1EA9" unicode="&#x1ea9;" 
d="M315 0l-18 86h-218l-16 -86h-48l174 814l173 -814h-47zM189 627l-102 -503h203zM325 816q1 21 10 32t19.5 20t19 19t8.5 28q0 12 -9.5 23t-38.5 11q-17 0 -45 -7v23q13 5 24.5 6t22.5 1q39 0 55.5 -16.5t16.5 -38.5q0 -23 -9 -35t-20.5 -21t-20.5 -18t-9 -27h-24z
M188 876l-116 -107v23l116 123l117 -123v-23z" />
    <glyph glyph-name="uni1EAA" unicode="&#x1eaa;" 
d="M315 0l-18 86h-218l-16 -86h-48l174 814l173 -814h-47zM189 627l-102 -503h203zM189 876l-116 -107v23l116 123l116 -123v-23zM311 939q-11 -11 -27.5 -17t-36.5 -6q-17 0 -31.5 5.5t-28.5 11.5t-28 11.5t-30 5.5q-21 0 -36.5 -8t-26.5 -22v27q12 11 28 18t35 7
q16 0 31 -5.5t29.5 -12t29 -12t30.5 -5.5q20 0 35 7.5t27 21.5v-27z" />
    <glyph glyph-name="uni1EAB" unicode="&#x1eab;" 
d="M315 0l-18 86h-218l-16 -86h-48l174 814l173 -814h-47zM189 627l-102 -503h203zM189 876l-116 -107v23l116 123l116 -123v-23zM311 939q-11 -11 -27.5 -17t-36.5 -6q-17 0 -31.5 5.5t-28.5 11.5t-28 11.5t-30 5.5q-21 0 -36.5 -8t-26.5 -22v27q12 11 28 18t35 7
q16 0 31 -5.5t29.5 -12t29 -12t30.5 -5.5q20 0 35 7.5t27 21.5v-27z" />
    <glyph glyph-name="uni1EAC" unicode="&#x1eac;" 
d="M315 0l-18 86h-218l-16 -86h-48l174 814l173 -814h-47zM189 627l-102 -503h203zM190 886l-135 -117v23l135 133l133 -133v-23zM188 -197q-29 0 -29 38q0 37 29 37q31 0 31 -37q0 -38 -31 -38z" />
    <glyph glyph-name="uni1EAD" unicode="&#x1ead;" 
d="M315 0l-18 86h-218l-16 -86h-48l174 814l173 -814h-47zM189 627l-102 -503h203zM190 886l-135 -117v23l135 133l133 -133v-23zM188 -197q-29 0 -29 38q0 37 29 37q31 0 31 -37q0 -38 -31 -38z" />
    <glyph glyph-name="uni1EAE" unicode="&#x1eae;" 
d="M313 894q-5 -57 -34.5 -89.5t-80.5 -35.5l164 -769h-47l-18 86h-218l-16 -86h-48l165 769q-51 3 -80.5 35.5t-34.5 89.5h23q7 -53 33 -77t68 -24t68 24t33 77h23zM189 627l-102 -503h203zM143 853v20l158 99v-30z" />
    <glyph glyph-name="uni1EAF" unicode="&#x1eaf;" 
d="M313 894q-5 -57 -34.5 -89.5t-80.5 -35.5l164 -769h-47l-18 86h-218l-16 -86h-48l165 769q-51 3 -80.5 35.5t-34.5 89.5h23q7 -53 33 -77t68 -24t68 24t33 77h23zM189 627l-102 -503h203zM143 853v20l158 99v-30z" />
    <glyph glyph-name="uni1EB0" unicode="&#x1eb0;" 
d="M313 894q-6 -57 -35 -89.5t-80 -35.5l164 -769h-47l-18 86h-218l-16 -86h-48l164 769q-50 3 -79.5 35.5t-34.5 89.5h23q7 -53 33 -77t68 -24t68 24.5t33 76.5h23zM189 627l-102 -503h203zM78 942v30l157 -99v-20z" />
    <glyph glyph-name="uni1EB1" unicode="&#x1eb1;" 
d="M313 894q-6 -57 -35 -89.5t-80 -35.5l164 -769h-47l-18 86h-218l-16 -86h-48l164 769q-50 3 -79.5 35.5t-34.5 89.5h23q7 -53 33 -77t68 -24t68 24.5t33 76.5h23zM189 627l-102 -503h203zM78 942v30l157 -99v-20z" />
    <glyph glyph-name="uni1EB2" unicode="&#x1eb2;" 
d="M312 894q-5 -57 -34.5 -89.5t-79.5 -35.5l164 -769h-47l-18 86h-218l-16 -86h-48l165 769q-51 3 -80.5 35.5t-34.5 89.5h23q7 -53 33 -77.5t68 -24.5t68 25t33 77h22zM189 627l-102 -503h203zM169 825q0 20 8.5 30t18.5 18t18.5 17.5t8.5 28.5q0 12 -9.5 22.5t-36.5 10.5
q-8 0 -18 -1.5t-24 -6.5v21q12 5 22.5 6t21.5 1q37 0 52.5 -16t15.5 -36q0 -22 -9 -33.5t-19.5 -19.5t-19 -17t-8.5 -25h-22z" />
    <glyph glyph-name="uni1EB3" unicode="&#x1eb3;" 
d="M312 894q-5 -57 -34.5 -89.5t-79.5 -35.5l164 -769h-47l-18 86h-218l-16 -86h-48l165 769q-51 3 -80.5 35.5t-34.5 89.5h23q7 -53 33 -77.5t68 -24.5t68 25t33 77h22zM189 627l-102 -503h203zM169 825q0 20 8.5 30t18.5 18t18.5 17.5t8.5 28.5q0 12 -9.5 22.5t-36.5 10.5
q-8 0 -18 -1.5t-24 -6.5v21q12 5 22.5 6t21.5 1q37 0 52.5 -16t15.5 -36q0 -22 -9 -33.5t-19.5 -19.5t-19 -17t-8.5 -25h-22z" />
    <glyph glyph-name="uni1EB4" unicode="&#x1eb4;" 
d="M313 894q-6 -57 -35 -89.5t-80 -35.5l164 -769h-47l-18 86h-218l-16 -86h-48l164 769q-50 3 -79.5 35.5t-34.5 89.5h23q7 -53 33 -77t68 -24t68 24.5t33 76.5h23zM189 627l-102 -503h203zM313 939q-11 -11 -27.5 -17t-36.5 -6q-17 0 -32 5.5t-29.5 11.5t-29 11.5
t-30.5 5.5q-21 0 -36.5 -8t-26.5 -22v27q12 11 28.5 18t35.5 7q16 0 31 -5.5t30 -12t30 -12t31 -5.5q20 0 35 7.5t27 21.5v-27z" />
    <glyph glyph-name="uni1EB5" unicode="&#x1eb5;" 
d="M313 894q-6 -57 -35 -89.5t-80 -35.5l164 -769h-47l-18 86h-218l-16 -86h-48l164 769q-50 3 -79.5 35.5t-34.5 89.5h23q7 -53 33 -77t68 -24t68 24.5t33 76.5h23zM189 627l-102 -503h203zM313 939q-11 -11 -27.5 -17t-36.5 -6q-17 0 -32 5.5t-29.5 11.5t-29 11.5
t-30.5 5.5q-21 0 -36.5 -8t-26.5 -22v27q12 11 28.5 18t35.5 7q16 0 31 -5.5t30 -12t30 -12t31 -5.5q20 0 35 7.5t27 21.5v-27z" />
    <glyph glyph-name="uni1EB6" unicode="&#x1eb6;" 
d="M340 925q-6 -71 -42.5 -112.5t-99.5 -43.5l164 -769h-47l-18 86h-218l-16 -86h-48l164 769q-62 4 -98.5 45t-42.5 111h27q8 -63 40 -95.5t85 -32.5q52 0 84 32.5t40 95.5h26zM189 627l-102 -503h203zM188 -197q-29 0 -29 38q0 37 29 37q31 0 31 -37q0 -38 -31 -38z" />
    <glyph glyph-name="uni1EB7" unicode="&#x1eb7;" 
d="M340 925q-6 -71 -42.5 -112.5t-99.5 -43.5l164 -769h-47l-18 86h-218l-16 -86h-48l164 769q-62 4 -98.5 45t-42.5 111h27q8 -63 40 -95.5t85 -32.5q52 0 84 32.5t40 95.5h26zM189 627l-102 -503h203zM188 -197q-29 0 -29 38q0 37 29 37q31 0 31 -37q0 -38 -31 -38z" />
    <glyph glyph-name="uni1EB8" unicode="&#x1eb8;" horiz-adv-x="293" 
d="M48 0v172h-38l-8 34h46v539h207v-44h-163v-495h149v-34h-149v-131h170v-41h-214zM157 -197q-29 0 -29 38q0 37 29 37q31 0 31 -37q0 -38 -31 -38z" />
    <glyph glyph-name="uni1EB9" unicode="&#x1eb9;" horiz-adv-x="293" 
d="M48 0v172h-38l-8 34h46v539h207v-44h-163v-495h149v-34h-149v-131h170v-41h-214zM157 -197q-29 0 -29 38q0 37 29 37q31 0 31 -37q0 -38 -31 -38z" />
    <glyph glyph-name="uni1EBA" unicode="&#x1eba;" horiz-adv-x="293" 
d="M48 0v172h-38l-8 34h46v539h207v-44h-163v-495h149v-34h-149v-131h170v-41h-214zM134 769q1 21 10 32t19.5 20t19 19t8.5 28q0 12 -10 23t-38 11q-17 0 -45 -7v23q13 5 24.5 6t22.5 1q39 0 55.5 -16.5t16.5 -38.5q0 -23 -9 -35t-20.5 -21t-20.5 -18t-9 -27h-24z" />
    <glyph glyph-name="uni1EBB" unicode="&#x1ebb;" horiz-adv-x="293" 
d="M48 0v172h-38l-8 34h46v539h207v-44h-163v-495h149v-34h-149v-131h170v-41h-214zM134 769q1 21 10 32t19.5 20t19 19t8.5 28q0 12 -10 23t-38 11q-17 0 -45 -7v23q13 5 24.5 6t22.5 1q39 0 55.5 -16.5t16.5 -38.5q0 -23 -9 -35t-20.5 -21t-20.5 -18t-9 -27h-24z" />
    <glyph glyph-name="uni1EBC" unicode="&#x1ebc;" horiz-adv-x="293" 
d="M48 0v172h-38l-8 34h46v539h207v-44h-163v-495h149v-34h-149v-131h170v-41h-214zM283 837q-25 -27 -67 -27q-17 0 -32.5 6t-30 12.5t-29.5 12.5t-32 6q-41 0 -67 -33v33q27 27 68 27q17 0 32.5 -6t30 -12.5t29.5 -12.5t32 -6q40 0 66 33v-33z" />
    <glyph glyph-name="uni1EBD" unicode="&#x1ebd;" horiz-adv-x="293" 
d="M48 0v172h-38l-8 34h46v539h207v-44h-163v-495h149v-34h-149v-131h170v-41h-214zM283 837q-25 -27 -67 -27q-17 0 -32.5 6t-30 12.5t-29.5 12.5t-32 6q-41 0 -67 -33v33q27 27 68 27q17 0 32.5 -6t30 -12.5t29.5 -12.5t32 -6q40 0 66 33v-33z" />
    <glyph glyph-name="uni1EBE" unicode="&#x1ebe;" horiz-adv-x="293" 
d="M48 0v172h-38l-8 34h46v539h207v-44h-163v-495h149v-34h-149v-131h170v-41h-214zM235 855v19l167 98v-37zM148 876l-116 -107v23l116 123l117 -123v-23z" />
    <glyph glyph-name="uni1EBF" unicode="&#x1ebf;" horiz-adv-x="293" 
d="M48 0v172h-38l-8 34h46v539h207v-44h-163v-495h149v-34h-149v-131h170v-41h-214zM235 855v19l167 98v-37zM148 876l-116 -107v23l116 123l117 -123v-23z" />
    <glyph glyph-name="uni1EC0" unicode="&#x1ec0;" horiz-adv-x="293" 
d="M48 0v172h-38l-8 34h46v539h207v-44h-163v-495h149v-34h-149v-131h170v-41h-214zM-102 935v37l167 -98v-19zM152 876l-116 -107v23l116 123l116 -123v-23z" />
    <glyph glyph-name="uni1EC1" unicode="&#x1ec1;" horiz-adv-x="293" 
d="M48 0v172h-38l-8 34h46v539h207v-44h-163v-495h149v-34h-149v-131h170v-41h-214zM-102 935v37l167 -98v-19zM152 876l-116 -107v23l116 123l116 -123v-23z" />
    <glyph glyph-name="uni1EC2" unicode="&#x1ec2;" horiz-adv-x="293" 
d="M48 0v172h-38l-8 34h46v539h207v-44h-163v-495h149v-34h-149v-131h170v-41h-214zM286 816q1 21 10 32t19.5 20t19 19t8.5 28q0 12 -9.5 23t-38.5 11q-17 0 -45 -7v23q13 5 24.5 6t22.5 1q39 0 55.5 -16.5t16.5 -38.5q0 -23 -9 -35t-20.5 -21t-20.5 -18t-9 -27h-24z
M149 876l-116 -107v23l116 123l117 -123v-23z" />
    <glyph glyph-name="uni1EC3" unicode="&#x1ec3;" horiz-adv-x="293" 
d="M48 0v172h-38l-8 34h46v539h207v-44h-163v-495h149v-34h-149v-131h170v-41h-214zM286 816q1 21 10 32t19.5 20t19 19t8.5 28q0 12 -9.5 23t-38.5 11q-17 0 -45 -7v23q13 5 24.5 6t22.5 1q39 0 55.5 -16.5t16.5 -38.5q0 -23 -9 -35t-20.5 -21t-20.5 -18t-9 -27h-24z
M149 876l-116 -107v23l116 123l117 -123v-23z" />
    <glyph glyph-name="uni1EC4" unicode="&#x1ec4;" horiz-adv-x="293" 
d="M48 0v172h-38l-8 34h46v539h207v-44h-163v-495h149v-34h-149v-131h170v-41h-214zM153 876l-116 -107v23l116 123l116 -123v-23zM275 939q-11 -11 -27.5 -17t-36.5 -6q-17 0 -31.5 5.5t-28.5 11.5t-28 11.5t-30 5.5q-21 0 -36.5 -8t-26.5 -22v27q12 11 28 18t35 7
q16 0 31 -5.5t29.5 -12t29 -12t30.5 -5.5q20 0 35 7.5t27 21.5v-27z" />
    <glyph glyph-name="uni1EC5" unicode="&#x1ec5;" horiz-adv-x="293" 
d="M48 0v172h-38l-8 34h46v539h207v-44h-163v-495h149v-34h-149v-131h170v-41h-214zM153 876l-116 -107v23l116 123l116 -123v-23zM275 939q-11 -11 -27.5 -17t-36.5 -6q-17 0 -31.5 5.5t-28.5 11.5t-28 11.5t-30 5.5q-21 0 -36.5 -8t-26.5 -22v27q12 11 28 18t35 7
q16 0 31 -5.5t29.5 -12t29 -12t30.5 -5.5q20 0 35 7.5t27 21.5v-27z" />
    <glyph glyph-name="uni1EC6" unicode="&#x1ec6;" horiz-adv-x="293" 
d="M48 0v172h-38l-8 34h46v539h207v-44h-163v-495h149v-34h-149v-131h170v-41h-214zM151 886l-135 -117v23l135 133l133 -133v-23zM151 -197q-29 0 -29 38q0 37 29 37q31 0 31 -37q0 -38 -31 -38z" />
    <glyph glyph-name="uni1EC7" unicode="&#x1ec7;" horiz-adv-x="293" 
d="M48 0v172h-38l-8 34h46v539h207v-44h-163v-495h149v-34h-149v-131h170v-41h-214zM151 886l-135 -117v23l135 133l133 -133v-23zM151 -197q-29 0 -29 38q0 37 29 37q31 0 31 -37q0 -38 -31 -38z" />
    <glyph glyph-name="uni1EC8" unicode="&#x1ec8;" horiz-adv-x="148" 
d="M51 0v745h44v-745h-44zM59 769q1 21 10 32t19.5 20t19 19t8.5 28q0 12 -10 23t-38 11q-17 0 -45 -7v23q13 5 24.5 6t22.5 1q39 0 55.5 -16.5t16.5 -38.5q0 -23 -9 -35t-20.5 -21t-20.5 -18t-9 -27h-24z" />
    <glyph glyph-name="uni1EC9" unicode="&#x1ec9;" horiz-adv-x="148" 
d="M51 0v745h44v-745h-44zM59 769q1 21 10 32t19.5 20t19 19t8.5 28q0 12 -10 23t-38 11q-17 0 -45 -7v23q13 5 24.5 6t22.5 1q39 0 55.5 -16.5t16.5 -38.5q0 -23 -9 -35t-20.5 -21t-20.5 -18t-9 -27h-24z" />
    <glyph glyph-name="uni1ECA" unicode="&#x1eca;" horiz-adv-x="148" 
d="M51 0v745h44v-745h-44zM73 -197q-29 0 -29 38q0 37 29 37q31 0 31 -37q0 -38 -31 -38z" />
    <glyph glyph-name="uni1ECB" unicode="&#x1ecb;" horiz-adv-x="148" 
d="M51 0v745h44v-745h-44zM73 -197q-29 0 -29 38q0 37 29 37q31 0 31 -37q0 -38 -31 -38z" />
    <glyph glyph-name="uni1ECC" unicode="&#x1ecc;" horiz-adv-x="373" 
d="M47 615q0 65 34 104t105 39t104.5 -39t33.5 -104v-485q0 -65 -33.5 -104t-104.5 -39t-105 39t-34 104v485zM280 604q0 23 -4.5 43t-15 35t-29 23.5t-45.5 8.5t-45.5 -8.5t-29.5 -23.5t-15.5 -35t-4.5 -43v-464q0 -23 4.5 -43t15.5 -35t29.5 -23.5t45.5 -8.5t45.5 8.5
t29 23.5t15 35t4.5 43v464zM185 -197q-29 0 -29 38q0 37 29 37q31 0 31 -37q0 -38 -31 -38z" />
    <glyph glyph-name="uni1ECD" unicode="&#x1ecd;" horiz-adv-x="373" 
d="M47 615q0 65 34 104t105 39t104.5 -39t33.5 -104v-485q0 -65 -33.5 -104t-104.5 -39t-105 39t-34 104v485zM280 604q0 23 -4.5 43t-15 35t-29 23.5t-45.5 8.5t-45.5 -8.5t-29.5 -23.5t-15.5 -35t-4.5 -43v-464q0 -23 4.5 -43t15.5 -35t29.5 -23.5t45.5 -8.5t45.5 8.5
t29 23.5t15 35t4.5 43v464zM185 -197q-29 0 -29 38q0 37 29 37q31 0 31 -37q0 -38 -31 -38z" />
    <glyph glyph-name="uni1ECE" unicode="&#x1ece;" horiz-adv-x="373" 
d="M47 615q0 65 34 104t105 39t104.5 -39t33.5 -104v-485q0 -65 -33.5 -104t-104.5 -39t-105 39t-34 104v485zM280 604q0 23 -4.5 43t-15 35t-29 23.5t-45.5 8.5t-45.5 -8.5t-29.5 -23.5t-15.5 -35t-4.5 -43v-464q0 -23 4.5 -43t15.5 -35t29.5 -23.5t45.5 -8.5t45.5 8.5
t29 23.5t15 35t4.5 43v464zM171 769q1 21 10 32t19.5 20t19 19t8.5 28q0 12 -10 23t-38 11q-17 0 -45 -7v23q13 5 24.5 6t22.5 1q39 0 55.5 -16.5t16.5 -38.5q0 -23 -9 -35t-20.5 -21t-20.5 -18t-9 -27h-24z" />
    <glyph glyph-name="uni1ECF" unicode="&#x1ecf;" horiz-adv-x="373" 
d="M47 615q0 65 34 104t105 39t104.5 -39t33.5 -104v-485q0 -65 -33.5 -104t-104.5 -39t-105 39t-34 104v485zM280 604q0 23 -4.5 43t-15 35t-29 23.5t-45.5 8.5t-45.5 -8.5t-29.5 -23.5t-15.5 -35t-4.5 -43v-464q0 -23 4.5 -43t15.5 -35t29.5 -23.5t45.5 -8.5t45.5 8.5
t29 23.5t15 35t4.5 43v464zM171 769q1 21 10 32t19.5 20t19 19t8.5 28q0 12 -10 23t-38 11q-17 0 -45 -7v23q13 5 24.5 6t22.5 1q39 0 55.5 -16.5t16.5 -38.5q0 -23 -9 -35t-20.5 -21t-20.5 -18t-9 -27h-24z" />
    <glyph glyph-name="uni1ED0" unicode="&#x1ed0;" horiz-adv-x="373" 
d="M47 615q0 65 34 104t105 39t104.5 -39t33.5 -104v-485q0 -65 -33.5 -104t-104.5 -39t-105 39t-34 104v485zM280 604q0 23 -4.5 43t-15 35t-29 23.5t-45.5 8.5t-45.5 -8.5t-29.5 -23.5t-15.5 -35t-4.5 -43v-464q0 -23 4.5 -43t15.5 -35t29.5 -23.5t45.5 -8.5t45.5 8.5
t29 23.5t15 35t4.5 43v464zM271 855v19l167 98v-37zM184 876l-116 -107v23l116 123l117 -123v-23z" />
    <glyph glyph-name="uni1ED1" unicode="&#x1ed1;" horiz-adv-x="373" 
d="M47 615q0 65 34 104t105 39t104.5 -39t33.5 -104v-485q0 -65 -33.5 -104t-104.5 -39t-105 39t-34 104v485zM280 604q0 23 -4.5 43t-15 35t-29 23.5t-45.5 8.5t-45.5 -8.5t-29.5 -23.5t-15.5 -35t-4.5 -43v-464q0 -23 4.5 -43t15.5 -35t29.5 -23.5t45.5 -8.5t45.5 8.5
t29 23.5t15 35t4.5 43v464zM271 855v19l167 98v-37zM184 876l-116 -107v23l116 123l117 -123v-23z" />
    <glyph glyph-name="uni1ED2" unicode="&#x1ed2;" horiz-adv-x="373" 
d="M47 615q0 65 34 104t105 39t104.5 -39t33.5 -104v-485q0 -65 -33.5 -104t-104.5 -39t-105 39t-34 104v485zM280 604q0 23 -4.5 43t-15 35t-29 23.5t-45.5 8.5t-45.5 -8.5t-29.5 -23.5t-15.5 -35t-4.5 -43v-464q0 -23 4.5 -43t15.5 -35t29.5 -23.5t45.5 -8.5t45.5 8.5
t29 23.5t15 35t4.5 43v464zM-70 935v37l167 -98v-19zM184 876l-116 -107v23l116 123l116 -123v-23z" />
    <glyph glyph-name="uni1ED3" unicode="&#x1ed3;" horiz-adv-x="373" 
d="M47 615q0 65 34 104t105 39t104.5 -39t33.5 -104v-485q0 -65 -33.5 -104t-104.5 -39t-105 39t-34 104v485zM280 604q0 23 -4.5 43t-15 35t-29 23.5t-45.5 8.5t-45.5 -8.5t-29.5 -23.5t-15.5 -35t-4.5 -43v-464q0 -23 4.5 -43t15.5 -35t29.5 -23.5t45.5 -8.5t45.5 8.5
t29 23.5t15 35t4.5 43v464zM-70 935v37l167 -98v-19zM184 876l-116 -107v23l116 123l116 -123v-23z" />
    <glyph glyph-name="uni1ED4" unicode="&#x1ed4;" horiz-adv-x="373" 
d="M47 615q0 65 34 104t105 39t104.5 -39t33.5 -104v-485q0 -65 -33.5 -104t-104.5 -39t-105 39t-34 104v485zM280 604q0 23 -4.5 43t-15 35t-29 23.5t-45.5 8.5t-45.5 -8.5t-29.5 -23.5t-15.5 -35t-4.5 -43v-464q0 -23 4.5 -43t15.5 -35t29.5 -23.5t45.5 -8.5t45.5 8.5
t29 23.5t15 35t4.5 43v464zM320 816q1 21 10 32t19.5 20t19 19t8.5 28q0 12 -9.5 23t-38.5 11q-17 0 -45 -7v23q13 5 24.5 6t22.5 1q39 0 55.5 -16.5t16.5 -38.5q0 -23 -9 -35t-20.5 -21t-20.5 -18t-9 -27h-24zM183 876l-116 -107v23l116 123l117 -123v-23z" />
    <glyph glyph-name="uni1ED5" unicode="&#x1ed5;" horiz-adv-x="373" 
d="M47 615q0 65 34 104t105 39t104.5 -39t33.5 -104v-485q0 -65 -33.5 -104t-104.5 -39t-105 39t-34 104v485zM280 604q0 23 -4.5 43t-15 35t-29 23.5t-45.5 8.5t-45.5 -8.5t-29.5 -23.5t-15.5 -35t-4.5 -43v-464q0 -23 4.5 -43t15.5 -35t29.5 -23.5t45.5 -8.5t45.5 8.5
t29 23.5t15 35t4.5 43v464zM320 816q1 21 10 32t19.5 20t19 19t8.5 28q0 12 -9.5 23t-38.5 11q-17 0 -45 -7v23q13 5 24.5 6t22.5 1q39 0 55.5 -16.5t16.5 -38.5q0 -23 -9 -35t-20.5 -21t-20.5 -18t-9 -27h-24zM183 876l-116 -107v23l116 123l117 -123v-23z" />
    <glyph glyph-name="uni1ED6" unicode="&#x1ed6;" horiz-adv-x="373" 
d="M47 615q0 65 34 104t105 39t104.5 -39t33.5 -104v-485q0 -65 -33.5 -104t-104.5 -39t-105 39t-34 104v485zM280 604q0 23 -4.5 43t-15 35t-29 23.5t-45.5 8.5t-45.5 -8.5t-29.5 -23.5t-15.5 -35t-4.5 -43v-464q0 -23 4.5 -43t15.5 -35t29.5 -23.5t45.5 -8.5t45.5 8.5
t29 23.5t15 35t4.5 43v464zM187 876l-116 -107v23l116 123l116 -123v-23zM309 939q-11 -11 -27.5 -17t-36.5 -6q-17 0 -31.5 5.5t-28.5 11.5t-28 11.5t-30 5.5q-21 0 -36.5 -8t-26.5 -22v27q12 11 28 18t35 7q16 0 31 -5.5t29.5 -12t29 -12t30.5 -5.5q20 0 35 7.5t27 21.5
v-27z" />
    <glyph glyph-name="uni1ED7" unicode="&#x1ed7;" horiz-adv-x="373" 
d="M47 615q0 65 34 104t105 39t104.5 -39t33.5 -104v-485q0 -65 -33.5 -104t-104.5 -39t-105 39t-34 104v485zM280 604q0 23 -4.5 43t-15 35t-29 23.5t-45.5 8.5t-45.5 -8.5t-29.5 -23.5t-15.5 -35t-4.5 -43v-464q0 -23 4.5 -43t15.5 -35t29.5 -23.5t45.5 -8.5t45.5 8.5
t29 23.5t15 35t4.5 43v464zM187 876l-116 -107v23l116 123l116 -123v-23zM309 939q-11 -11 -27.5 -17t-36.5 -6q-17 0 -31.5 5.5t-28.5 11.5t-28 11.5t-30 5.5q-21 0 -36.5 -8t-26.5 -22v27q12 11 28 18t35 7q16 0 31 -5.5t29.5 -12t29 -12t30.5 -5.5q20 0 35 7.5t27 21.5
v-27z" />
    <glyph glyph-name="uni1ED8" unicode="&#x1ed8;" horiz-adv-x="373" 
d="M47 615q0 65 34 104t105 39t104.5 -39t33.5 -104v-485q0 -65 -33.5 -104t-104.5 -39t-105 39t-34 104v485zM280 604q0 23 -4.5 43t-15 35t-29 23.5t-45.5 8.5t-45.5 -8.5t-29.5 -23.5t-15.5 -35t-4.5 -43v-464q0 -23 4.5 -43t15.5 -35t29.5 -23.5t45.5 -8.5t45.5 8.5
t29 23.5t15 35t4.5 43v464zM187 886l-135 -117v23l135 133l133 -133v-23zM185 -197q-29 0 -29 38q0 37 29 37q31 0 31 -37q0 -38 -31 -38z" />
    <glyph glyph-name="uni1ED9" unicode="&#x1ed9;" horiz-adv-x="373" 
d="M47 615q0 65 34 104t105 39t104.5 -39t33.5 -104v-485q0 -65 -33.5 -104t-104.5 -39t-105 39t-34 104v485zM280 604q0 23 -4.5 43t-15 35t-29 23.5t-45.5 8.5t-45.5 -8.5t-29.5 -23.5t-15.5 -35t-4.5 -43v-464q0 -23 4.5 -43t15.5 -35t29.5 -23.5t45.5 -8.5t45.5 8.5
t29 23.5t15 35t4.5 43v464zM187 886l-135 -117v23l135 133l133 -133v-23zM185 -197q-29 0 -29 38q0 37 29 37q31 0 31 -37q0 -38 -31 -38z" />
    <glyph glyph-name="uni1EDA" unicode="&#x1eda;" horiz-adv-x="427" 
d="M47 615q0 65 34 104t105 39t104.5 -39t33.5 -104v-30q3 -1 9 -2t9 -1q31 1 49.5 23.5t18.5 64.5q0 48 -15 75h35q7 -8 11.5 -29.5t4.5 -47.5q0 -52 -24 -84.5t-70 -32.5q-15 0 -28 3v-424q0 -65 -33.5 -104t-104.5 -39t-105 39t-34 104v485zM280 604q0 23 -4.5 43t-15 35
t-29 23.5t-45.5 8.5t-45.5 -8.5t-29.5 -23.5t-15.5 -35t-4.5 -43v-464q0 -23 4.5 -43t15.5 -35t29.5 -23.5t45.5 -8.5t45.5 8.5t29 23.5t15 35t4.5 43v464zM77 777v20l212 97v-36z" />
    <glyph glyph-name="uni1EDB" unicode="&#x1edb;" horiz-adv-x="427" 
d="M47 615q0 65 34 104t105 39t104.5 -39t33.5 -104v-30q3 -1 9 -2t9 -1q31 1 49.5 23.5t18.5 64.5q0 48 -15 75h35q7 -8 11.5 -29.5t4.5 -47.5q0 -52 -24 -84.5t-70 -32.5q-15 0 -28 3v-424q0 -65 -33.5 -104t-104.5 -39t-105 39t-34 104v485zM280 604q0 23 -4.5 43t-15 35
t-29 23.5t-45.5 8.5t-45.5 -8.5t-29.5 -23.5t-15.5 -35t-4.5 -43v-464q0 -23 4.5 -43t15.5 -35t29.5 -23.5t45.5 -8.5t45.5 8.5t29 23.5t15 35t4.5 43v464zM77 777v20l212 97v-36z" />
    <glyph glyph-name="uni1EDC" unicode="&#x1edc;" horiz-adv-x="427" 
d="M47 615q0 65 34 104t105 39t104.5 -39t33.5 -104v-30q3 -1 9 -2t9 -1q31 1 49.5 23.5t18.5 64.5q0 48 -15 75h35q7 -8 11.5 -29.5t4.5 -47.5q0 -52 -24 -84.5t-70 -32.5q-15 0 -28 3v-424q0 -65 -33.5 -104t-104.5 -39t-105 39t-34 104v485zM280 604q0 23 -4.5 43t-15 35
t-29 23.5t-45.5 8.5t-45.5 -8.5t-29.5 -23.5t-15.5 -35t-4.5 -43v-464q0 -23 4.5 -43t15.5 -35t29.5 -23.5t45.5 -8.5t45.5 8.5t29 23.5t15 35t4.5 43v464zM79 858v36l212 -97v-20z" />
    <glyph glyph-name="uni1EDD" unicode="&#x1edd;" horiz-adv-x="427" 
d="M47 615q0 65 34 104t105 39t104.5 -39t33.5 -104v-30q3 -1 9 -2t9 -1q31 1 49.5 23.5t18.5 64.5q0 48 -15 75h35q7 -8 11.5 -29.5t4.5 -47.5q0 -52 -24 -84.5t-70 -32.5q-15 0 -28 3v-424q0 -65 -33.5 -104t-104.5 -39t-105 39t-34 104v485zM280 604q0 23 -4.5 43t-15 35
t-29 23.5t-45.5 8.5t-45.5 -8.5t-29.5 -23.5t-15.5 -35t-4.5 -43v-464q0 -23 4.5 -43t15.5 -35t29.5 -23.5t45.5 -8.5t45.5 8.5t29 23.5t15 35t4.5 43v464zM79 858v36l212 -97v-20z" />
    <glyph glyph-name="uni1EDE" unicode="&#x1ede;" horiz-adv-x="427" 
d="M47 615q0 65 34 104t105 39t104.5 -39t33.5 -104v-30q3 -1 9 -2t9 -1q31 1 49.5 23.5t18.5 64.5q0 48 -15 75h35q7 -8 11.5 -29.5t4.5 -47.5q0 -52 -24 -84.5t-70 -32.5q-15 0 -28 3v-424q0 -65 -33.5 -104t-104.5 -39t-105 39t-34 104v485zM280 604q0 23 -4.5 43t-15 35
t-29 23.5t-45.5 8.5t-45.5 -8.5t-29.5 -23.5t-15.5 -35t-4.5 -43v-464q0 -23 4.5 -43t15.5 -35t29.5 -23.5t45.5 -8.5t45.5 8.5t29 23.5t15 35t4.5 43v464zM172 769q1 21 10 32t19.5 20t19 19t8.5 28q0 12 -10 23t-38 11q-17 0 -45 -7v23q13 5 24.5 6t22.5 1
q39 0 55.5 -16.5t16.5 -38.5q0 -23 -9 -35t-20.5 -21t-20.5 -18t-9 -27h-24z" />
    <glyph glyph-name="uni1EDF" unicode="&#x1edf;" horiz-adv-x="427" 
d="M47 615q0 65 34 104t105 39t104.5 -39t33.5 -104v-30q3 -1 9 -2t9 -1q31 1 49.5 23.5t18.5 64.5q0 48 -15 75h35q7 -8 11.5 -29.5t4.5 -47.5q0 -52 -24 -84.5t-70 -32.5q-15 0 -28 3v-424q0 -65 -33.5 -104t-104.5 -39t-105 39t-34 104v485zM280 604q0 23 -4.5 43t-15 35
t-29 23.5t-45.5 8.5t-45.5 -8.5t-29.5 -23.5t-15.5 -35t-4.5 -43v-464q0 -23 4.5 -43t15.5 -35t29.5 -23.5t45.5 -8.5t45.5 8.5t29 23.5t15 35t4.5 43v464zM172 769q1 21 10 32t19.5 20t19 19t8.5 28q0 12 -10 23t-38 11q-17 0 -45 -7v23q13 5 24.5 6t22.5 1
q39 0 55.5 -16.5t16.5 -38.5q0 -23 -9 -35t-20.5 -21t-20.5 -18t-9 -27h-24z" />
    <glyph glyph-name="uni1EE0" unicode="&#x1ee0;" horiz-adv-x="427" 
d="M47 615q0 65 34 104t105 39t104.5 -39t33.5 -104v-30q3 -1 9 -2t9 -1q31 1 49.5 23.5t18.5 64.5q0 48 -15 75h35q7 -8 11.5 -29.5t4.5 -47.5q0 -52 -24 -84.5t-70 -32.5q-15 0 -28 3v-424q0 -65 -33.5 -104t-104.5 -39t-105 39t-34 104v485zM280 604q0 23 -4.5 43t-15 35
t-29 23.5t-45.5 8.5t-45.5 -8.5t-29.5 -23.5t-15.5 -35t-4.5 -43v-464q0 -23 4.5 -43t15.5 -35t29.5 -23.5t45.5 -8.5t45.5 8.5t29 23.5t15 35t4.5 43v464zM314 837q-25 -27 -67 -27q-17 0 -32.5 6t-30 12.5t-29.5 12.5t-32 6q-42 0 -67 -33v33q27 27 68 27q17 0 32.5 -6
t30 -12.5t29.5 -12.5t32 -6q40 0 66 33v-33z" />
    <glyph glyph-name="uni1EE1" unicode="&#x1ee1;" horiz-adv-x="427" 
d="M47 615q0 65 34 104t105 39t104.5 -39t33.5 -104v-30q3 -1 9 -2t9 -1q31 1 49.5 23.5t18.5 64.5q0 48 -15 75h35q7 -8 11.5 -29.5t4.5 -47.5q0 -52 -24 -84.5t-70 -32.5q-15 0 -28 3v-424q0 -65 -33.5 -104t-104.5 -39t-105 39t-34 104v485zM280 604q0 23 -4.5 43t-15 35
t-29 23.5t-45.5 8.5t-45.5 -8.5t-29.5 -23.5t-15.5 -35t-4.5 -43v-464q0 -23 4.5 -43t15.5 -35t29.5 -23.5t45.5 -8.5t45.5 8.5t29 23.5t15 35t4.5 43v464zM314 837q-25 -27 -67 -27q-17 0 -32.5 6t-30 12.5t-29.5 12.5t-32 6q-42 0 -67 -33v33q27 27 68 27q17 0 32.5 -6
t30 -12.5t29.5 -12.5t32 -6q40 0 66 33v-33z" />
    <glyph glyph-name="uni1EE2" unicode="&#x1ee2;" horiz-adv-x="427" 
d="M47 615q0 65 34 104t105 39t104.5 -39t33.5 -104v-30q3 -1 9 -2t9 -1q31 1 49.5 23.5t18.5 64.5q0 48 -15 75h35q7 -8 11.5 -29.5t4.5 -47.5q0 -52 -24 -84.5t-70 -32.5q-15 0 -28 3v-424q0 -65 -33.5 -104t-104.5 -39t-105 39t-34 104v485zM280 604q0 23 -4.5 43t-15 35
t-29 23.5t-45.5 8.5t-45.5 -8.5t-29.5 -23.5t-15.5 -35t-4.5 -43v-464q0 -23 4.5 -43t15.5 -35t29.5 -23.5t45.5 -8.5t45.5 8.5t29 23.5t15 35t4.5 43v464zM185 -197q-29 0 -29 38q0 37 29 37q31 0 31 -37q0 -38 -31 -38z" />
    <glyph glyph-name="uni1EE3" unicode="&#x1ee3;" horiz-adv-x="427" 
d="M47 615q0 65 34 104t105 39t104.5 -39t33.5 -104v-30q3 -1 9 -2t9 -1q31 1 49.5 23.5t18.5 64.5q0 48 -15 75h35q7 -8 11.5 -29.5t4.5 -47.5q0 -52 -24 -84.5t-70 -32.5q-15 0 -28 3v-424q0 -65 -33.5 -104t-104.5 -39t-105 39t-34 104v485zM280 604q0 23 -4.5 43t-15 35
t-29 23.5t-45.5 8.5t-45.5 -8.5t-29.5 -23.5t-15.5 -35t-4.5 -43v-464q0 -23 4.5 -43t15.5 -35t29.5 -23.5t45.5 -8.5t45.5 8.5t29 23.5t15 35t4.5 43v464zM185 -197q-29 0 -29 38q0 37 29 37q31 0 31 -37q0 -38 -31 -38z" />
    <glyph glyph-name="uni1EE4" unicode="&#x1ee4;" horiz-adv-x="377" 
d="M283 745h43v-615q0 -65 -33.5 -104t-104.5 -39t-105 39t-34 104v615h45v-614q0 -46 23 -73.5t71 -27.5q49 0 72 27.5t23 73.5v614zM187 -197q-29 0 -29 38q0 37 29 37q31 0 31 -37q0 -38 -31 -38z" />
    <glyph glyph-name="uni1EE5" unicode="&#x1ee5;" horiz-adv-x="377" 
d="M283 745h43v-615q0 -65 -33.5 -104t-104.5 -39t-105 39t-34 104v615h45v-614q0 -46 23 -73.5t71 -27.5q49 0 72 27.5t23 73.5v614zM187 -197q-29 0 -29 38q0 37 29 37q31 0 31 -37q0 -38 -31 -38z" />
    <glyph glyph-name="uni1EE6" unicode="&#x1ee6;" horiz-adv-x="377" 
d="M283 745h43v-615q0 -65 -33.5 -104t-104.5 -39t-105 39t-34 104v615h45v-614q0 -46 23 -73.5t71 -27.5q49 0 72 27.5t23 73.5v614zM171 769q1 21 10 32t19.5 20t19 19t8.5 28q0 12 -10 23t-38 11q-17 0 -45 -7v23q13 5 24.5 6t22.5 1q39 0 55.5 -16.5t16.5 -38.5
q0 -23 -9 -35t-20.5 -21t-20.5 -18t-9 -27h-24z" />
    <glyph glyph-name="uni1EE7" unicode="&#x1ee7;" horiz-adv-x="377" 
d="M283 745h43v-615q0 -65 -33.5 -104t-104.5 -39t-105 39t-34 104v615h45v-614q0 -46 23 -73.5t71 -27.5q49 0 72 27.5t23 73.5v614zM171 769q1 21 10 32t19.5 20t19 19t8.5 28q0 12 -10 23t-38 11q-17 0 -45 -7v23q13 5 24.5 6t22.5 1q39 0 55.5 -16.5t16.5 -38.5
q0 -23 -9 -35t-20.5 -21t-20.5 -18t-9 -27h-24z" />
    <glyph glyph-name="uni1EE8" unicode="&#x1ee8;" horiz-adv-x="446" 
d="M283 745h43v-157q15 -5 30 -5q37 0 55 24t18 63q0 50 -15 75h36q7 -8 11.5 -29.5t4.5 -47.5q0 -51 -22.5 -84t-72.5 -33q-23 0 -45 10v-431q0 -65 -33.5 -104t-104.5 -39t-105 39t-34 104v615h45v-614q0 -46 23 -73.5t71 -27.5q49 0 72 27.5t23 73.5v614zM81 777v20
l212 97v-36z" />
    <glyph glyph-name="uni1EE9" unicode="&#x1ee9;" horiz-adv-x="446" 
d="M283 745h43v-157q15 -5 30 -5q37 0 55 24t18 63q0 50 -15 75h36q7 -8 11.5 -29.5t4.5 -47.5q0 -51 -22.5 -84t-72.5 -33q-23 0 -45 10v-431q0 -65 -33.5 -104t-104.5 -39t-105 39t-34 104v615h45v-614q0 -46 23 -73.5t71 -27.5q49 0 72 27.5t23 73.5v614zM81 777v20
l212 97v-36z" />
    <glyph glyph-name="uni1EEA" unicode="&#x1eea;" horiz-adv-x="446" 
d="M283 745h43v-157q15 -5 30 -5q37 0 55 24t18 63q0 50 -15 75h36q7 -8 11.5 -29.5t4.5 -47.5q0 -51 -22.5 -84t-72.5 -33q-23 0 -45 10v-431q0 -65 -33.5 -104t-104.5 -39t-105 39t-34 104v615h45v-614q0 -46 23 -73.5t71 -27.5q49 0 72 27.5t23 73.5v614zM87 858v36
l212 -97v-20z" />
    <glyph glyph-name="uni1EEB" unicode="&#x1eeb;" horiz-adv-x="446" 
d="M283 745h43v-157q15 -5 30 -5q37 0 55 24t18 63q0 50 -15 75h36q7 -8 11.5 -29.5t4.5 -47.5q0 -51 -22.5 -84t-72.5 -33q-23 0 -45 10v-431q0 -65 -33.5 -104t-104.5 -39t-105 39t-34 104v615h45v-614q0 -46 23 -73.5t71 -27.5q49 0 72 27.5t23 73.5v614zM87 858v36
l212 -97v-20z" />
    <glyph glyph-name="uni1EEC" unicode="&#x1eec;" horiz-adv-x="446" 
d="M283 745h43v-157q15 -5 30 -5q37 0 55 24t18 63q0 50 -15 75h36q7 -8 11.5 -29.5t4.5 -47.5q0 -51 -22.5 -84t-72.5 -33q-23 0 -45 10v-431q0 -65 -33.5 -104t-104.5 -39t-105 39t-34 104v615h45v-614q0 -46 23 -73.5t71 -27.5q49 0 72 27.5t23 73.5v614zM178 769
q1 21 10 32t19.5 20t19 19t8.5 28q0 12 -10 23t-38 11q-17 0 -45 -7v23q13 5 24.5 6t22.5 1q39 0 55.5 -16.5t16.5 -38.5q0 -23 -9 -35t-20.5 -21t-20.5 -18t-9 -27h-24z" />
    <glyph glyph-name="uni1EED" unicode="&#x1eed;" horiz-adv-x="446" 
d="M283 745h43v-157q15 -5 30 -5q37 0 55 24t18 63q0 50 -15 75h36q7 -8 11.5 -29.5t4.5 -47.5q0 -51 -22.5 -84t-72.5 -33q-23 0 -45 10v-431q0 -65 -33.5 -104t-104.5 -39t-105 39t-34 104v615h45v-614q0 -46 23 -73.5t71 -27.5q49 0 72 27.5t23 73.5v614zM178 769
q1 21 10 32t19.5 20t19 19t8.5 28q0 12 -10 23t-38 11q-17 0 -45 -7v23q13 5 24.5 6t22.5 1q39 0 55.5 -16.5t16.5 -38.5q0 -23 -9 -35t-20.5 -21t-20.5 -18t-9 -27h-24z" />
    <glyph glyph-name="uni1EEE" unicode="&#x1eee;" horiz-adv-x="446" 
d="M283 745h43v-157q15 -5 30 -5q37 0 55 24t18 63q0 50 -15 75h36q7 -8 11.5 -29.5t4.5 -47.5q0 -51 -22.5 -84t-72.5 -33q-23 0 -45 10v-431q0 -65 -33.5 -104t-104.5 -39t-105 39t-34 104v615h45v-614q0 -46 23 -73.5t71 -27.5q49 0 72 27.5t23 73.5v614zM310 837
q-25 -27 -67 -27q-17 0 -32.5 6t-30 12.5t-29.5 12.5t-32 6q-42 0 -67 -33v33q27 27 68 27q17 0 32.5 -6t30 -12.5t29.5 -12.5t32 -6q40 0 66 33v-33z" />
    <glyph glyph-name="uni1EEF" unicode="&#x1eef;" horiz-adv-x="446" 
d="M283 745h43v-157q15 -5 30 -5q37 0 55 24t18 63q0 50 -15 75h36q7 -8 11.5 -29.5t4.5 -47.5q0 -51 -22.5 -84t-72.5 -33q-23 0 -45 10v-431q0 -65 -33.5 -104t-104.5 -39t-105 39t-34 104v615h45v-614q0 -46 23 -73.5t71 -27.5q49 0 72 27.5t23 73.5v614zM310 837
q-25 -27 -67 -27q-17 0 -32.5 6t-30 12.5t-29.5 12.5t-32 6q-42 0 -67 -33v33q27 27 68 27q17 0 32.5 -6t30 -12.5t29.5 -12.5t32 -6q40 0 66 33v-33z" />
    <glyph glyph-name="uni1EF0" unicode="&#x1ef0;" horiz-adv-x="446" 
d="M283 745h43v-157q15 -5 30 -5q37 0 55 24t18 63q0 50 -15 75h36q7 -8 11.5 -29.5t4.5 -47.5q0 -51 -22.5 -84t-72.5 -33q-23 0 -45 10v-431q0 -65 -33.5 -104t-104.5 -39t-105 39t-34 104v615h45v-614q0 -46 23 -73.5t71 -27.5q49 0 72 27.5t23 73.5v614zM191 -197
q-29 0 -29 38q0 37 29 37q31 0 31 -37q0 -38 -31 -38z" />
    <glyph glyph-name="uni1EF1" unicode="&#x1ef1;" horiz-adv-x="446" 
d="M283 745h43v-157q15 -5 30 -5q37 0 55 24t18 63q0 50 -15 75h36q7 -8 11.5 -29.5t4.5 -47.5q0 -51 -22.5 -84t-72.5 -33q-23 0 -45 10v-431q0 -65 -33.5 -104t-104.5 -39t-105 39t-34 104v615h45v-614q0 -46 23 -73.5t71 -27.5q49 0 72 27.5t23 73.5v614zM191 -197
q-29 0 -29 38q0 37 29 37q31 0 31 -37q0 -38 -31 -38z" />
    <glyph glyph-name="Ygrave" unicode="&#x1ef2;" horiz-adv-x="330" 
d="M144 0v446l-132 299h44l111 -256l109 256h42l-130 -299v-446h-44zM59 858v36l212 -97v-20z" />
    <glyph glyph-name="ygrave" unicode="&#x1ef3;" horiz-adv-x="330" 
d="M144 0v446l-132 299h44l111 -256l109 256h42l-130 -299v-446h-44zM59 858v36l212 -97v-20z" />
    <glyph glyph-name="endash" unicode="&#x2013;" horiz-adv-x="368" 
d="M22 283v35h321v-35h-321z" />
    <glyph glyph-name="emdash" unicode="&#x2014;" horiz-adv-x="550" 
d="M0 283v35h550v-35h-550z" />
    <glyph glyph-name="quoteleft" unicode="&#x2018;" horiz-adv-x="160" 
d="M102 757l-19 -54q13 0 21.5 -8.5t8.5 -27.5q0 -42 -33 -42q-34 0 -34 42q0 8 1 16t5 18l24 56h26z" />
    <glyph glyph-name="quoteright" unicode="&#x2019;" horiz-adv-x="160" 
d="M57 625l19 54q-13 0 -21.5 8.5t-8.5 27.5q0 42 33 42q34 0 34 -42q0 -8 -1 -16t-5 -18l-24 -56h-26z" />
    <glyph glyph-name="quotesinglbase" unicode="&#x201a;" horiz-adv-x="161" 
d="M58 -57l19 53q-13 1 -21.5 9.5t-8.5 27.5q0 41 33 41q34 0 34 -41q0 -15 -7 -35l-23 -55h-26z" />
    <glyph glyph-name="quotedblleft" unicode="&#x201c;" horiz-adv-x="320" 
d="M102 757l-19 -54q13 0 21.5 -8.5t8.5 -27.5q0 -42 -33 -42q-34 0 -34 42q0 8 1 16t5 18l24 56h26zM262 757l-19 -54q13 0 21.5 -8.5t8.5 -27.5q0 -42 -33 -42q-34 0 -34 42q0 8 1 16t5 18l24 56h26z" />
    <glyph glyph-name="quotedblright" unicode="&#x201d;" horiz-adv-x="320" 
d="M57 625l19 54q-13 0 -21.5 8.5t-8.5 27.5q0 42 33 42q34 0 34 -42q0 -8 -1 -16t-5 -18l-24 -56h-26zM217 625l19 54q-13 0 -21.5 8.5t-8.5 27.5q0 42 33 42q34 0 34 -42q0 -8 -1 -16t-5 -18l-24 -56h-26z" />
    <glyph glyph-name="quotedblbase" unicode="&#x201e;" horiz-adv-x="322" 
d="M58 -57l19 53q-13 1 -21.5 9.5t-8.5 27.5q0 41 33 41q34 0 34 -41q0 -15 -7 -35l-23 -55h-26zM219 -57l19 53q-13 1 -21.5 9.5t-8.5 27.5q0 41 33 41q34 0 34 -41q0 -15 -7 -35l-23 -55h-26z" />
    <glyph glyph-name="dagger" unicode="&#x2020;" horiz-adv-x="329" 
d="M186 575v-71q0 -147 -6.5 -273t-14.5 -242q-8 116 -15 241.5t-7 273.5v71h-94v22l94 16v132h43v-132l94 -16v-22h-94z" />
    <glyph glyph-name="daggerdbl" unicode="&#x2021;" horiz-adv-x="329" 
d="M143 0v127l-94 16v23h94v46q0 44 2.5 83.5t7.5 76.5q-5 37 -7.5 76t-2.5 84v46h-94v22l94 16v129h43v-129l94 -16v-22h-94v-46q0 -45 -3 -84t-8 -76q5 -37 8 -76.5t3 -83.5v-46h94v-23l-94 -16v-127h-43z" />
    <glyph glyph-name="bullet" unicode="&#x2022;" horiz-adv-x="297" 
d="M232 358q0 -42 -27.5 -69t-68.5 -27q-42 0 -69 27t-27 69q0 44 27 70t69 26q41 0 68.5 -26t27.5 -70z" />
    <glyph glyph-name="ellipsis" unicode="&#x2026;" horiz-adv-x="835" 
d="M82 -8q-33 0 -33 41t33 41q34 0 34 -41t-34 -41zM416 -8q-33 0 -33 41t33 41q34 0 34 -41t-34 -41zM750 -8q-33 0 -33 41t33 41q34 0 34 -41t-34 -41z" />
    <glyph glyph-name="perthousand" unicode="&#x2030;" horiz-adv-x="705" 
d="M47 669q0 38 19.5 60.5t60.5 22.5t60.5 -22.5t19.5 -60.5v-261q0 -38 -19.5 -60t-60.5 -22t-60.5 22t-19.5 60v261zM172 663q0 23 -9.5 38.5t-35.5 15.5t-35.5 -15.5t-9.5 -38.5v-249q0 -22 9.5 -38t35.5 -16t35.5 16t9.5 38v249zM91 0l274 745h36l-273 -745h-37z
M289 336q0 38 19.5 60.5t60.5 22.5t60.5 -22.5t19.5 -60.5v-261q0 -38 -19.5 -60t-60.5 -22t-60.5 22t-19.5 60v261zM414 330q0 23 -9.5 38.5t-35.5 15.5t-35.5 -15.5t-9.5 -38.5v-249q0 -22 9.5 -38t35.5 -16t35.5 16t9.5 38v249zM496 336q0 38 19.5 60.5t60.5 22.5
t60.5 -22.5t19.5 -60.5v-261q0 -38 -19.5 -60t-60.5 -22t-60.5 22t-19.5 60v261zM621 330q0 23 -9.5 38.5t-35.5 15.5t-35.5 -15.5t-9.5 -38.5v-249q0 -22 9.5 -38t35.5 -16t35.5 16t9.5 38v249z" />
    <glyph glyph-name="guilsinglleft" unicode="&#x2039;" horiz-adv-x="237" 
d="M190 70l-168 228l168 226l24 -20l-152 -206l152 -208z" />
    <glyph glyph-name="guilsinglright" unicode="&#x203a;" horiz-adv-x="237" 
d="M22 90l152 208l-151 206l23 20l168 -226l-168 -228z" />
    <glyph glyph-name="fraction" unicode="&#x2044;" horiz-adv-x="165" 
d="M-72 0l274 745h36l-273 -745h-37z" />
    <glyph glyph-name="zerosuperior" unicode="&#x2070;" horiz-adv-x="235" 
d="M36 669q0 38 19.5 60.5t60.5 22.5t60.5 -22.5t19.5 -60.5v-261q0 -38 -19.5 -60t-60.5 -22t-60.5 22t-19.5 60v261zM161 663q0 23 -9.5 38.5t-35.5 15.5t-35.5 -15.5t-9.5 -38.5v-249q0 -22 9.5 -38t35.5 -16t35.5 16t9.5 38v249z" />
    <glyph glyph-name="foursuperior" unicode="&#x2074;" horiz-adv-x="225" 
d="M147 333v66h-128l163 411v-380h14v-31h-14v-66h-35zM147 630l-81 -200h81v200z" />
    <glyph glyph-name="fivesuperior" unicode="&#x2075;" horiz-adv-x="210" 
d="M35 373q15 -7 32 -10.5t31 -3.5q19 0 33 10.5t14 32.5q0 19 -10.5 29t-28.5 10q-15 0 -31 -3.5t-36 -11.5l9 319h120v-35h-86l-8 -245q18 6 40 6q32 0 48.5 -18.5t16.5 -50.5q0 -41 -22 -58.5t-60 -17.5q-13 0 -30.5 3.5t-31.5 10.5v33z" />
    <glyph glyph-name="sixsuperior" unicode="&#x2076;" horiz-adv-x="231" 
d="M196 408q0 -38 -19.5 -60t-60.5 -22t-60.5 22t-19.5 60v236q0 22 2.5 41.5t11.5 34.5t26 23.5t47 8.5q14 0 29.5 -2.5t29.5 -12.5v-38q-17 11 -30.5 14t-25.5 3q-19 0 -30 -5.5t-16.5 -15.5t-7 -23.5t-1.5 -28.5v-139q9 9 22 12.5t30 3.5q35 0 54 -18.5t19 -53.5v-40z
M161 445q0 22 -10.5 32.5t-34.5 10.5q-45 0 -45 -40v-36q0 -23 10.5 -37.5t34.5 -14.5t34.5 14.5t10.5 37.5v33z" />
    <glyph glyph-name="sevensuperior" unicode="&#x2077;" horiz-adv-x="210" 
d="M57 333q8 96 27.5 192.5t55.5 184.5h-114v35h162q-42 -106 -65 -209.5t-28 -202.5h-38z" />
    <glyph glyph-name="eightsuperior" unicode="&#x2078;" horiz-adv-x="235" 
d="M36 669q0 38 19 60.5t61 22.5t61.5 -22.5t19.5 -60.5v-151q0 -31 -10 -51.5t-25 -29.5q31 -10 31 -48q0 -31 -20 -47t-57 -16q-35 0 -55.5 15.5t-20.5 47.5q0 38 31 48q-35 19 -35 81v151zM162 666q0 23 -11.5 36.5t-34.5 13.5t-34 -13.5t-11 -36.5v-151
q0 -32 10.5 -47.5t34.5 -15.5q46 0 46 63v151zM160 392q0 31 -44 31q-43 0 -43 -31q0 -34 43 -34q44 0 44 34z" />
    <glyph glyph-name="ninesuperior" unicode="&#x2079;" horiz-adv-x="235" 
d="M94 333q23 22 39.5 55t23.5 73q-8 -7 -19.5 -11.5t-26.5 -4.5q-37 0 -56.5 18.5t-19.5 60.5v145q0 38 19.5 60.5t61.5 22.5q41 0 60.5 -22.5t19.5 -60.5v-140q0 -77 -18.5 -126t-37.5 -70h-46zM160 660q0 25 -9.5 41t-34.5 16q-26 0 -35.5 -16t-9.5 -41v-136
q0 -26 11 -36.5t34 -10.5q19 0 31.5 10.5t12.5 36.5v136z" />
    <glyph glyph-name="zeroinferior" unicode="&#x2080;" horiz-adv-x="235" 
d="M36 336q0 38 19.5 60.5t60.5 22.5t60.5 -22.5t19.5 -60.5v-261q0 -38 -19.5 -60t-60.5 -22t-60.5 22t-19.5 60v261zM161 330q0 23 -9.5 38.5t-35.5 15.5t-35.5 -15.5t-9.5 -38.5v-249q0 -22 9.5 -38t35.5 -16t35.5 16t9.5 38v249z" />
    <glyph glyph-name="oneinferior" unicode="&#x2081;" horiz-adv-x="108" 
d="M33 0v377l-24 35h59v-412h-35z" />
    <glyph glyph-name="twoinferior" unicode="&#x2082;" horiz-adv-x="227" 
d="M33 0v65q0 52 21.5 87.5t54.5 67.5q20 19 33.5 42t13.5 55q0 26 -13.5 46t-46.5 20q-26 0 -55 -14v36q17 8 30.5 11t28.5 3q24 0 41.5 -8.5t28 -22.5t15.5 -32t5 -38q0 -39 -18 -71t-44 -56q-29 -28 -44.5 -56t-15.5 -72v-29h119v-34h-154z" />
    <glyph glyph-name="threeinferior" unicode="&#x2083;" horiz-adv-x="214" 
d="M30 41q36 -15 61 -15q16 0 32.5 8.5t16.5 31.5q0 10 -8 18.5t-34 8.5h-41l-6 29h45q15 0 24 6.5t13.5 17t6 25t1.5 30.5v109q0 15 -1.5 28.5t-7 23.5t-16.5 15.5t-30 5.5q-13 0 -26 -2.5t-30 -13.5v37q15 11 30 13t29 2q30 0 47.5 -8.5t26.5 -23.5t11 -34.5t2 -41.5v-105
q0 -32 -5.5 -58.5t-27.5 -39.5q19 -5 25 -17.5t6 -28.5q0 -20 -7 -33.5t-19 -21.5t-27 -11t-30 -3q-14 0 -30.5 3.5t-30.5 10.5v34z" />
    <glyph glyph-name="fourinferior" unicode="&#x2084;" horiz-adv-x="225" 
d="M147 0v66h-128l163 411v-380h14v-31h-14v-66h-35zM147 297l-81 -200h81v200z" />
    <glyph glyph-name="fiveinferior" unicode="&#x2085;" horiz-adv-x="210" 
d="M35 40q15 -7 32 -10.5t31 -3.5q19 0 33 10.5t14 32.5q0 19 -10.5 29t-28.5 10q-15 0 -31 -3.5t-36 -11.5l9 319h120v-35h-86l-8 -245q18 6 40 6q32 0 48.5 -18.5t16.5 -50.5q0 -41 -22 -58.5t-60 -17.5q-13 0 -30.5 3.5t-31.5 10.5v33z" />
    <glyph glyph-name="sixinferior" unicode="&#x2086;" horiz-adv-x="231" 
d="M196 75q0 -38 -19.5 -60t-60.5 -22t-60.5 22t-19.5 60v236q0 22 2.5 41.5t11.5 34.5t26 23.5t47 8.5q14 0 29.5 -2.5t29.5 -12.5v-38q-17 11 -30.5 14t-25.5 3q-19 0 -30 -5.5t-16.5 -15.5t-7 -23.5t-1.5 -28.5v-139q9 9 22 12.5t30 3.5q35 0 54 -18.5t19 -53.5v-40z
M161 112q0 22 -10.5 32.5t-34.5 10.5q-45 0 -45 -40v-36q0 -23 10.5 -37.5t34.5 -14.5t34.5 14.5t10.5 37.5v33z" />
    <glyph glyph-name="seveninferior" unicode="&#x2087;" horiz-adv-x="210" 
d="M57 0q8 96 27.5 192.5t55.5 184.5h-114v35h162q-42 -106 -65 -209.5t-28 -202.5h-38z" />
    <glyph glyph-name="eightinferior" unicode="&#x2088;" horiz-adv-x="235" 
d="M36 336q0 38 19 60.5t61 22.5t61.5 -22.5t19.5 -60.5v-151q0 -31 -10 -51.5t-25 -29.5q31 -10 31 -48q0 -31 -20 -47t-57 -16q-35 0 -55.5 15.5t-20.5 47.5q0 38 31 48q-35 19 -35 81v151zM162 333q0 23 -11.5 36.5t-34.5 13.5t-34 -13.5t-11 -36.5v-151
q0 -32 10.5 -47.5t34.5 -15.5q46 0 46 63v151zM160 59q0 31 -44 31q-43 0 -43 -31q0 -34 43 -34q44 0 44 34z" />
    <glyph glyph-name="nineinferior" unicode="&#x2089;" horiz-adv-x="235" 
d="M94 0q23 22 39.5 55t23.5 73q-8 -7 -19.5 -11.5t-26.5 -4.5q-37 0 -56.5 18.5t-19.5 60.5v145q0 38 19.5 60.5t61.5 22.5q41 0 60.5 -22.5t19.5 -60.5v-140q0 -77 -18.5 -126t-37.5 -70h-46zM160 327q0 25 -9.5 41t-34.5 16q-26 0 -35.5 -16t-9.5 -41v-136
q0 -26 11 -36.5t34 -10.5q19 0 31.5 10.5t12.5 36.5v136z" />
    <glyph glyph-name="dong" unicode="&#x20ab;" horiz-adv-x="385" 
d="M271 580h-213v35h213v118h43v-118h36v-35h-36v-325q0 -65 -33.5 -104t-104.5 -39t-104.5 39t-33.5 104v74q0 63 34.5 94.5t98.5 31.5q79 0 100 -56v181zM21 0v34h329v-34h-329zM271 324q0 46 -22 72t-73 26q-50 0 -72 -26t-22 -72v-61q0 -49 22 -78t72 -29q49 0 72 27.5
t23 73.5v67z" />
    <glyph glyph-name="Euro" unicode="&#x20ac;" horiz-adv-x="359" 
d="M321 8q-23 -14 -48.5 -17.5t-52.5 -3.5q-51 0 -81 15t-45.5 41t-19.5 60.5t-4 74.5v65h-40l-8 35h48v170h-40l-8 36h48v83q0 40 4 74.5t19.5 60.5t45.5 41t81 15q32 0 59.5 -3.5t52.5 -14.5l-7 -46q-23 11 -48 15t-51 4q-39 0 -61.5 -11.5t-33.5 -31.5t-14 -46.5
t-3 -57.5v-82h185l-6 -36h-179v-170h157l-5 -35h-152v-65q0 -31 3 -57.5t14 -46.5t33.5 -31.5t61.5 -11.5q25 0 47.5 3.5t47.5 17.5v-44z" />
    <glyph glyph-name="trademark" unicode="&#x2122;" horiz-adv-x="470" 
d="M94 355v392h-59v28h142v-28h-56v-392h-27zM395 355v301l-79 -244l-76 244v-301h-25v459l101 -317l104 317v-459h-25z" />
    <glyph glyph-name="uni2126" unicode="&#x2126;" horiz-adv-x="444" 
d="M258 0v47q22 23 41 60.5t33 85.5t22 103.5t8 115.5q0 73 -3.5 129t-17 94t-42 57.5t-77.5 19.5q-50 0 -78.5 -19.5t-42.5 -57.5t-17.5 -94t-3.5 -129q0 -60 8 -115.5t22 -103.5t33 -85.5t41 -60.5v-47h-141v41h113q-21 18 -43 55t-39.5 87.5t-29 113t-11.5 131.5
q0 76 4 137t22.5 104t56.5 66t106 23q67 0 105 -23t56 -66t22 -104t4 -137q0 -69 -11.5 -131.5t-29 -113t-39 -87.5t-42.5 -55h113v-41h-142z" />
    <glyph glyph-name="onethird" unicode="&#x2153;" horiz-adv-x="460" 
d="M97 333v377l-24 35h59v-412h-35zM47 0l274 745h36l-273 -745h-37zM265 41q36 -15 61 -15q16 0 32.5 8.5t16.5 31.5q0 10 -8 18.5t-34 8.5h-41l-6 29h45q15 0 24 6.5t13.5 17t6 25t1.5 30.5v109q0 15 -1.5 28.5t-7 23.5t-16.5 15.5t-30 5.5q-13 0 -26 -2.5t-30 -13.5v37
q15 11 30 13t29 2q30 0 47.5 -8.5t26.5 -23.5t11 -34.5t2 -41.5v-105q0 -32 -5.5 -58.5t-27.5 -39.5q19 -5 25 -17.5t6 -28.5q0 -20 -7 -33.5t-19 -21.5t-27 -11t-30 -3q-14 0 -30.5 3.5t-30.5 10.5v34z" />
    <glyph glyph-name="twothirds" unicode="&#x2154;" horiz-adv-x="516" 
d="M47 333v65q0 52 21.5 87.5t54.5 67.5q20 19 33.5 42t13.5 55q0 26 -13.5 46t-46.5 20q-26 0 -55 -14v36q17 8 30.5 11t28.5 3q24 0 41.5 -8.5t28 -22.5t15.5 -32t5 -38q0 -39 -18 -71t-44 -56q-29 -28 -44.5 -56t-15.5 -72v-29h119v-34h-154zM108 0l274 745h36l-273 -745
h-37zM321 41q36 -15 61 -15q16 0 32.5 8.5t16.5 31.5q0 10 -8 18.5t-34 8.5h-41l-6 29h45q15 0 24 6.5t13.5 17t6 25t1.5 30.5v109q0 15 -1.5 28.5t-7 23.5t-16.5 15.5t-30 5.5q-13 0 -26 -2.5t-30 -13.5v37q15 11 30 13t29 2q30 0 47.5 -8.5t26.5 -23.5t11 -34.5t2 -41.5
v-105q0 -32 -5.5 -58.5t-27.5 -39.5q19 -5 25 -17.5t6 -28.5q0 -20 -7 -33.5t-19 -21.5t-27 -11t-30 -3q-14 0 -30.5 3.5t-30.5 10.5v34z" />
    <glyph glyph-name="oneeighth" unicode="&#x215b;" horiz-adv-x="466" 
d="M80 333v377l-24 35h59v-412h-35zM47 0l274 745h36l-273 -745h-37zM256 336q0 38 19 60.5t61 22.5t61.5 -22.5t19.5 -60.5v-151q0 -31 -10 -51.5t-25 -29.5q31 -10 31 -48q0 -31 -20 -47t-57 -16q-35 0 -55.5 15.5t-20.5 47.5q0 38 31 48q-35 19 -35 81v151zM382 333
q0 23 -11.5 36.5t-34.5 13.5t-34 -13.5t-11 -36.5v-151q0 -32 10.5 -47.5t34.5 -15.5q46 0 46 63v151zM380 59q0 31 -44 31q-43 0 -43 -31q0 -34 43 -34q44 0 44 34z" />
    <glyph glyph-name="threeeighths" unicode="&#x215c;" horiz-adv-x="495" 
d="M47 374q36 -15 61 -15q16 0 32.5 8.5t16.5 31.5q0 10 -8 18.5t-34 8.5h-41l-6 29h45q15 0 24 6.5t13.5 17t6 25t1.5 30.5v109q0 15 -1.5 28.5t-7 23.5t-16.5 15.5t-30 5.5q-13 0 -26 -2.5t-30 -13.5v37q15 11 30 13t29 2q30 0 47.5 -8.5t26.5 -23.5t11 -34.5t2 -41.5
v-105q0 -32 -5.5 -58.5t-27.5 -39.5q19 -5 25 -17.5t6 -28.5q0 -20 -7 -33.5t-19 -21.5t-27 -11t-30 -3q-14 0 -30.5 3.5t-30.5 10.5v34zM80 0l274 745h36l-273 -745h-37zM285 336q0 38 19 60.5t61 22.5t61.5 -22.5t19.5 -60.5v-151q0 -31 -10 -51.5t-25 -29.5
q31 -10 31 -48q0 -31 -20 -47t-57 -16q-35 0 -55.5 15.5t-20.5 47.5q0 38 31 48q-35 19 -35 81v151zM411 333q0 23 -11.5 36.5t-34.5 13.5t-34 -13.5t-11 -36.5v-151q0 -32 10.5 -47.5t34.5 -15.5q46 0 46 63v151zM409 59q0 31 -44 31q-43 0 -43 -31q0 -34 43 -34
q44 0 44 34z" />
    <glyph glyph-name="fiveeighths" unicode="&#x215d;" horiz-adv-x="496" 
d="M47 373q15 -7 32 -10.5t31 -3.5q19 0 33 10.5t14 32.5q0 19 -10.5 29t-28.5 10q-15 0 -31 -3.5t-36 -11.5l9 319h120v-35h-86l-8 -245q18 6 40 6q32 0 48.5 -18.5t16.5 -50.5q0 -41 -22 -58.5t-60 -17.5q-13 0 -30.5 3.5t-31.5 10.5v33zM77 0l274 745h36l-273 -745h-37z
M286 336q0 38 19 60.5t61 22.5t61.5 -22.5t19.5 -60.5v-151q0 -31 -10 -51.5t-25 -29.5q31 -10 31 -48q0 -31 -20 -47t-57 -16q-35 0 -55.5 15.5t-20.5 47.5q0 38 31 48q-35 19 -35 81v151zM412 333q0 23 -11.5 36.5t-34.5 13.5t-34 -13.5t-11 -36.5v-151q0 -32 10.5 -47.5
t34.5 -15.5q46 0 46 63v151zM410 59q0 31 -44 31q-43 0 -43 -31q0 -34 43 -34q44 0 44 34z" />
    <glyph glyph-name="seveneighths" unicode="&#x215e;" horiz-adv-x="482" 
d="M78 333q8 96 27.5 192.5t55.5 184.5h-114v35h162q-42 -106 -65 -209.5t-28 -202.5h-38zM55 0l274 745h36l-273 -745h-37zM272 336q0 38 19 60.5t61 22.5t61.5 -22.5t19.5 -60.5v-151q0 -31 -10 -51.5t-25 -29.5q31 -10 31 -48q0 -31 -20 -47t-57 -16q-35 0 -55.5 15.5
t-20.5 47.5q0 38 31 48q-35 19 -35 81v151zM398 333q0 23 -11.5 36.5t-34.5 13.5t-34 -13.5t-11 -36.5v-151q0 -32 10.5 -47.5t34.5 -15.5q46 0 46 63v151zM396 59q0 31 -44 31q-43 0 -43 -31q0 -34 43 -34q44 0 44 34z" />
    <glyph glyph-name="partialdiff" unicode="&#x2202;" horiz-adv-x="396" 
d="M169 743q13 9 51 9q48 0 76 -31t42.5 -77t18 -97.5t3.5 -92.5q0 -44 -3 -95.5t-11.5 -104t-23 -101t-37.5 -86.5t-54.5 -60.5t-74.5 -22.5q-32 0 -55 15.5t-38 42.5t-22 63.5t-7 78.5q0 49 10.5 93.5t30.5 78t50.5 53t69.5 19.5q44 0 76.5 -30.5t46.5 -84.5
q4 36 5.5 73.5t1.5 69.5q0 37 -3.5 81t-14.5 82t-33 63.5t-59 25.5q-17 0 -27 -2t-19 -7v44zM310 269q-13 57 -42 90t-71 33q-32 0 -55.5 -15.5t-40 -43t-24.5 -65t-8 -80.5q0 -34 5.5 -63.5t16.5 -51t28.5 -33.5t41.5 -12q34 0 59.5 20t43 53.5t29 77t17.5 90.5z" />
    <glyph glyph-name="uni2206" unicode="&#x2206;" horiz-adv-x="367" 
d="M15 0l167 814l168 -814h-335zM182 628l-115 -587h231z" />
    <glyph glyph-name="product" unicode="&#x220f;" horiz-adv-x="395" 
d="M302 -170v875h-211v-875h-39v915h289v-915h-39z" />
    <glyph glyph-name="summation" unicode="&#x2211;" horiz-adv-x="404" 
d="M35 -149v29l215 417l-215 418v30h331v-41h-281l206 -407l-206 -406h281v-40h-331z" />
    <glyph glyph-name="minus" unicode="&#x2212;" horiz-adv-x="514" 
d="M49 345v35h414v-35h-414z" />
    <glyph glyph-name="radical" unicode="&#x221a;" horiz-adv-x="484" 
d="M200 0l-103 318h-80v36h115l96 -301l190 692h45l-208 -745h-55z" />
    <glyph glyph-name="infinity" unicode="&#x221e;" horiz-adv-x="521" 
d="M260 326q-3 -36 -11 -59t-20.5 -36.5t-30.5 -19t-40 -5.5q-21 0 -40.5 3.5t-35 19t-24.5 46.5t-9 87q0 55 9 86.5t24.5 47t35 19t40.5 3.5q22 0 40 -5.5t30.5 -19t20.5 -36.5t11 -59q2 36 10 59t21 36.5t30.5 19t38.5 5.5q22 0 42 -3.5t35 -19t24 -47t9 -86.5
q0 -56 -9 -87t-24 -46.5t-35 -19t-42 -3.5q-21 0 -38.5 5.5t-30.5 19t-21 36.5t-10 59zM356 250q17 0 32.5 2.5t27.5 13.5t19 33.5t7 62.5t-7 62.5t-18.5 33.5t-27 13.5t-33.5 2.5q-17 0 -31.5 -4.5t-26 -16.5t-18 -34t-6.5 -57t6.5 -57t18 -34t26 -16.5t31.5 -4.5zM161 250
q17 0 32 4.5t26.5 16.5t18.5 34t7 57t-6.5 57t-18 34t-26.5 16.5t-32 4.5t-32.5 -2.5t-27 -13.5t-18 -33.5t-6.5 -62.5t6.5 -62.5t18 -33.5t26.5 -13.5t32 -2.5z" />
    <glyph glyph-name="integral" unicode="&#x222b;" horiz-adv-x="358" 
d="M157 590q0 85 26 126t83 41q43 0 63 -21q-2 -10 -2 -20t-2 -20q-11 11 -23 14t-26 3q-34 0 -55.5 -25t-21.5 -82v-655q0 -85 -26 -126t-82 -41q-42 0 -65 20l5 41q11 -11 23 -14.5t26 -3.5q34 0 55.5 25t21.5 82v656z" />
    <glyph glyph-name="approxequal" unicode="&#x2248;" horiz-adv-x="514" 
d="M463 245q-23 -31 -48 -42t-56 -11q-29 0 -55 8.5t-51 19t-50 19.5t-51 9q-19 0 -33 -3.5t-25.5 -11t-22 -19t-22.5 -27.5v39q23 32 48.5 42.5t56.5 10.5q28 0 53.5 -8.5t50 -19t50 -19t53.5 -8.5q37 0 58 14t44 46v-39zM463 461q-23 -31 -48 -42t-56 -11q-29 0 -55 8.5
t-51 19t-50 19.5t-51 9q-19 0 -33 -3.5t-25.5 -11t-22 -19t-22.5 -27.5v39q23 32 48.5 42.5t56.5 10.5q28 0 53.5 -8.5t50 -19t50 -19t53.5 -8.5q37 0 58 14t44 46v-39z" />
    <glyph glyph-name="notequal" unicode="&#x2260;" horiz-adv-x="528" 
d="M216 240l-152 -281h-35l153 281h-133v35h152l96 176h-248v35h267l147 271h33l-147 -271h129v-35h-147l-97 -176h244v-35h-262z" />
    <glyph glyph-name="lessequal" unicode="&#x2264;" horiz-adv-x="514" 
d="M49 352v29l414 273v-44l-368 -243l368 -244v-44zM49 -1v35h414v-35h-414z" />
    <glyph glyph-name="greaterequal" unicode="&#x2265;" horiz-adv-x="514" 
d="M49 -1v35h414v-35h-414zM49 79v44l369 244l-369 243v44l414 -273v-29z" />
    <glyph glyph-name="dotmath" unicode="&#x22c5;" horiz-adv-x="167" 
d="M82 292q-33 0 -33 41t33 41q34 0 34 -41t-34 -41z" />
    <glyph glyph-name="lozenge" unicode="&#x25ca;" horiz-adv-x="416" 
d="M188 0l-143 372l143 373h39l144 -373l-144 -372h-39zM334 372l-127 319l-124 -319l124 -318z" />
    <glyph glyph-name="uniF8FF" unicode="&#xf8ff;" horiz-adv-x="183" 
 />
    <glyph glyph-name="fi" unicode="&#xfb01;" horiz-adv-x="426" 
d="M48 0v172h-38l-8 34h46v539h207v-44h-163v-495h140v-34h-140v-172h-44zM329 0v745h44v-745h-44z" />
    <glyph glyph-name="fl" unicode="&#xfb02;" horiz-adv-x="558" 
d="M48 0v172h-38l-8 34h46v539h207v-44h-163v-495h140v-34h-140v-172h-44zM329 0v745h44v-704h159v-41h-203z" />
    <glyph glyph-name="brevetilde" horiz-adv-x="354" 
d="M301 939q-11 -11 -27.5 -17t-36.5 -6q-17 0 -32 5.5t-29.5 11.5t-29 11.5t-30.5 5.5q-21 0 -36.5 -8t-26.5 -22v27q12 11 28.5 18t35.5 7q16 0 31 -5.5t30 -12t30 -12t31 -5.5q20 0 35 7.5t27 21.5v-27zM301 894q-6 -59 -38 -92t-86 -33t-86.5 33t-37.5 92h23
q7 -53 33 -77t68 -24t68 24.5t33 76.5h23z" />
    <glyph glyph-name="breveacute" horiz-adv-x="354" 
d="M301 894q-5 -59 -37.5 -92t-86.5 -33t-86 33t-38 92h23q7 -53 33 -77t68 -24t68 24t33 77h23zM131 853v20l158 99v-30z" />
    <glyph glyph-name="circumflexacute" horiz-adv-x="477" 
d="M256 855v19l167 98v-37zM169 876l-116 -107v23l116 123l117 -123v-23z" />
    <glyph glyph-name="nonmarkingreturn" horiz-adv-x="183" 
 />
    <glyph glyph-name="circumflexhook" horiz-adv-x="443" 
d="M306 816q1 21 10 32t19.5 20t19 19t8.5 28q0 12 -9.5 23t-38.5 11q-17 0 -45 -7v23q13 5 24.5 6t22.5 1q39 0 55.5 -16.5t16.5 -38.5q0 -23 -9 -35t-20.5 -21t-20.5 -18t-9 -27h-24zM169 876l-116 -107v23l116 123l117 -123v-23z" />
    <glyph glyph-name=".null" horiz-adv-x="0" 
 />
    <glyph glyph-name="gravecircumflex" horiz-adv-x="477" 
d="M53 935v37l167 -98v-19zM307 876l-116 -107v23l116 123l116 -123v-23z" />
    <glyph glyph-name="brevegrave" horiz-adv-x="354" 
d="M301 894q-6 -59 -38 -92t-86 -33t-86.5 33t-37.5 92h23q7 -53 33 -77t68 -24t68 24.5t33 76.5h23zM66 942v30l157 -99v-20z" />
    <glyph glyph-name="brevehook" horiz-adv-x="354" 
d="M157 825q0 20 8.5 30t18.5 18t18.5 17.5t8.5 28.5q0 12 -9.5 22.5t-36.5 10.5q-8 0 -18 -1.5t-24 -6.5v21q12 5 22.5 6t21.5 1q37 0 52.5 -16t15.5 -36q0 -22 -9 -33.5t-19.5 -19.5t-19 -17t-8.5 -25h-22zM300 894q-5 -59 -37 -92t-86 -33t-86.5 33t-37.5 92h23
q7 -53 33 -77.5t68 -24.5t68 25t33 77h22z" />
    </font>
</defs>
</svg>
